<svg xmlns="http://www.w3.org/2000/svg" width="226.288" height="238.661" viewBox="0 0 226.288 238.661">
  <g id="Metrics-pana" transform="translate(-28.53 -21.84)">
    <g id="freepik--Plant--inject-12" transform="translate(59.438 206.95)">
      <path id="Path_6590" data-name="Path 6590" d="M128.615,422.041c-.031.041-.322-.128-.639-.383s-.552-.511-.511-.542.322.128.639.383S128.651,422,128.615,422.041Z" transform="translate(-107.827 -402.243)" fill="#263238"/>
      <path id="Path_6591" data-name="Path 6591" d="M137.8,391.558a10.13,10.13,0,0,0-.3-3.622,3.183,3.183,0,0,0-5.987-.725,10.042,10.042,0,0,0-1.252,3.944,139.214,139.214,0,0,0-1.706,28.635l5.569.782C136.578,410.573,137.36,401.837,137.8,391.558Z" transform="translate(-108.301 -384.783)" fill="#455a64"/>
      <path id="Path_6592" data-name="Path 6592" d="M136,385.44v.087a1.053,1.053,0,0,1-.092.255c-.087.235-.215.557-.368.96-.077.209-.184.439-.266.695l-.271.843c-.1.3-.2.628-.312.971s-.189.72-.286,1.1a48.671,48.671,0,0,0-1.078,5.512c-.3,2.095-.511,4.419-.654,6.856-.286,4.879-.327,9.308-.455,12.511-.061,1.6-.112,2.9-.174,3.8-.031.434-.056.777-.072,1.022v0c0-.255,0-.6.031-1.022.041-.894.072-2.192.112-3.8.092-3.2.112-7.633.4-12.522.158-2.442.363-4.766.674-6.866a46.1,46.1,0,0,1,1.052-5.523c.107-.383.209-.756.3-1.1s.225-.664.332-.966.194-.582.286-.843a7.041,7.041,0,0,1,.281-.69c.169-.4.307-.72.4-.95l.112-.245Z" transform="translate(-110.033 -384.795)" fill="#263238"/>
      <path id="Path_6593" data-name="Path 6593" d="M139.637,385.44a4.052,4.052,0,0,1,.685,1.155,8.6,8.6,0,0,1,.511,3.6c-.148,3.065-.424,7.321-.792,12.006s-.777,8.915-1.1,11.975c-.163,1.533-.307,2.769-.414,3.622l-.123.986a1.484,1.484,0,0,1-.041.255v-.261c0-.245.051-.572.087-.986.087-.879.2-2.11.353-3.632.291-3.065.674-7.3,1.022-11.975s.664-8.925.843-12a8.685,8.685,0,0,0-.434-3.576A7.393,7.393,0,0,0,139.637,385.44Z" transform="translate(-113.158 -384.795)" fill="#263238"/>
      <path id="Path_6594" data-name="Path 6594" d="M146.464,412.961a2.85,2.85,0,0,1-1.052-.271,3.157,3.157,0,0,1-.991-.46,3.131,3.131,0,0,1,1.058.271,3.09,3.09,0,0,1,.986.46Z" transform="translate(-116.123 -397.898)" fill="#263238"/>
      <path id="Path_6595" data-name="Path 6595" d="M147.725,402.55a3.439,3.439,0,0,1-1.022.562,3.383,3.383,0,0,1-1.083.373,3.335,3.335,0,0,1,1.022-.557A3.291,3.291,0,0,1,147.725,402.55Z" transform="translate(-116.709 -393.164)" fill="#263238"/>
      <path id="Path_6596" data-name="Path 6596" d="M147.48,393.3a1.778,1.778,0,0,1-.833.046.42.42,0,1,1,.015-.2,1.89,1.89,0,0,1,.817.153Z" transform="translate(-116.812 -388.552)" fill="#263238"/>
      <path id="Path_6597" data-name="Path 6597" d="M136.92,386.269c-.046.031-.286-.276-.542-.679a1.992,1.992,0,0,1-.378-.782c.046-.031.291.271.547.679S136.971,386.238,136.92,386.269Z" transform="translate(-112.004 -384.485)" fill="#263238"/>
      <path id="Path_6598" data-name="Path 6598" d="M132.579,393.036a1.609,1.609,0,0,1-.792.087c-.439,0-.792-.061-.787-.117s.353-.092.792-.082a1.763,1.763,0,0,1,.787.112Z" transform="translate(-109.558 -388.452)" fill="#263238"/>
      <path id="Path_6599" data-name="Path 6599" d="M129.893,403.514a1.922,1.922,0,0,1-.833-.23c-.439-.179-.782-.363-.761-.414a1.92,1.92,0,0,1,.833.23C129.571,403.279,129.914,403.447,129.893,403.514Z" transform="translate(-108.237 -393.32)" fill="#263238"/>
      <path id="Path_6600" data-name="Path 6600" d="M129.736,413.33a1.619,1.619,0,0,1-.71.25c-.4.087-.736.107-.746.051s.307-.163.705-.25S129.726,413.274,129.736,413.33Z" transform="translate(-108.228 -398.421)" fill="#263238"/>
      <path id="Path_6601" data-name="Path 6601" d="M128.4,428.419a1.693,1.693,0,0,1-.756.235c-.424.077-.777.1-.787.041a1.67,1.67,0,0,1,.751-.235C128.04,428.384,128.393,428.363,128.4,428.419Z" transform="translate(-107.534 -405.801)" fill="#263238"/>
      <path id="Path_6602" data-name="Path 6602" d="M127.707,436.771c.026.051-.255.25-.628.444s-.695.317-.72.271.255-.25.628-.444A1.759,1.759,0,0,1,127.707,436.771Z" transform="translate(-107.287 -409.897)" fill="#263238"/>
      <path id="Path_6603" data-name="Path 6603" d="M134.965,444.7c-.051.026-.3-.312-.552-.756a2.319,2.319,0,0,1-.373-.853,2.629,2.629,0,0,1,.547.756A2.32,2.32,0,0,1,134.965,444.7Z" transform="translate(-111.045 -412.993)" fill="#263238"/>
      <path id="Path_6604" data-name="Path 6604" d="M136.505,430.517c.036.041-.235.373-.608.741s-.71.633-.751.593.235-.368.608-.736S136.464,430.481,136.505,430.517Z" transform="translate(-111.584 -406.841)" fill="#263238"/>
      <path id="Path_6605" data-name="Path 6605" d="M136.426,421.259c-.036.036-.291-.174-.562-.465s-.46-.562-.419-.6.291.169.562.465S136.466,421.218,136.426,421.259Z" transform="translate(-111.73 -401.793)" fill="#263238"/>
      <path id="Path_6606" data-name="Path 6606" d="M137.6,411.737c.041.036-.184.358-.511.715s-.613.623-.654.582.184-.358.511-.715S137.559,411.7,137.6,411.737Z" transform="translate(-112.215 -397.656)" fill="#263238"/>
      <path id="Path_6607" data-name="Path 6607" d="M138.254,402.888c-.036.041-.353-.209-.705-.552s-.608-.664-.572-.7.358.209.71.557S138.295,402.842,138.254,402.888Z" transform="translate(-112.48 -392.715)" fill="#263238"/>
      <path id="Path_6608" data-name="Path 6608" d="M140.168,393.758a1.982,1.982,0,0,1-.358.792,2.31,2.31,0,0,1-.511.685,1.978,1.978,0,0,1,.358-.787C139.872,394.039,140.107,393.727,140.168,393.758Z" transform="translate(-113.618 -388.862)" fill="#263238"/>
      <path id="Path_6609" data-name="Path 6609" d="M142.992,384.179c.051.026-.092.378-.312.792s-.444.72-.511.695a1.915,1.915,0,0,1,.317-.792C142.727,384.465,142.947,384.153,142.992,384.179Z" transform="translate(-115.022 -384.177)" fill="#263238"/>
      <path id="Path_6610" data-name="Path 6610" d="M145.946,388.515c.026.051-.2.2-.511.347s-.562.22-.587.169.2-.2.511-.347S145.906,388.464,145.946,388.515Z" transform="translate(-116.331 -386.291)" fill="#263238"/>
      <path id="Path_6611" data-name="Path 6611" d="M145.1,422.1a2.237,2.237,0,0,1-1.093-.266,2.176,2.176,0,0,1-.94-.6,5.921,5.921,0,0,1,1.022.424,5.5,5.5,0,0,1,1.012.444Z" transform="translate(-115.462 -402.301)" fill="#263238"/>
      <path id="Path_6612" data-name="Path 6612" d="M144.273,430.191a1.706,1.706,0,0,1-.746.245,1.67,1.67,0,0,1-.787.051,1.635,1.635,0,0,1,.746-.245C143.91,430.16,144.262,430.135,144.273,430.191Z" transform="translate(-115.301 -406.669)" fill="#263238"/>
      <path id="Path_6613" data-name="Path 6613" d="M142.839,441.042a2.2,2.2,0,0,1-.848-.746,2.135,2.135,0,0,1-.511-1,6.476,6.476,0,0,1,.69.874,6.361,6.361,0,0,1,.669.868Z" transform="translate(-114.685 -411.139)" fill="#263238"/>
      <path id="Path_6614" data-name="Path 6614" d="M126.616,447.484c-.036-.041.189-.291.511-.562s.6-.455.633-.409-.189.291-.511.562S126.652,447.53,126.616,447.484Z" transform="translate(-107.413 -414.664)" fill="#263238"/>
      <path id="Path_6615" data-name="Path 6615" d="M117.41,418.793c-.363-1.134-1.022-2.452-2.233-2.473a1.982,1.982,0,0,0-1.671,1.119,4.133,4.133,0,0,0-.45,2.044,53.208,53.208,0,0,0,2.554,14.841h4.348a51.645,51.645,0,0,0-2.549-15.531Z" transform="translate(-100.781 -399.899)" fill="#455a64"/>
      <path id="Path_6616" data-name="Path 6616" d="M99.025,403.507A4.833,4.833,0,0,0,94.5,399.64c-1.921.337-2.667,2.227-2.9,4.169a13.711,13.711,0,0,0,.971,5.727q2.861,8.951,5.722,17.906l5.41-.593C102,418.854,101.012,411.441,99.025,403.507Z" transform="translate(-90.264 -391.74)" fill="#455a64"/>
      <path id="Path_6617" data-name="Path 6617" d="M116.49,416.32a5.111,5.111,0,0,0-.368.618,4.031,4.031,0,0,0-.2,1.921c.087.828.179,1.824.317,2.912s.342,2.294.582,3.54c.511,2.5,1.047,4.741,1.4,6.376.179.817.312,1.482.4,1.941l.092.511a.823.823,0,0,1,0,.184.716.716,0,0,1-.056-.179l-.128-.511c-.118-.511-.271-1.134-.46-1.926-.388-1.625-.96-3.862-1.456-6.366-.245-1.257-.434-2.457-.567-3.576-.072-.552-.117-1.073-.163-1.563s-.092-.945-.112-1.364a3.949,3.949,0,0,1,.271-1.962,1.716,1.716,0,0,1,.455-.557Z" transform="translate(-102.093 -399.899)" fill="#263238"/>
      <path id="Path_6618" data-name="Path 6618" d="M95.9,399.34a7.246,7.246,0,0,0-.654.879,6.192,6.192,0,0,0-.823,2.83,13.176,13.176,0,0,0,.669,4.358l1.533,5.231c1.083,3.709,2.044,7.065,2.774,9.518.337,1.206.618,2.187.817,2.892.087.327.158.588.209.787a1.793,1.793,0,0,1,.061.281,1.725,1.725,0,0,1-.1-.271c-.066-.194-.148-.455-.25-.776-.215-.7-.511-1.676-.879-2.871-.725-2.452-1.722-5.8-2.825-9.5l-1.533-5.242a12.911,12.911,0,0,1-.633-4.414,6.038,6.038,0,0,1,.9-2.861A3.254,3.254,0,0,1,95.9,399.34Z" transform="translate(-91.592 -391.594)" fill="#263238"/>
      <path id="Path_6619" data-name="Path 6619" d="M105.081,426.228a2.281,2.281,0,0,1-.123-.261c-.066-.174-.184-.424-.307-.761-.255-.664-.588-1.645-.93-2.871s-.679-2.713-1.022-4.363-.659-3.474-1.022-5.385a52.071,52.071,0,0,0-1.282-5.313,29.774,29.774,0,0,0-1.574-4.169,21.733,21.733,0,0,0-1.4-2.631c-.184-.3-.353-.511-.455-.679a1.531,1.531,0,0,1-.153-.245,1.3,1.3,0,0,1,.184.22c.112.153.291.363.511.664a19.571,19.571,0,0,1,1.533,2.611,28.1,28.1,0,0,1,1.63,4.174,53.288,53.288,0,0,1,1.236,5.334c.358,1.911.695,3.729,1.022,5.39s.639,3.132.966,4.358.628,2.212.863,2.886c.112.337.215.593.276.771A1.1,1.1,0,0,1,105.081,426.228Z" transform="translate(-92.835 -391.696)" fill="#263238"/>
      <path id="Path_6620" data-name="Path 6620" d="M92.433,417.233a1.466,1.466,0,0,1-.659.261c-.373.092-.69.123-.705.066s.281-.169.659-.261S92.418,417.177,92.433,417.233Z" transform="translate(-90.027 -400.332)" fill="#263238"/>
      <path id="Path_6621" data-name="Path 6621" d="M90.859,409.883a6.842,6.842,0,0,1-1.829.072,1.911,1.911,0,0,1,.909-.174,1.818,1.818,0,0,1,.92.1Z" transform="translate(-89.03 -396.691)" fill="#263238"/>
      <path id="Path_6622" data-name="Path 6622" d="M92.683,402.455c-.036.041-.332-.148-.659-.429s-.562-.511-.511-.577.327.148.654.429S92.719,402.414,92.683,402.455Z" transform="translate(-90.241 -392.619)" fill="#263238"/>
      <path id="Path_6623" data-name="Path 6623" d="M96.838,397.319c.051,0,.036.276.031.593s0,.582-.066.588-.143-.255-.133-.593A.918.918,0,0,1,96.838,397.319Z" transform="translate(-92.766 -390.605)" fill="#263238"/>
      <path id="Path_6624" data-name="Path 6624" d="M102.908,400.2c.046.031-.087.3-.3.593s-.414.511-.46.48.092-.3.3-.593S102.862,400.161,102.908,400.2Z" transform="translate(-95.444 -392.011)" fill="#263238"/>
      <path id="Path_6625" data-name="Path 6625" d="M106.652,407.625a1.49,1.49,0,0,1-.623.363c-.368.148-.679.23-.7.179s.255-.215.623-.363S106.632,407.574,106.652,407.625Z" transform="translate(-97.002 -395.639)" fill="#263238"/>
      <path id="Path_6626" data-name="Path 6626" d="M108.8,415.3a1.62,1.62,0,0,1-.858.373,1.589,1.589,0,0,1-.935.031,3.681,3.681,0,0,1,.894-.225,3.4,3.4,0,0,1,.9-.179Z" transform="translate(-97.824 -399.4)" fill="#263238"/>
      <path id="Path_6627" data-name="Path 6627" d="M98.571,412.019c-.051,0,0-.286.087-.6s.22-.562.271-.547,0,.291-.082.608S98.622,412.034,98.571,412.019Z" transform="translate(-93.687 -397.233)" fill="#263238"/>
      <path id="Path_6628" data-name="Path 6628" d="M100.25,421.257a1.987,1.987,0,0,1,.245-.817c.189-.424.378-.756.429-.731a1.906,1.906,0,0,1-.245.812C100.5,420.95,100.3,421.277,100.25,421.257Z" transform="translate(-94.518 -401.556)" fill="#263238"/>
      <path id="Path_6629" data-name="Path 6629" d="M94.687,424.9a1.92,1.92,0,0,1-.777-.174c-.414-.128-.751-.245-.741-.3a1.481,1.481,0,0,1,.8.112C94.391,424.672,94.708,424.851,94.687,424.9Z" transform="translate(-91.055 -403.858)" fill="#263238"/>
      <path id="Path_6630" data-name="Path 6630" d="M97.412,433.2c.036.041-.2.266-.511.511s-.6.373-.633.327.2-.261.511-.511S97.381,433.155,97.412,433.2Z" transform="translate(-92.569 -408.151)" fill="#263238"/>
      <path id="Path_6631" data-name="Path 6631" d="M99.143,440.981c0,.056-.271.169-.639.261s-.674.118-.685.061.271-.169.639-.255A1.452,1.452,0,0,1,99.143,440.981Z" transform="translate(-93.329 -411.951)" fill="#263238"/>
      <path id="Path_6632" data-name="Path 6632" d="M109.531,421.818c.031.046-.215.24-.572.373s-.669.148-.679.1.271-.153.608-.281S109.506,421.767,109.531,421.818Z" transform="translate(-98.445 -402.582)" fill="#263238"/>
      <path id="Path_6633" data-name="Path 6633" d="M111.039,433.439c0,.051-.317-.036-.654-.194s-.593-.327-.567-.378.317.041.654.2S111.06,433.382,111.039,433.439Z" transform="translate(-99.197 -407.985)" fill="#263238"/>
      <path id="Path_6634" data-name="Path 6634" d="M113.229,442.069a2.105,2.105,0,0,1-.863-.235c-.455-.179-.807-.363-.787-.414a2.044,2.044,0,0,1,.863.23C112.9,441.829,113.25,442.018,113.229,442.069Z" transform="translate(-100.059 -412.176)" fill="#263238"/>
      <path id="Path_6635" data-name="Path 6635" d="M100.83,448.365a5.255,5.255,0,0,1,.736-.613,3.985,3.985,0,0,1,.771-.572c.041.036-.22.4-.644.731A1.788,1.788,0,0,1,100.83,448.365Z" transform="translate(-94.802 -414.993)" fill="#263238"/>
      <path id="Path_6636" data-name="Path 6636" d="M107.222,443.84c-.056,0-.133-.291-.266-.639s-.281-.623-.235-.654.276.2.419.582S107.274,443.835,107.222,443.84Z" transform="translate(-97.679 -412.726)" fill="#263238"/>
      <path id="Path_6637" data-name="Path 6637" d="M105.026,433.984c-.036.046-.261-.061-.511-.24s-.419-.358-.388-.4.261.066.511.24S105.082,433.943,105.026,433.984Z" transform="translate(-96.412 -408.219)" fill="#263238"/>
      <path id="Path_6638" data-name="Path 6638" d="M120.841,418.2c.036.046-.189.266-.511.511s-.582.373-.613.327.189-.261.511-.485S120.811,418.163,120.841,418.2Z" transform="translate(-104.038 -400.817)" fill="#263238"/>
      <path id="Path_6639" data-name="Path 6639" d="M122.9,424.652c0,.056-.342.128-.771.082s-.751-.194-.731-.245a2.394,2.394,0,0,1,.756.046C122.559,424.581,122.9,424.6,122.9,424.652Z" transform="translate(-104.862 -403.889)" fill="#263238"/>
      <path id="Path_6640" data-name="Path 6640" d="M112.6,426.267c0,.056-.307.169-.72.194a1.221,1.221,0,0,1-.746-.092c0-.056.332-.077.731-.1A2,2,0,0,1,112.6,426.267Z" transform="translate(-99.84 -404.748)" fill="#263238"/>
      <path id="Path_6641" data-name="Path 6641" d="M113.693,419.521c0,.051-.327.061-.679-.1s-.562-.414-.511-.455.281.128.6.271A2.71,2.71,0,0,1,113.693,419.521Z" transform="translate(-100.507 -401.189)" fill="#263238"/>
      <path id="Path_6642" data-name="Path 6642" d="M123.912,431.087c-.031.046-.358-.112-.741-.353s-.664-.47-.633-.511a1.786,1.786,0,0,1,.741.347C123.657,430.811,123.943,431.036,123.912,431.087Z" transform="translate(-105.418 -406.696)" fill="#263238"/>
      <rect id="Rectangle_590" data-name="Rectangle 590" width="28.318" height="5.017" transform="translate(3.127 33.862)" fill="#34ac97"/>
      <path id="Path_6643" data-name="Path 6643" d="M99.29,458.33l3.443,15h16.879l3.765-15Z" transform="translate(-94.048 -420.447)" fill="#34ac97"/>
      <path id="Path_6644" data-name="Path 6644" d="M123.237,460.2c0,.056-6.386.1-14.264.1s-14.264-.046-14.264-.1,6.386-.1,14.264-.1S123.237,460.146,123.237,460.2Z" transform="translate(-91.808 -421.313)" fill="#263238"/>
      <path id="Path_6645" data-name="Path 6645" d="M119.05,425.446c-.046.031-.24-.2-.434-.511s-.312-.577-.266-.608.24.194.434.511S119.1,425.415,119.05,425.446Z" transform="translate(-103.366 -403.814)" fill="#263238"/>
      <path id="Path_6646" data-name="Path 6646" d="M119.729,433.021c-.056,0,0-.358.148-.761s.281-.715.337-.7,0,.358-.148.761S119.781,433.041,119.729,433.021Z" transform="translate(-104.035 -407.353)" fill="#263238"/>
      <path id="Path_6647" data-name="Path 6647" d="M121.716,441.189a2.435,2.435,0,0,1-.47-.756,2.11,2.11,0,0,1-.3-.843,2.4,2.4,0,0,1,.475.756,2.043,2.043,0,0,1,.291.843Z" transform="translate(-104.643 -411.281)" fill="#263238"/>
      <path id="Path_6648" data-name="Path 6648" d="M116.594,448.39c-.041-.036.128-.3.378-.588s.511-.511.511-.46a1.723,1.723,0,0,1-.378.588C116.855,448.217,116.635,448.426,116.594,448.39Z" transform="translate(-102.509 -415.069)" fill="#263238"/>
      <path id="Path_6649" data-name="Path 6649" d="M114.235,437.043c0,.056-.281.056-.608,0s-.582-.148-.577-.2.286-.051.613,0S114.245,436.991,114.235,437.043Z" transform="translate(-100.779 -409.919)" fill="#263238"/>
    </g>
    <g id="freepik--Floor--inject-12" transform="translate(28.53 259.536)">
      <path id="Path_6650" data-name="Path 6650" d="M254.818,487.248c0,.071-50.659.133-113.139.133s-113.149-.061-113.149-.133,50.648-.138,113.149-.138S254.818,487.171,254.818,487.248Z" transform="translate(-28.53 -487.11)" fill="#263238"/>
    </g>
    <g id="freepik--Screens--inject-12" transform="translate(29.516 21.84)">
      <path id="Path_6651" data-name="Path 6651" d="M224.132,161.729l3.239-.01-.107-38-55.343.158.112,38,45.877-.133,5.834,6.233Z" transform="translate(-99.651 -71.672)" fill="#f5f5f5"/>
      <path id="Path_6652" data-name="Path 6652" d="M180.094,162.863c-.066,0-.138-6.442-.163-14.391s0-14.4.082-14.4.138,6.447.158,14.4S180.161,162.863,180.094,162.863Z" transform="translate(-103.565 -76.734)" fill="#263238"/>
      <path id="Path_6653" data-name="Path 6653" d="M228.087,182.334c0,.066-10.795.153-24.108.189s-24.1,0-24.108-.051,10.795-.153,24.108-.189S228.081,182.268,228.087,182.334Z" transform="translate(-103.54 -100.308)" fill="#ebebeb"/>
      <path id="Path_6654" data-name="Path 6654" d="M228.061,174.044c0,.066-10.795.153-24.1.189s-24.108,0-24.108-.051,10.805-.148,24.088-.2S228.061,173.978,228.061,174.044Z" transform="translate(-103.53 -96.243)" fill="#ebebeb"/>
      <path id="Path_6655" data-name="Path 6655" d="M228.041,165.792c0,.066-10.795.153-24.1.194s-24.108,0-24.108-.056,10.79-.148,24.1-.189S228.041,165.726,228.041,165.792Z" transform="translate(-103.52 -92.216)" fill="#ebebeb"/>
      <path id="Path_6656" data-name="Path 6656" d="M228.012,157.522c0,.072-10.79.153-24.1.194s-24.108,0-24.108-.051,10.795-.153,24.108-.194S228.012,157.456,228.012,157.522Z" transform="translate(-103.506 -88.171)" fill="#ebebeb"/>
      <path id="Path_6657" data-name="Path 6657" d="M227.991,149.264c0,.066-10.795.148-24.1.189s-24.108,0-24.108-.051,10.79-.153,24.108-.189S227.991,149.2,227.991,149.264Z" transform="translate(-103.496 -84.133)" fill="#ebebeb"/>
      <path id="Path_6658" data-name="Path 6658" d="M227.971,140.994c0,.066-10.795.153-24.108.189s-24.1,0-24.1-.051,10.79-.153,24.1-.189S227.971,140.928,227.971,140.994Z" transform="translate(-103.486 -80.088)" fill="#ebebeb"/>
      <path id="Path_6659" data-name="Path 6659" d="M227.941,132.724c0,.066-10.79.153-24.1.189s-24.108,0-24.108-.051,10.79-.153,24.108-.189S227.941,132.658,227.941,132.724Z" transform="translate(-103.471 -76.043)" fill="#ebebeb"/>
      <rect id="Rectangle_591" data-name="Rectangle 591" width="3.459" height="6.585" transform="translate(79.593 79.532) rotate(-0.17)" fill="#34ac97"/>
      <rect id="Rectangle_592" data-name="Rectangle 592" width="3.459" height="6.585" transform="matrix(1, -0.003, 0.003, 1, 104.686, 79.479)" fill="#34ac97"/>
      <rect id="Rectangle_593" data-name="Rectangle 593" width="3.459" height="11.423" transform="translate(86.358 74.668) rotate(-0.17)" fill="#34ac97"/>
      <rect id="Rectangle_594" data-name="Rectangle 594" width="3.459" height="14.397" transform="matrix(1, -0.003, 0.003, 1, 99.009, 71.678)" fill="#34ac97"/>
      <rect id="Rectangle_595" data-name="Rectangle 595" width="3.459" height="23.143" transform="translate(92.74 62.93) rotate(-0.17)" fill="#34ac97"/>
      <rect id="Rectangle_596" data-name="Rectangle 596" width="3.459" height="18.862" transform="translate(111.136 67.533)" fill="#34ac97"/>
      <path id="Path_6660" data-name="Path 6660" d="M222.8,190.123c0,.066-9.487.148-21.186.184s-21.191,0-21.191-.061,9.487-.148,21.191-.179S222.8,190.056,222.8,190.123Z" transform="translate(-103.809 -104.117)" fill="#263238"/>
      <path id="Path_6661" data-name="Path 6661" d="M96.389,85.81l-65.929.123v52.1H87.729l5.635,6.023.373-6.023h2.611Z" transform="translate(-30.46 -53.129)" fill="#f5f5f5"/>
      <path id="Path_6662" data-name="Path 6662" d="M95.856,149.225H92.4L83,149.251l-31.026.031H38.51v-.087c0-8.864,0-16.491.031-21.906v-6.325c0,1.476,0,3.627.026,6.325,0,5.415,0,13.043.031,21.906l-.087-.087H51.895l31.026.026,9.405.031h3.224Z" transform="translate(-34.397 -69.212)" fill="#263238"/>
      <rect id="Rectangle_597" data-name="Rectangle 597" width="5.783" height="5.783" transform="translate(8.848 72.478)" fill="#34ac97"/>
      <rect id="Rectangle_598" data-name="Rectangle 598" width="5.783" height="9.921" transform="translate(17.329 68.34)" fill="#34ac97"/>
      <rect id="Rectangle_599" data-name="Rectangle 599" width="5.783" height="14.616" transform="translate(25.845 63.645)" fill="#34ac97"/>
      <rect id="Rectangle_600" data-name="Rectangle 600" width="5.783" height="19.848" transform="translate(34.096 58.414)" fill="#34ac97"/>
      <rect id="Rectangle_601" data-name="Rectangle 601" width="5.783" height="26.54" transform="translate(42.541 51.721)" fill="#34ac97"/>
      <rect id="Rectangle_602" data-name="Rectangle 602" width="5.783" height="31.373" transform="translate(50.924 46.612)" fill="#34ac97"/>
      <g id="Group_206" data-name="Group 206" transform="translate(17.329 68.34)" opacity="0.5">
        <rect id="Rectangle_603" data-name="Rectangle 603" width="5.783" height="9.921" fill="#fff"/>
      </g>
      <g id="Group_207" data-name="Group 207" transform="translate(34.096 58.414)" opacity="0.5">
        <rect id="Rectangle_604" data-name="Rectangle 604" width="5.783" height="19.848" transform="translate(0)" fill="#fff"/>
      </g>
      <g id="Group_208" data-name="Group 208" transform="translate(50.924 46.612)" opacity="0.5">
        <rect id="Rectangle_605" data-name="Rectangle 605" width="5.783" height="31.373" fill="#fff"/>
      </g>
      <path id="Path_6663" data-name="Path 6663" d="M47.78,127.233l.077-.056.225-.158.879-.587,3.316-2.187,11.479-7.5.133-.087v2.749l-.138-.077,4.521-3.03,15.96-10.667,4.853-3.213,1.323-.868.342-.22.123-.072s-.036.031-.112.087l-.332.235-1.308.894-4.812,3.249L68.379,116.453l-4.526,3.029-.138.092v-2.754l.133.072-11.51,7.443L49,126.477l-.9.567-.235.143Z" transform="translate(-38.932 -60.686)" fill="#263238"/>
      <path id="Path_6664" data-name="Path 6664" d="M129.362,103.656a3.127,3.127,0,0,1-.061-.71c0-.444-.026-1.058-.026-1.747l.087.087h-2.115a3.837,3.837,0,0,1-.787-.061,3.233,3.233,0,0,1,.787-.066h2.207v.092c0,.69,0,1.3-.031,1.747A2.8,2.8,0,0,1,129.362,103.656Z" transform="translate(-77.416 -60.635)" fill="#263238"/>
      <rect id="Rectangle_606" data-name="Rectangle 606" width="65.929" height="4.853" transform="translate(0 32.517)" fill="#263238"/>
      <path id="Path_6665" data-name="Path 6665" d="M36.278,89.035a.828.828,0,1,1-.393-.771A.828.828,0,0,1,36.278,89.035Z" transform="translate(-32.497 -54.27)" fill="#fafafa"/>
      <path id="Path_6666" data-name="Path 6666" d="M41.425,89.1a.823.823,0,1,1-.239-.585.822.822,0,0,1,.239.585Z" transform="translate(-35.019 -54.332)" fill="#fafafa"/>
      <circle id="Ellipse_85" data-name="Ellipse 85" cx="0.823" cy="0.823" r="0.823" transform="translate(7.433 33.943)" fill="#fafafa"/>
      <path id="Path_6667" data-name="Path 6667" d="M309.734,21.84H209.76V68.059h74.195l.409,6.519,6.1-6.519h19.27Z" transform="translate(-118.16 -21.84)" fill="#f5f5f5"/>
      <path id="Path_6668" data-name="Path 6668" d="M223.056,84.33v1.461h-.148V84.463h-.347V84.33Z" transform="translate(-124.42 -52.405)" fill="#263238"/>
      <path id="Path_6669" data-name="Path 6669" d="M224.21,85.051c0-.465.245-.741.582-.741s.588.276.588.741-.25.741-.588.741S224.21,85.516,224.21,85.051Zm1.022,0c0-.388-.174-.6-.429-.6s-.429.215-.429.6.179.6.429.6.419-.215.419-.6Z" transform="translate(-125.228 -52.396)" fill="#263238"/>
      <path id="Path_6670" data-name="Path 6670" d="M223.668,67.907v.133h-1.022v-.107l.6-.593c.169-.163.2-.261.2-.363a.326.326,0,0,0-.342-.271.511.511,0,0,0-.4.163L222.6,66.8a.644.644,0,0,1,.511-.209c.3,0,.485.148.485.393a.6.6,0,0,1-.24.455l-.511.511Z" transform="translate(-124.44 -43.727)" fill="#263238"/>
      <path id="Path_6671" data-name="Path 6671" d="M225,67.291c0-.465.245-.741.582-.741s.582.276.582.741-.245.741-.582.741S225,67.756,225,67.291Zm1.022,0c0-.388-.174-.6-.429-.6s-.429.215-.429.6.179.6.429.6S226.022,67.679,226.022,67.291Z" transform="translate(-125.614 -43.709)" fill="#263238"/>
      <path id="Path_6672" data-name="Path 6672" d="M223.652,49.847c0,.245-.179.429-.511.429a.771.771,0,0,1-.511-.184l.077-.123a.633.633,0,0,0,.45.169c.245,0,.378-.112.378-.291s-.128-.291-.4-.291h-.1v-.112l.4-.511h-.746V48.8h.94v.1l-.414.511A.436.436,0,0,1,223.652,49.847Z" transform="translate(-124.455 -35.027)" fill="#263238"/>
      <path id="Path_6673" data-name="Path 6673" d="M225,49.531c0-.465.245-.741.582-.741s.582.276.582.741-.245.741-.582.741S225,50,225,49.531Zm1.022,0c0-.388-.174-.6-.429-.6s-.429.215-.429.6.179.6.429.6S226.022,49.919,226.022,49.531Z" transform="translate(-125.614 -35.022)" fill="#263238"/>
      <path id="Path_6674" data-name="Path 6674" d="M236.14,94.421c0-.465.245-.741.582-.741s.582.276.582.741-.245.741-.582.741S236.14,94.865,236.14,94.421Zm1.022,0c0-.388-.174-.6-.429-.6s-.429.215-.429.6.174.6.429.6.419-.215.419-.6Z" transform="translate(-131.063 -56.979)" fill="#263238"/>
      <path id="Path_6675" data-name="Path 6675" d="M256.81,93.7v1.461h-.143V93.853h-.347V93.7Z" transform="translate(-140.933 -56.988)" fill="#263238"/>
      <path id="Path_6676" data-name="Path 6676" d="M278.538,95.018v.133h-1.022v-.107l.608-.593c.163-.163.194-.261.194-.363a.322.322,0,0,0-.342-.271.511.511,0,0,0-.4.158l-.107-.087a.649.649,0,0,1,.511-.209c.3,0,.48.148.48.393a.588.588,0,0,1-.24.455l-.511.511Z" transform="translate(-151.278 -56.978)" fill="#263238"/>
      <path id="Path_6677" data-name="Path 6677" d="M299.652,94.742c0,.24-.179.429-.511.429a.751.751,0,0,1-.511-.189l.072-.118a.659.659,0,0,0,.455.169c.24,0,.373-.112.373-.291s-.123-.291-.393-.291h-.1v-.087l.4-.511h-.746V93.7h.94v.107l-.414.511C299.493,94.364,299.652,94.507,299.652,94.742Z" transform="translate(-161.628 -56.988)" fill="#263238"/>
      <path id="Path_6678" data-name="Path 6678" d="M321.077,94.778h-.291v.383h-.153v-.383h-.822v-.112l.777-.966h.163l-.746.945h.633V94.3h.148v.342h.291Z" transform="translate(-171.988 -56.988)" fill="#263238"/>
      <path id="Path_6679" data-name="Path 6679" d="M341.942,94.742c0,.245-.169.439-.511.439a.751.751,0,0,1-.511-.189l.041-.107a.628.628,0,0,0,.444.169c.25,0,.383-.118.383-.3s-.118-.307-.511-.307h-.312l.077-.731h.8v.143h-.664l-.051.465h.189C341.778,94.308,341.942,94.481,341.942,94.742Z" transform="translate(-182.313 -56.998)" fill="#263238"/>
      <path id="Path_6680" data-name="Path 6680" d="M363.2,94.711a.455.455,0,0,1-.511.45c-.388,0-.6-.266-.6-.731a.7.7,0,0,1,1.012-.674l-.061.123a.511.511,0,0,0-.281-.072c-.317,0-.511.2-.511.6a1.048,1.048,0,0,0,0,.118.46.46,0,0,1,.444-.25.444.444,0,0,1,.506.434Zm-.148,0c0-.189-.143-.312-.368-.312a.337.337,0,0,0-.378.317c0,.163.138.312.388.312a.322.322,0,0,0,.373-.312Z" transform="translate(-192.668 -56.978)" fill="#263238"/>
      <path id="Path_6681" data-name="Path 6681" d="M384.223,93.7v.107l-.613,1.354h-.158l.6-1.328H383.3v.276h-.148V93.7Z" transform="translate(-202.969 -56.988)" fill="#263238"/>
      <path id="Path_6682" data-name="Path 6682" d="M313.171,85.763c0,.077-16.89.138-37.718.138s-37.723-.061-37.723-.138,16.89-.143,37.723-.143S313.171,85.681,313.171,85.763Z" transform="translate(-131.84 -53.036)" fill="#263238"/>
      <path id="Path_6683" data-name="Path 6683" d="M313.171,67.913c0,.077-16.89.138-37.718.138s-37.723-.061-37.723-.138,16.89-.143,37.723-.143S313.171,67.831,313.171,67.913Z" transform="translate(-131.84 -44.305)" fill="#263238"/>
      <path id="Path_6684" data-name="Path 6684" d="M313.171,50.063c0,.077-16.89.138-37.718.138s-37.723-.061-37.723-.138,16.89-.143,37.723-.143S313.171,49.961,313.171,50.063Z" transform="translate(-131.84 -35.575)" fill="#263238"/>
      <path id="Path_6685" data-name="Path 6685" d="M236.8,85.151a.485.485,0,1,1-.485-.511.48.48,0,0,1,.485.511Z" transform="translate(-130.912 -52.557)" fill="#34ac97"/>
      <path id="Path_6686" data-name="Path 6686" d="M258.071,85.151a.485.485,0,1,1-.48-.511.48.48,0,0,1,.48.511Z" transform="translate(-141.315 -52.557)" fill="#34ac97"/>
      <path id="Path_6687" data-name="Path 6687" d="M279.271,85.151a.485.485,0,1,1-.133-.36.485.485,0,0,1,.133.36Z" transform="translate(-151.685 -52.557)" fill="#34ac97"/>
      <path id="Path_6688" data-name="Path 6688" d="M300.5,85.151a.485.485,0,1,1-.133-.36A.485.485,0,0,1,300.5,85.151Z" transform="translate(-162.069 -52.557)" fill="#34ac97"/>
      <path id="Path_6689" data-name="Path 6689" d="M321.731,85.15a.485.485,0,1,1-.141-.369.485.485,0,0,1,.141.369Z" transform="translate(-172.453 -52.556)" fill="#34ac97"/>
      <path id="Path_6690" data-name="Path 6690" d="M364.191,85.151a.485.485,0,1,1-.485-.511.48.48,0,0,1,.485.511Z" transform="translate(-193.221 -52.557)" fill="#34ac97"/>
      <path id="Path_6691" data-name="Path 6691" d="M342.961,85.151a.485.485,0,1,1-.133-.36.485.485,0,0,1,.133.36Z" transform="translate(-182.837 -52.557)" fill="#34ac97"/>
      <path id="Path_6692" data-name="Path 6692" d="M385.372,85.15a.511.511,0,1,1-.511-.511.48.48,0,0,1,.511.511Z" transform="translate(-203.556 -52.556)" fill="#34ac97"/>
      <path id="Path_6693" data-name="Path 6693" d="M246.794,85.592a.322.322,0,1,1-.317-.322.317.317,0,0,1,.317.322Z" transform="translate(-135.959 -52.865)" fill="#e0e0e0"/>
      <path id="Path_6694" data-name="Path 6694" d="M268.1,85.592a.322.322,0,1,1-.317-.322.317.317,0,0,1,.317.322Z" transform="translate(-146.382 -52.865)" fill="#e0e0e0"/>
      <path id="Path_6695" data-name="Path 6695" d="M289.384,85.592a.322.322,0,1,1-.317-.322.317.317,0,0,1,.317.322Z" transform="translate(-156.791 -52.865)" fill="#e0e0e0"/>
      <path id="Path_6696" data-name="Path 6696" d="M310.767,85.592a.317.317,0,0,1-.317.317.319.319,0,1,1,.317-.317Z" transform="translate(-167.272 -52.865)" fill="#e0e0e0"/>
      <path id="Path_6697" data-name="Path 6697" d="M332.044,85.592a.317.317,0,1,1-.091-.227A.317.317,0,0,1,332.044,85.592Z" transform="translate(-177.662 -52.865)" fill="#e0e0e0"/>
      <path id="Path_6698" data-name="Path 6698" d="M353.394,85.592a.317.317,0,1,1-.091-.227.317.317,0,0,1,.091.227Z" transform="translate(-188.104 -52.865)" fill="#e0e0e0"/>
      <path id="Path_6699" data-name="Path 6699" d="M374.654,85.587a.317.317,0,0,1-.317.317.322.322,0,1,1,.317-.317Z" transform="translate(-198.498 -52.86)" fill="#e0e0e0"/>
      <path id="Path_6700" data-name="Path 6700" d="M258.061,76.865a1.185,1.185,0,1,1-.351-.842A1.19,1.19,0,0,1,258.061,76.865Z" transform="translate(-140.62 -48.174)" fill="#34ac97"/>
      <path id="Path_6701" data-name="Path 6701" d="M276.591,65.935a1.19,1.19,0,1,1-1.19-1.185A1.19,1.19,0,0,1,276.591,65.935Z" transform="translate(-149.684 -42.828)" fill="#34ac97"/>
      <path id="Path_6702" data-name="Path 6702" d="M299.581,66.91a1.19,1.19,0,1,1-1.19-1.19A1.19,1.19,0,0,1,299.581,66.91Z" transform="translate(-160.929 -43.303)" fill="#34ac97"/>
      <path id="Path_6703" data-name="Path 6703" d="M322.021,47.04a1.19,1.19,0,1,1-1.175-1.19A1.19,1.19,0,0,1,322.021,47.04Z" transform="translate(-171.904 -33.584)" fill="#34ac97"/>
      <path id="Path_6704" data-name="Path 6704" d="M342.991,59.675a1.19,1.19,0,1,1-1.19-1.185,1.19,1.19,0,0,1,1.19,1.185Z" transform="translate(-182.161 -39.766)" fill="#34ac97"/>
      <path id="Path_6705" data-name="Path 6705" d="M364.221,63.04a1.185,1.185,0,1,1-.347-.843A1.19,1.19,0,0,1,364.221,63.04Z" transform="translate(-192.546 -41.41)" fill="#34ac97"/>
      <path id="Path_6706" data-name="Path 6706" d="M314.962,63.3a1.6,1.6,0,0,1-.276,0,5.618,5.618,0,0,1-.812-.107,6.09,6.09,0,0,1-2.82-1.338,5.916,5.916,0,0,1-1.379-1.8,13.234,13.234,0,0,0-1.451-2.248,4.8,4.8,0,0,0-2.452-1.711,3.127,3.127,0,0,0-1.62.061,4.43,4.43,0,0,0-1.507.848,28.219,28.219,0,0,0-2.5,2.866,5.006,5.006,0,0,1-1.63,1.267,3.264,3.264,0,0,1-2.141.179,2.682,2.682,0,0,1-1.63-1.5,10.333,10.333,0,0,1-.705-2.166,12.355,12.355,0,0,0-.649-2.2,1.691,1.691,0,0,0-.7-.838,2.273,2.273,0,0,0-1.1-.215,18.728,18.728,0,0,0-2.386.419,6.815,6.815,0,0,1-1.257.148,2.84,2.84,0,0,1-1.277-.25,2.554,2.554,0,0,1-1.022-.853,6.13,6.13,0,0,1-.623-1.155c-.342-.8-.572-1.64-.884-2.452a6.188,6.188,0,0,0-.572-1.149,2.125,2.125,0,0,0-.945-.782c-.1-.031-.194-.066-.3-.092l-.312-.026a1.068,1.068,0,0,0-.577.118,2.386,2.386,0,0,0-.868.9,11.178,11.178,0,0,0-1.022,2.5c-.255.874-.475,1.768-.685,2.672-.347,1.5-.654,2.989-1.022,4.45a22.279,22.279,0,0,1-.664,2.151,5.62,5.62,0,0,1-1.129,1.962,1.533,1.533,0,0,1-1.068.47,2.1,2.1,0,0,1-1.1-.332,5.155,5.155,0,0,1-1.533-1.558,18.755,18.755,0,0,1-1.86-3.775,8.652,8.652,0,0,0-2.074-3.341,3.888,3.888,0,0,0-3.5-.833,5.9,5.9,0,0,0-1.66.731,10.984,10.984,0,0,0-1.446,1.047,19.412,19.412,0,0,0-2.422,2.432h0a26.164,26.164,0,0,1-3.576,2.973,17.415,17.415,0,0,1-3.673,1.992,8.113,8.113,0,0,1-3.576.6,12.68,12.68,0,0,1-2.989-.725,27.807,27.807,0,0,1-3.888-1.778c-.429-.235-.756-.424-.971-.557s-.317-.2-.317-.2l.337.179.981.511a30.653,30.653,0,0,0,3.9,1.711,12.435,12.435,0,0,0,2.963.69,7.929,7.929,0,0,0,3.515-.613,17.493,17.493,0,0,0,3.617-1.982,25.94,25.94,0,0,0,3.535-2.968h0a19.576,19.576,0,0,1,2.406-2.457,12.075,12.075,0,0,1,1.471-1.073,6.172,6.172,0,0,1,1.727-.761,4.143,4.143,0,0,1,3.719.894,9.077,9.077,0,0,1,2.156,3.438,18.836,18.836,0,0,0,1.839,3.724,5,5,0,0,0,1.451,1.476,1.921,1.921,0,0,0,.96.291,1.287,1.287,0,0,0,.879-.373,5.359,5.359,0,0,0,1.057-1.854c.261-.69.465-1.4.659-2.13.383-1.446.69-2.938,1.022-4.44.209-.9.429-1.8.69-2.687a11.367,11.367,0,0,1,1.022-2.554,2.59,2.59,0,0,1,.981-1.022,1.41,1.41,0,0,1,.715-.148l.358.036a1.247,1.247,0,0,1,.342.1,2.37,2.37,0,0,1,1.073.884,6.368,6.368,0,0,1,.6,1.211c.317.823.542,1.665.879,2.442a3.33,3.33,0,0,0,1.5,1.87,3.939,3.939,0,0,0,2.37.087,18.392,18.392,0,0,1,2.427-.419,2.585,2.585,0,0,1,1.231.245,2.008,2.008,0,0,1,.8.95,12.556,12.556,0,0,1,.654,2.248,10.391,10.391,0,0,0,.715,2.115,2.462,2.462,0,0,0,1.482,1.379,3.065,3.065,0,0,0,1.982-.158,4.807,4.807,0,0,0,1.553-1.221,26.222,26.222,0,0,1,2.554-2.871,4.639,4.639,0,0,1,1.579-.879,3.29,3.29,0,0,1,1.722-.051,4.966,4.966,0,0,1,2.513,1.757,13.07,13.07,0,0,1,1.451,2.289,5.768,5.768,0,0,0,1.339,1.8,6.2,6.2,0,0,0,2.759,1.364,6.584,6.584,0,0,0,.8.138A1.906,1.906,0,0,1,314.962,63.3Z" transform="translate(-133.146 -34.614)" fill="#34ac97"/>
      <path id="Path_6707" data-name="Path 6707" d="M242.56,37.868c0,.082-4.215.143-9.405.143s-9.405-.061-9.405-.143,4.21-.138,9.405-.138S242.56,37.771,242.56,37.868Z" transform="translate(-125.003 -29.612)" fill="#263238"/>
      <path id="Path_6708" data-name="Path 6708" d="M410.49,129.19H369.16v38.837h4.7v6.917l6.473-6.917H410.49Z" transform="translate(-196.126 -74.347)" fill="#f5f5f5"/>
      <path id="Path_6709" data-name="Path 6709" d="M397.022,137.8a12.772,12.772,0,1,0,12.772,12.772A12.772,12.772,0,0,0,397.022,137.8Zm.194,20.394a7.832,7.832,0,1,1,5.551-2.287,7.837,7.837,0,0,1-5.551,2.287Z" transform="translate(-203.507 -78.559)" fill="#263238"/>
      <path id="Path_6710" data-name="Path 6710" d="M409.64,137.81v4.721a7.832,7.832,0,0,1,7.847,7.837,7.724,7.724,0,0,1-.368,2.37l4.623,1.257A12.772,12.772,0,0,0,409.66,137.81Z" transform="translate(-215.926 -78.564)" fill="#34ac97"/>
      <path id="Path_6711" data-name="Path 6711" d="M389.4,151.326a7.831,7.831,0,0,1,4.643-7.152l-1.961-4.4a12.772,12.772,0,0,0-7.8,11.75v.536h5.134A6.818,6.818,0,0,1,389.4,151.326Z" transform="translate(-203.526 -79.522)" fill="#455a64"/>
      <path id="Path_6712" data-name="Path 6712" d="M407.219,172.477a7.662,7.662,0,0,1-1.655-.179c-.2,1.139-.572,3.341-.863,5.073a12.943,12.943,0,0,0,2.324.215,12.772,12.772,0,0,0,12.261-9.313l-4.6-1.272a7.832,7.832,0,0,1-7.464,5.477Z" transform="translate(-213.509 -92.841)" fill="#34ac97"/>
      <g id="Group_209" data-name="Group 209" transform="translate(191.191 74.159)" opacity="0.3">
        <path id="Path_6713" data-name="Path 6713" d="M407.219,172.477a7.662,7.662,0,0,1-1.655-.179c-.2,1.139-.572,3.341-.863,5.073a12.943,12.943,0,0,0,2.324.215,12.772,12.772,0,0,0,12.261-9.313l-4.6-1.272a7.832,7.832,0,0,1-7.464,5.477Z" transform="translate(-404.7 -167)"/>
      </g>
      <path id="Path_6714" data-name="Path 6714" d="M403.747,161.439h-.475v.608h-.654v-.608H401.06v-.455l1.364-1.834h.705l-1.267,1.742h.777v-.542h.633v.542h.475Z" transform="translate(-211.729 -89.001)" fill="#263238"/>
      <path id="Path_6715" data-name="Path 6715" d="M406.71,160.567c0-.955.511-1.5,1.241-1.5s1.241.542,1.241,1.5-.511,1.5-1.241,1.5S406.71,161.512,406.71,160.567Zm1.808,0c0-.659-.235-.93-.567-.93s-.582.261-.582.93.235.935.567.935S408.518,161.216,408.518,160.567Z" transform="translate(-214.492 -88.962)" fill="#263238"/>
      <path id="Path_6716" data-name="Path 6716" d="M412.105,159.911a.72.72,0,1,1,.18.563A.72.72,0,0,1,412.105,159.911Zm1.022,0c0-.307-.117-.455-.3-.455s-.3.153-.3.455.123.46.3.46S413.127,160.223,413.127,159.911Zm1.425-.761h.511l-1.992,2.9h-.511Zm-.475,2.13a.307.307,0,1,0,.015,0Zm1.022,0c0-.307-.117-.46-.3-.46s-.3.148-.3.46.123.46.3.46.317-.153.317-.46Z" transform="translate(-217.129 -89.001)" fill="#263238"/>
      <path id="Path_6717" data-name="Path 6717" d="M409.7,193.883c0,.066-4.726.123-10.555.123s-10.55-.056-10.55-.123,4.726-.123,10.55-.123S409.7,193.826,409.7,193.883Z" transform="translate(-205.634 -105.93)" fill="#263238"/>
      <path id="Path_6718" data-name="Path 6718" d="M409.5,197.7c0,.066-2.621.123-5.855.123s-5.85-.056-5.85-.123,2.621-.118,5.85-.118S409.5,197.631,409.5,197.7Z" transform="translate(-210.134 -107.798)" fill="#263238"/>
    </g>
    <g id="freepik--Desk--inject-12" transform="translate(34.272 111.555)">
      <rect id="Rectangle_607" data-name="Rectangle 607" width="149.145" height="6.355" transform="translate(0 65.249)" fill="#455a64"/>
      <path id="Path_6719" data-name="Path 6719" d="M71.6,325.36s0,.026-.046.066-.082.112-.153.194a3.357,3.357,0,0,1-.751.577,4.22,4.22,0,0,1-1.441.47,10.416,10.416,0,0,1-2.008.087,19.923,19.923,0,0,1-2.422-.271,22.478,22.478,0,0,0-2.754-.322,17.532,17.532,0,0,0-6.2,1.175c-2.13.741-4.118,1.584-6.018,2.095a16.71,16.71,0,0,1-2.743.511,12.16,12.16,0,0,1-2.442,0,8.429,8.429,0,0,1-3.341-1.022,5.371,5.371,0,0,1-1.022-.756l.072.046.2.148a6.635,6.635,0,0,0,.8.511,8.541,8.541,0,0,0,3.321.976,11.878,11.878,0,0,0,2.406,0,17.033,17.033,0,0,0,2.7-.582c1.885-.511,3.862-1.364,6-2.1a17.452,17.452,0,0,1,6.268-1.17,23.3,23.3,0,0,1,2.774.337,20,20,0,0,0,2.4.291,10.363,10.363,0,0,0,1.987-.056,4.317,4.317,0,0,0,1.42-.434,3.715,3.715,0,0,0,.986-.766Z" transform="translate(-40.01 -260.014)" fill="#263238"/>
      <path id="Path_6720" data-name="Path 6720" d="M56.62,325.55a3.76,3.76,0,0,1-.45.373,9.828,9.828,0,0,1-1.364.879,11.9,11.9,0,0,1-2.222.884,12.7,12.7,0,0,1-2.907.444,11.4,11.4,0,0,1-5.2-1.047,3.336,3.336,0,0,1-1.257-1,1.93,1.93,0,0,1-.2-.383.511.511,0,0,1-.036-.148,4.138,4.138,0,0,0,.3.511,3.407,3.407,0,0,0,1.241.879,11.75,11.75,0,0,0,5.109.981,12.194,12.194,0,0,0,5.109-1.262,12.566,12.566,0,0,0,1.379-.8,3.293,3.293,0,0,1,.5-.317Z" transform="translate(-41.34 -260.107)" fill="#263238"/>
      <path id="Path_6721" data-name="Path 6721" d="M126.783,330.81a1.556,1.556,0,0,1,.23.082,4.931,4.931,0,0,0,.69.179,4.158,4.158,0,0,0,2.611-.4v.082a6.34,6.34,0,0,0-3.239-1.231,6.432,6.432,0,0,0-4.215,1.068.654.654,0,0,0-.327.414.444.444,0,0,0,.281.409,1.925,1.925,0,0,0,.577.194l.633.143c.858.184,1.737.368,2.651.511a16.464,16.464,0,0,0,2.815.184,10.626,10.626,0,0,0,1.446-.133c.24-.041.48-.087.72-.148a3.664,3.664,0,0,0,.695-.22,2.3,2.3,0,0,0,.9-.633,1.022,1.022,0,0,0,.174-.981,1.721,1.721,0,0,0-.71-.761,5.688,5.688,0,0,0-.991-.47,13.845,13.845,0,0,0-4.143-.838,17.712,17.712,0,0,0-11.326,3.336c-.455.342-.807.613-1.022.812l-.266.215-.092.072.082-.082c.061-.061.143-.138.25-.23a12.869,12.869,0,0,1,1.022-.843,17.11,17.11,0,0,1,4.25-2.33,17.631,17.631,0,0,1,7.152-1.114,13.973,13.973,0,0,1,4.2.838,6.021,6.021,0,0,1,1.022.485,1.849,1.849,0,0,1,.782.858,1.16,1.16,0,0,1-.2,1.149,2.509,2.509,0,0,1-.971.69,3.787,3.787,0,0,1-.731.23c-.24.061-.511.107-.731.148a10.3,10.3,0,0,1-1.471.138,16.238,16.238,0,0,1-2.846-.194c-.92-.133-1.809-.322-2.662-.511l-.633-.143a2.161,2.161,0,0,1-.623-.22.8.8,0,0,1-.266-.225.475.475,0,0,1-.092-.342.8.8,0,0,1,.393-.511,6.555,6.555,0,0,1,4.317-1.068,6.366,6.366,0,0,1,3.285,1.282l.061.046-.072.036a4.174,4.174,0,0,1-2.687.317,3.156,3.156,0,0,1-.93-.291Z" transform="translate(-76.508 -261.341)" fill="#263238"/>
      <path id="Path_6722" data-name="Path 6722" d="M170.79,325.68a.954.954,0,0,1,.148.322,2.391,2.391,0,0,1,.1.95,4.649,4.649,0,0,1-1.451,2.774,7.305,7.305,0,0,1-1.359,1.124,5.94,5.94,0,0,1-1.308.618,6.412,6.412,0,0,1-.95.235,1.118,1.118,0,0,1-.358,0c0-.031.511-.1,1.262-.378a6.513,6.513,0,0,0,1.262-.639,7.382,7.382,0,0,0,1.313-1.109,4.746,4.746,0,0,0,1.461-2.662A3.489,3.489,0,0,0,170.79,325.68Z" transform="translate(-101.321 -260.17)" fill="#263238"/>
      <path id="Path_6723" data-name="Path 6723" d="M207.343,332.992a7.424,7.424,0,0,0-.685-.649,4.889,4.889,0,0,0-2.33-1.022,5.262,5.262,0,0,0-1.778.051,7.729,7.729,0,0,1-2.079.184,4.2,4.2,0,0,1-2.074-.986,7.152,7.152,0,0,0-2.079-1.206,7.832,7.832,0,0,0-4.629-.066,11,11,0,0,0-3.418,1.686,18.391,18.391,0,0,0-1.987,1.65l-.511.485a.94.94,0,0,1-.184.164s.051-.066.158-.189l.48-.511a17.217,17.217,0,0,1,1.962-1.7,11.043,11.043,0,0,1,3.448-1.747,7.979,7.979,0,0,1,4.736.061,7.3,7.3,0,0,1,2.13,1.231,4.026,4.026,0,0,0,1.982.966,7.565,7.565,0,0,0,2.044-.169,5.491,5.491,0,0,1,1.824-.026,4.909,4.909,0,0,1,2.36,1.093,3.064,3.064,0,0,1,.628.7Z" transform="translate(-111.094 -261.699)" fill="#263238"/>
      <path id="Path_6724" data-name="Path 6724" d="M252.451,325.29a1.281,1.281,0,0,1-.163.22,5.947,5.947,0,0,1-.511.587,13.348,13.348,0,0,1-2.176,1.885,17.46,17.46,0,0,1-3.775,2.044,16,16,0,0,1-2.437.756,13.065,13.065,0,0,1-2.723.342,13.87,13.87,0,0,1-5.17-1.022,17.289,17.289,0,0,1-3.76-2.079,14.3,14.3,0,0,1-2.161-1.9c-.24-.24-.393-.455-.511-.588a1.283,1.283,0,0,1-.163-.22,2.213,2.213,0,0,1,.189.194c.128.128.291.332.536.567a15.888,15.888,0,0,0,2.187,1.844,17.882,17.882,0,0,0,3.745,2.044,13.824,13.824,0,0,0,5.109,1.022,12.773,12.773,0,0,0,2.687-.337,15.914,15.914,0,0,0,2.416-.736,18.116,18.116,0,0,0,3.765-1.992,14.586,14.586,0,0,0,2.2-1.829c.25-.23.409-.439.536-.567A2.227,2.227,0,0,1,252.451,325.29Z" transform="translate(-132.278 -259.979)" fill="#263238"/>
      <path id="Path_6725" data-name="Path 6725" d="M254.027,325.17a.753.753,0,0,1-.123.1c-.087.061-.215.153-.388.255a16.22,16.22,0,0,1-1.492.823,15.766,15.766,0,0,1-2.36.935,10.535,10.535,0,0,1-3.065.511,12.967,12.967,0,0,1-5.492-1.344,11.506,11.506,0,0,1-1.476-.848c-.174-.107-.291-.2-.378-.266s-.128-.1-.123-.107.194.112.536.317a14.738,14.738,0,0,0,1.5.792,13.389,13.389,0,0,0,5.415,1.3,10.842,10.842,0,0,0,3.029-.511,18.011,18.011,0,0,0,2.35-.894c.654-.3,1.165-.572,1.533-.771A5.977,5.977,0,0,1,254.027,325.17Z" transform="translate(-137.281 -259.921)" fill="#263238"/>
      <path id="Path_6726" data-name="Path 6726" d="M283.531,326.281h-.174l-.511-.031-.347-.026h-1.446l-.593.031-.639.072c-.444.036-.909.138-1.4.22a22.225,22.225,0,0,0-3.116.9,22.589,22.589,0,0,0-2.922,1.4c-.419.266-.833.511-1.185.761l-.511.368-.46.363c-.3.23-.552.46-.771.654l-.312.276-.245.245-.347.342c-.082.072-.123.112-.128.107s.031-.051.1-.133l.317-.363.24-.261.3-.286c.215-.2.46-.444.756-.679l.46-.373.511-.378c.358-.271.766-.511,1.19-.782a20.493,20.493,0,0,1,2.943-1.425,21.135,21.135,0,0,1,3.152-.9c.511-.077.966-.174,1.415-.2l.649-.061h.6a9.687,9.687,0,0,1,1.022,0h.424l.353.046.485.061a.572.572,0,0,1,.194.056Z" transform="translate(-151.607 -260.377)" fill="#263238"/>
      <path id="Path_6727" data-name="Path 6727" d="M204.694,331.72a6.972,6.972,0,0,0-.822-.95,7.663,7.663,0,0,0-3-1.64,17.106,17.106,0,0,0-2.345-.511c-.853-.133-1.778-.235-2.743-.4a22.955,22.955,0,0,1-2.978-.731,19.608,19.608,0,0,0-3.178-.746,13.543,13.543,0,0,0-6.187.833,23.142,23.142,0,0,0-2.519,1.1c-.771.383-1.476.761-2.12,1.119-1.282.705-2.3,1.308-3.009,1.727l-.812.485-.209.123-.077.036.066-.051.2-.138c.179-.123.45-.3.792-.511.695-.434,1.706-1.052,2.984-1.778.644-.363,1.349-.746,2.115-1.139a21.977,21.977,0,0,1,2.529-1.124,13.655,13.655,0,0,1,6.289-.853,19.956,19.956,0,0,1,3.2.756,23.807,23.807,0,0,0,2.958.736c.955.163,1.88.276,2.738.414a16.637,16.637,0,0,1,2.36.511,7.515,7.515,0,0,1,3.014,1.706A3.73,3.73,0,0,1,204.694,331.72Z" transform="translate(-105.762 -260.575)" fill="#263238"/>
      <path id="Path_6728" data-name="Path 6728" d="M160.5,325.36a1.281,1.281,0,0,1,0,.4,4.7,4.7,0,0,1-.291,1.073,6.181,6.181,0,0,1-2.294,2.861,15.766,15.766,0,0,1-3.4,1.533c-.455.148-.823.25-1.083.317a1.792,1.792,0,0,1-.409.082,2.285,2.285,0,0,1,.388-.148l1.063-.373a17.849,17.849,0,0,0,3.341-1.533,6.356,6.356,0,0,0,2.268-2.754A8.023,8.023,0,0,0,160.5,325.36Z" transform="translate(-95.168 -260.014)" fill="#263238"/>
      <path id="Path_6729" data-name="Path 6729" d="M99.89,331.618a2.55,2.55,0,0,1,.363-.337c.24-.215.6-.511,1.063-.848a30.657,30.657,0,0,1,3.8-2.386c1.533-.833,3-1.5,4.051-1.967.511-.235.955-.419,1.252-.542a2.554,2.554,0,0,1,.47-.179,2.8,2.8,0,0,1-.439.24l-1.226.593c-1.022.511-2.473,1.18-4.015,2.008a37.174,37.174,0,0,0-3.816,2.335c-.465.327-.838.6-1.093.8A2.4,2.4,0,0,1,99.89,331.618Z" transform="translate(-69.176 -260.014)" fill="#263238"/>
      <path id="Path_6730" data-name="Path 6730" d="M91.439,325.792a9.25,9.25,0,0,0-.96,0,6.954,6.954,0,0,0-2.488.741,22.771,22.771,0,0,0-3.234,2.11,16.267,16.267,0,0,1-1.946,1.231,10.976,10.976,0,0,1-2.324.874,22.384,22.384,0,0,1-4.766.557c-1.476.041-2.8,0-3.908.056a19.924,19.924,0,0,0-2.616.25c-.307.056-.542.1-.7.138l-.245.041a1.277,1.277,0,0,1,.235-.077c.158-.051.393-.107.695-.174a18.446,18.446,0,0,1,2.626-.307c1.114-.061,2.442-.046,3.908-.1a22.6,22.6,0,0,0,4.726-.562,11.211,11.211,0,0,0,2.289-.858,16.992,16.992,0,0,0,1.931-1.206,21.813,21.813,0,0,1,3.275-2.095,6.755,6.755,0,0,1,2.554-.69,4.237,4.237,0,0,1,.72,0A1.4,1.4,0,0,1,91.439,325.792Z" transform="translate(-53.7 -260.185)" fill="#263238"/>
      <path id="Path_6731" data-name="Path 6731" d="M269.063,325.042c0,.046-6.233.087-13.921.087s-13.921-.041-13.921-.087,6.233-.092,13.921-.092S269.063,324.976,269.063,325.042Z" transform="translate(-138.304 -259.813)" fill="#263238"/>
      <path id="Path_6732" data-name="Path 6732" d="M47.546,413.655H45.431l-1.211-77h4.537Z" transform="translate(-41.947 -265.536)" fill="#455a64"/>
      <path id="Path_6733" data-name="Path 6733" d="M316.17,413.972h-2.12l1.063-76.892h4.531Z" transform="translate(-173.927 -265.746)" fill="#455a64"/>
      <rect id="Rectangle_608" data-name="Rectangle 608" width="18.913" height="6.355" transform="translate(130.233 65.249)" fill="#455a64"/>
      <path id="Path_6734" data-name="Path 6734" d="M74.173,254.786a1.206,1.206,0,1,0-2.386.358L77.075,287.4h2.411Z" transform="translate(-55.424 -224.992)" fill="#263238"/>
      <path id="Path_6735" data-name="Path 6735" d="M72.481,233.639,94.265,209.71l.158.261,1.058,1.747L74.269,235.259a1.206,1.206,0,0,1-1.788-1.619Z" transform="translate(-55.617 -203.447)" fill="#263238"/>
      <path id="Path_6736" data-name="Path 6736" d="M74.707,257.114a.211.211,0,0,0,.031-.148.572.572,0,0,0-.2-.373.649.649,0,0,0-.633-.117.679.679,0,0,0,0,1.282.664.664,0,0,0,.633-.123.567.567,0,0,0,.2-.368c0-.1,0-.153-.031-.153s-.036.225-.276.383a.511.511,0,0,1-.45.046.47.47,0,0,1-.291-.429.475.475,0,0,1,.291-.429.511.511,0,0,1,.45.046C74.671,256.889,74.671,257.124,74.707,257.114Z" transform="translate(-56.244 -226.303)" fill="#455a64"/>
      <path id="Path_6737" data-name="Path 6737" d="M73.676,253.82a3.388,3.388,0,0,0-.644.6,8.178,8.178,0,0,0-.654.72,1.533,1.533,0,0,0-.342,1.19,1.216,1.216,0,0,0,.884.868,1.287,1.287,0,0,0,1.022-.138c.511-.307.664-.618.644-.633a5.906,5.906,0,0,1-.72.48,1.16,1.16,0,0,1-.858.077,1.022,1.022,0,0,1-.71-.705,1.318,1.318,0,0,1,.286-1.022c.2-.281.429-.511.6-.736a3.2,3.2,0,0,0,.5-.705Z" transform="translate(-55.545 -225.022)" fill="#455a64"/>
      <path id="Path_6738" data-name="Path 6738" d="M86.6,322.152H66.77S69.324,319,75.9,319C82.05,319,85.718,320.808,86.6,322.152Z" transform="translate(-52.976 -256.903)" fill="#263238"/>
      <path id="Path_6739" data-name="Path 6739" d="M114.212,199.918l-1.012-1.512,1.247-.955,1.068,1.522Z" transform="translate(-75.686 -197.45)" fill="#263238"/>
      <path id="Path_6740" data-name="Path 6740" d="M111.83,201.052l4.342-3.152,4.169,5.017c7.229,1.165,10.141,5.712,10.141,5.712l-12.946,9.906c-4.429-4.894-2.33-11.888-2.33-11.888Z" transform="translate(-75.016 -197.67)" fill="#34ac97"/>
      <path id="Path_6741" data-name="Path 6741" d="M118.45,211.429a20.16,20.16,0,0,0,2.636-1.768,20.871,20.871,0,0,0,2.493-1.962,41.757,41.757,0,0,0-5.129,3.729Z" transform="translate(-78.254 -202.464)" fill="#263238"/>
      <path id="Path_6742" data-name="Path 6742" d="M193.424,270.92l-11.372,25.156a3.724,3.724,0,0,1-3.04,1.9L126.54,297.9h0a2.227,2.227,0,0,1,2.161-1.962l19.924-.434,10.192-24.461a2.1,2.1,0,0,1,1.931-1.3l31.777-.24a1.022,1.022,0,0,1,.9,1.41Z" transform="translate(-82.211 -232.696)" fill="#263238"/>
      <path id="Path_6743" data-name="Path 6743" d="M171.65,298.44a1.121,1.121,0,0,0,.153-.271c.1-.22.225-.511.378-.812l1.333-3.014c1.109-2.554,2.616-6.09,4.235-10.013s3.065-7.489,4.041-10.09c.511-1.3.889-2.355,1.144-3.065.112-.342.209-.618.286-.848a1.349,1.349,0,0,0,.082-.306,1.17,1.17,0,0,0-.143.281c-.092.225-.209.511-.347.828-.307.766-.725,1.8-1.236,3.065l-4.128,10.013c-1.609,3.9-3.065,7.433-4.148,10.044-.511,1.257-.925,2.289-1.236,3.065l-.322.838A1.052,1.052,0,0,0,171.65,298.44Z" transform="translate(-104.276 -232.946)" fill="#455a64"/>
      <path id="Path_6744" data-name="Path 6744" d="M211.92,294.585a1.625,1.625,0,1,0,.478-1.151A1.63,1.63,0,0,0,211.92,294.585Z" transform="translate(-123.972 -244.166)" fill="#fff"/>
    </g>
    <g id="freepik--Character--inject-12" transform="translate(158.533 75.524)">
      <path id="Path_6745" data-name="Path 6745" d="M295.576,142.575a3.825,3.825,0,0,0-1.185-4.087,4,4,0,0,0-4.169-.674,2.846,2.846,0,0,0-1.43,1.221,2.723,2.723,0,0,0,.439,2.912,5.108,5.108,0,0,0,2.657,1.533,4.521,4.521,0,0,0,2.2.123,2.279,2.279,0,0,0,1.65-1.349" transform="translate(-285.716 -132.099)" fill="#263238"/>
      <path id="Path_6746" data-name="Path 6746" d="M326.747,155.679a2.01,2.01,0,0,1-2.36-1.589,4.829,4.829,0,0,1,.587-3.065,8.76,8.76,0,0,0,1.052-2.984c.133-1.8-1.058-3.408-1.574-5.139-1.073-3.576.741-7.822-1.15-11.081a7.888,7.888,0,0,0-3.893-3.484,6.866,6.866,0,0,0-5.686.189,10.437,10.437,0,0,0-8.143-1.277,10.3,10.3,0,0,0-6.432,5.109c-.874,1.671-1.272,3.576-2.309,5.145-.8,1.2-1.982,2.279-2.1,3.709-.153,1.814,1.492,3.336,1.66,5.15.194,2.141-1.7,4.271-.909,6.274.542,1.384,2.243,2.212,2.416,3.689a3.121,3.121,0,0,0,.179,1.236,2.723,2.723,0,0,0,2.258,1.083c9.037-.552,16.7.8,24.772-1.272a3.065,3.065,0,0,0,1.2-.511,1.139,1.139,0,0,0,.429-1.18Z" transform="translate(-288.738 -126.923)" fill="#263238"/>
      <path id="Path_6747" data-name="Path 6747" d="M308.737,139.046l-.1-1.9,11.331-2.524c3.5-.48,7.418,2.922,7.75,6.442a62.974,62.974,0,0,1,.291,11.643c-.756,5.911-5.237,6.8-5.237,6.8l.153,7.188-12.987-.465Z" transform="translate(-295.541 -130.669)" fill="#ffbe9d"/>
      <path id="Path_6748" data-name="Path 6748" d="M341.491,155.195a.756.756,0,0,1-.7.782.715.715,0,0,1-.8-.654.756.756,0,0,1,.7-.787.725.725,0,0,1,.8.659Z" transform="translate(-310.874 -140.427)" fill="#263238"/>
      <path id="Path_6749" data-name="Path 6749" d="M340.831,151.534c-.087.1-.674-.3-1.487-.276s-1.39.45-1.482.353.046-.22.3-.419a2.043,2.043,0,0,1,1.185-.4,1.977,1.977,0,0,1,1.19.342C340.79,151.315,340.877,151.488,340.831,151.534Z" transform="translate(-309.821 -138.595)" fill="#263238"/>
      <path id="Path_6750" data-name="Path 6750" d="M326.691,155.879a.756.756,0,0,1-.7.787.725.725,0,0,1-.8-.659.756.756,0,0,1,.7-.782.715.715,0,0,1,.8.654Z" transform="translate(-303.636 -140.764)" fill="#263238"/>
      <path id="Path_6751" data-name="Path 6751" d="M325.226,152.284c-.092.1-.674-.3-1.487-.276s-1.395.45-1.487.352.046-.22.3-.419a2.043,2.043,0,0,1,1.185-.4,1.956,1.956,0,0,1,1.185.342C325.175,152.08,325.267,152.254,325.226,152.284Z" transform="translate(-302.185 -138.962)" fill="#263238"/>
      <path id="Path_6752" data-name="Path 6752" d="M333.625,158.168a5.328,5.328,0,0,1,1.308-.276c.209-.031.4-.077.434-.22a1.022,1.022,0,0,0-.158-.608l-.679-1.558A33.976,33.976,0,0,1,333,151.419a31.045,31.045,0,0,1,1.829,3.954c.225.547.434,1.068.639,1.568a1.2,1.2,0,0,1,.133.812.511.511,0,0,1-.332.312,1.42,1.42,0,0,1-.353.061A5.109,5.109,0,0,1,333.625,158.168Z" transform="translate(-307.452 -138.905)" fill="#263238"/>
      <path id="Path_6753" data-name="Path 6753" d="M328.508,181.625a15.541,15.541,0,0,1-8.138-1.865s2.11,4.056,8.174,3.331Z" transform="translate(-301.279 -152.767)" fill="#eb996e"/>
      <path id="Path_6754" data-name="Path 6754" d="M331.376,167.978a1.471,1.471,0,0,0-1.328-.511,1.334,1.334,0,0,0-.909.511.858.858,0,0,0-.036.971.981.981,0,0,0,1.073.235,3.132,3.132,0,0,0,1.022-.649,1.052,1.052,0,0,0,.225-.25.271.271,0,0,0,0-.3" transform="translate(-305.485 -146.747)" fill="#eb996e"/>
      <path id="Path_6755" data-name="Path 6755" d="M329.475,165.88c.133,0,.158.868.935,1.471s1.706.475,1.717.6-.2.179-.6.2a2.2,2.2,0,0,1-1.436-.45,1.91,1.91,0,0,1-.725-1.236C329.322,166.094,329.414,165.875,329.475,165.88Z" transform="translate(-305.674 -145.978)" fill="#263238"/>
      <path id="Path_6756" data-name="Path 6756" d="M324.776,148.022c-.072.225-.884.143-1.834.291s-1.711.424-1.844.235c-.056-.1.072-.307.373-.511a3.294,3.294,0,0,1,2.8-.388C324.618,147.751,324.812,147.919,324.776,148.022Z" transform="translate(-301.628 -136.983)" fill="#263238"/>
      <path id="Path_6757" data-name="Path 6757" d="M340.838,146.037c-.138.189-.705,0-1.374.031s-1.241.158-1.374-.031c-.061-.092,0-.276.266-.46a1.916,1.916,0,0,1,1.109-.337,1.875,1.875,0,0,1,1.1.337C340.812,145.761,340.9,145.945,340.838,146.037Z" transform="translate(-309.935 -135.882)" fill="#263238"/>
      <path id="Path_6758" data-name="Path 6758" d="M317.237,133.016a74.17,74.17,0,0,0-9.574,2.3,2.3,2.3,0,0,0-1.282.746,2.391,2.391,0,0,0-.245,1.492,49.63,49.63,0,0,1-.393,9.257,12.148,12.148,0,0,0,.189,4.21c.557,2.621.158,10.463,2.243,10.345,7.8-1.66,2.416-7.418,1.614-10.115a2.9,2.9,0,0,1,.659-2.657c.47-.511,1.134-.863,1.63-1.374a3.147,3.147,0,0,0,.215-4.087,2.7,2.7,0,0,1-.695-1.533c-.1-1.487,1.374-1.732,2.493-2.089,2.355-.751,5.569-4.46,4.894-6.79Z" transform="translate(-294.074 -129.758)" fill="#263238"/>
      <path id="Path_6759" data-name="Path 6759" d="M300.249,138.983a10.555,10.555,0,0,0,2.616.45,13.283,13.283,0,0,0,6.166-1.533,23.387,23.387,0,0,0,5.2-3.76c.608-.562,1.073-1.022,1.4-1.369a4.046,4.046,0,0,1,.511-.511,4.451,4.451,0,0,1-.444.567c-.307.353-.756.853-1.349,1.436a21.621,21.621,0,0,1-5.216,3.862,12.808,12.808,0,0,1-6.289,1.492,7.526,7.526,0,0,1-1.946-.353c-.22-.077-.388-.143-.511-.194S300.244,138.993,300.249,138.983Z" transform="translate(-291.437 -129.533)" fill="#455a64"/>
      <path id="Path_6760" data-name="Path 6760" d="M315.911,130.179a3.186,3.186,0,0,1-.368.547,14.383,14.383,0,0,1-1.18,1.349,15.51,15.51,0,0,1-10.647,4.557,14.108,14.108,0,0,1-1.793-.072,2.892,2.892,0,0,1-.644-.112c0-.051.93.072,2.432,0a16.4,16.4,0,0,0,10.519-4.511C315.319,130.9,315.871,130.148,315.911,130.179Z" transform="translate(-291.941 -128.515)" fill="#455a64"/>
      <path id="Path_6761" data-name="Path 6761" d="M342.818,135.648a1.532,1.532,0,0,1-.424,0,9.108,9.108,0,0,1-1.155-.1,12.829,12.829,0,0,1-3.658-1.093,15.8,15.8,0,0,1-3.208-2.074c-.373-.312-.669-.572-.863-.766s-.3-.307-.281-.317a13.359,13.359,0,0,1,1.262.935,18.576,18.576,0,0,0,3.208,1.977,14.816,14.816,0,0,0,3.576,1.155C342.194,135.556,342.818,135.6,342.818,135.648Z" transform="translate(-307.567 -129.064)" fill="#455a64"/>
      <path id="Path_6762" data-name="Path 6762" d="M295.895,155.505a3.922,3.922,0,0,1,.123-.608,5.061,5.061,0,0,0,.128-1.64,3.187,3.187,0,0,0-.327-1.073c-.179-.368-.434-.725-.685-1.139a4.8,4.8,0,0,1-.705-3,3.265,3.265,0,0,1,.613-1.507c.307-.424.644-.787.909-1.165a14.359,14.359,0,0,0,1.267-2.125c.317-.633.552-1.16.72-1.533a2.644,2.644,0,0,1,.286-.552,2.813,2.813,0,0,1-.189.593c-.143.373-.352.909-.649,1.558a13.155,13.155,0,0,1-1.236,2.187,5.713,5.713,0,0,0-1.461,2.554,4.669,4.669,0,0,0,.659,2.846,10.581,10.581,0,0,1,.669,1.165,3.23,3.23,0,0,1,.312,1.149,4.6,4.6,0,0,1-.209,1.686A2.376,2.376,0,0,1,295.895,155.505Z" transform="translate(-288.579 -133.887)" fill="#455a64"/>
      <path id="Path_6763" data-name="Path 6763" d="M359.069,245.55l-7.275,4.715-.664,7.357s2.141,1,5.282-1.86a67.818,67.818,0,0,0,7.234-8.644Z" transform="translate(-316.324 -184.946)" fill="#ffbe9d"/>
      <path id="Path_6764" data-name="Path 6764" d="M357.666,239.882,355.28,227.79l-6.36,2.519,1.625,15.924Z" transform="translate(-315.243 -176.259)" fill="#ffbe9d"/>
      <path id="Path_6765" data-name="Path 6765" d="M380.553,220.133a.792.792,0,0,0-.587-.511l-4.572-.884a1.425,1.425,0,0,0-1.139.286L360.46,229.886l.562.628L365.906,232l14.739-11.663Z" transform="translate(-320.887 -171.821)" fill="#263238"/>
      <path id="Path_6766" data-name="Path 6766" d="M392.519,222.605a.327.327,0,1,0,.152-.368.327.327,0,0,0-.152.368Z" transform="translate(-336.563 -173.522)" fill="#fff"/>
      <path id="Path_6767" data-name="Path 6767" d="M381.441,220.856a6.206,6.206,0,0,1-.9-.123l-2.437-.424L376.425,220a.96.96,0,0,0-.812.169l-.782.628-3.53,2.784c-2.508,1.967-4.792,3.74-6.452,5.012l-1.977,1.5a5.164,5.164,0,0,1-.751.511,7.674,7.674,0,0,1,.685-.6l1.916-1.563c1.63-1.308,3.893-3.1,6.4-5.073l3.545-2.769.8-.618a1.206,1.206,0,0,1,1-.2l1.676.342,2.427.511A5.581,5.581,0,0,1,381.441,220.856Z" transform="translate(-321.699 -172.324)" fill="#455a64"/>
      <path id="Path_6768" data-name="Path 6768" d="M375.882,228.434s-.363-.2-.94.792-2.3,3.816-2.3,3.816l-1.671-1.773-2.667-.536s-.731.327-.419.746a9.487,9.487,0,0,0,1.829,1.257l.608,2.11-2.856-2.8s-1.241-.087-1.139.72a23.862,23.862,0,0,0,1.66,3.765l-1.671-.71L364.7,233.89s-.633-.184-.577.429a20.158,20.158,0,0,0,1.533,3.249l2.146,2.115s1.436.368,1.711,0a5.343,5.343,0,0,0,.511-.94s.812.051,1.073-.261a2.416,2.416,0,0,0,.368-.914s1.093.6,1.461,0a7.749,7.749,0,0,0,.731-2.468c.056-.536,2.248-4.981,2.248-5.139S376.72,228.378,375.882,228.434Z" transform="translate(-322.679 -176.566)" fill="#ffbe9d"/>
      <path id="Path_6769" data-name="Path 6769" d="M370.926,248.114a1.471,1.471,0,0,1-.741,0,4.781,4.781,0,0,1-1.665-.649,4.7,4.7,0,0,1-1.308-1.221c-.266-.373-.368-.639-.337-.654a9.978,9.978,0,0,0,1.793,1.64,10.13,10.13,0,0,0,2.258.884Z" transform="translate(-324.023 -184.966)" fill="#eb996e"/>
      <path id="Path_6770" data-name="Path 6770" d="M373.018,246.4c-.061.041-.434-.347-.782-.914s-.542-1.068-.47-1.1.363.409.705.96S373.079,246.345,373.018,246.4Z" transform="translate(-326.41 -184.372)" fill="#eb996e"/>
      <path id="Path_6771" data-name="Path 6771" d="M377.283,242.937c-.056.046-.429-.342-.741-.914a2.043,2.043,0,0,1-.363-1.124c.072-.026.307.434.608.991S377.35,242.891,377.283,242.937Z" transform="translate(-328.576 -182.671)" fill="#eb996e"/>
      <path id="Path_6772" data-name="Path 6772" d="M381.513,240a60.406,60.406,0,0,0-.833-2.442A3.029,3.029,0,0,1,381.513,240Z" transform="translate(-330.778 -181.038)" fill="#eb996e"/>
      <path id="Path_6773" data-name="Path 6773" d="M343.71,194.61s4.317,1.931,5.8,4.373,5.5,16.435,5.5,16.435l-5.65,1.119Z" transform="translate(-312.695 -160.03)" fill="#34ac97"/>
      <path id="Path_6774" data-name="Path 6774" d="M324.785,191.888,310.94,190.82l1.783,7.627,12.4,4.133,1.645-2.784Z" transform="translate(-296.666 -158.176)" fill="#ffbe9d"/>
      <path id="Path_6775" data-name="Path 6775" d="M320.155,208.358c-1.114-3.837-5.9-15.6-5.9-15.6l-3.683-1.1s0,3.837-1.359,4.087-7.9.286-11.112-3.852l-.588-1.068-9.14,5.855h0c-1.533.935-3.765,3.121-4.087,7.6-.3,4.087-.792,14.9-.792,14.9l8.94-.317.731,4-.623,4.71s-1.236,6.641-.511,7.663a3.065,3.065,0,0,0,1.982,1.129l24.011-1.86.8-13.227S321.269,212.2,320.155,208.358Z" transform="translate(-283.245 -158.176)" fill="#34ac97"/>
      <path id="Path_6776" data-name="Path 6776" d="M286.553,243.943s-.853,8.271.1,12.067c.986,3.924,2.932,3.867,4.572,3.98S318.7,246.569,318.7,246.569l-2.866-5.109-19.454,5.9.179-3.8Z" transform="translate(-284.566 -182.946)" fill="#ffbe9d"/>
      <path id="Path_6777" data-name="Path 6777" d="M343.88,235.265l4.659-5.839,4.21-.976,5.109.567a1.022,1.022,0,0,1-.613,1.18l1.793.1a1.022,1.022,0,0,1-.664,1.333l1.282.225a1.844,1.844,0,0,1-2,1.058,27.991,27.991,0,0,0-3.8-.255l-2.514,1.384,3.745-.153,2.718.511s.363.695-.255.858a17.682,17.682,0,0,1-2.978,0l-3.576.935a14.06,14.06,0,0,1-1.231,2.825,11.122,11.122,0,0,1-3.03,1.18Z" transform="translate(-312.778 -176.582)" fill="#ffbe9d"/>
      <path id="Path_6778" data-name="Path 6778" d="M364.659,231.336a7.237,7.237,0,0,1-1.395-.051c-.858-.066-2.044-.179-3.346-.322l-1.252-.138h.051c-.976.276-1.819.511-2.422.654a4.35,4.35,0,0,1-.976.194,4.2,4.2,0,0,1,.93-.358c.587-.2,1.425-.46,2.391-.746h.051l1.257.128c1.3.143,2.483.286,3.336.4A7.291,7.291,0,0,1,364.659,231.336Z" transform="translate(-318.373 -177.619)" fill="#eb996e"/>
      <path id="Path_6779" data-name="Path 6779" d="M366.218,234.11a6.13,6.13,0,0,1-1.267-.087c-.777-.087-1.844-.23-3.024-.4l-1.17-.174h.066a21.847,21.847,0,0,1-2.953,1.022,20.332,20.332,0,0,1,2.856-1.287h.066l1.175.169c1.18.169,2.243.342,3.014.48A5.576,5.576,0,0,1,366.218,234.11Z" transform="translate(-319.621 -178.896)" fill="#eb996e"/>
      <path id="Path_6780" data-name="Path 6780" d="M346.746,240.059a2.747,2.747,0,0,1,.414-.138c.271-.087.669-.215,1.185-.4.255-.1.536-.2.838-.342a2.968,2.968,0,0,0,.439-.255,1.3,1.3,0,0,0,.317-.424,18.719,18.719,0,0,0,.986-2.473v-.046h.046l3.576-.95h.036c.613.036,1.262.066,1.931.066a5.352,5.352,0,0,0,1-.072.317.317,0,0,0,.271-.25.761.761,0,0,0-.082-.439l.087.061-2.723-.511h.031l-3.745.163-.577.026.511-.281,2.513-1.39h.066c.95,0,1.952.041,2.968.143.276.031.557.066.833.112a1.814,1.814,0,0,0,.761,0,1.773,1.773,0,0,0,1.109-.95l.1.189-1.282-.225-.47-.087.444-.179a1.022,1.022,0,0,0,.557-.46.935.935,0,0,0,.036-.695l.118.082-1.8-.1-.511-.031.439-.22a1.058,1.058,0,0,0,.465-.429.919.919,0,0,0,.087-.6l.112.1-5.109-.577h.041l-4.215.96.056-.036-3.454,4.25-.93,1.068-.25.291q-.087.1-.092.092a.511.511,0,0,1,.072-.112l.23-.307.9-1.175,3.382-4.307v-.026h.072l4.2-1.022h.036l5.134.552h.092v.082a1.175,1.175,0,0,1-.1.792,1.323,1.323,0,0,1-.582.542l-.051-.25,1.8.1h.092l.026.077a1.2,1.2,0,0,1-.046.92,1.293,1.293,0,0,1-.695.593l-.031-.261,1.287.225.179.031-.077.158a1.931,1.931,0,0,1-2.171,1.134c-.271-.041-.542-.077-.817-.107-1.022-.1-2-.133-2.938-.143h.066l-2.519,1.384-.072-.255,3.75-.148h.031l2.718.511h.061l.026.056a1.022,1.022,0,0,1,.1.6.567.567,0,0,1-.45.434,5.442,5.442,0,0,1-1.057.072c-.679,0-1.328-.036-1.946-.082h.036l-3.576.914.061-.056a17.63,17.63,0,0,1-1.022,2.483,1.416,1.416,0,0,1-.368.465,2.493,2.493,0,0,1-.47.255,8.894,8.894,0,0,1-.853.327c-.511.169-.925.281-1.2.352l-.317.077A.306.306,0,0,1,346.746,240.059Z" transform="translate(-312.778 -176.435)" fill="#eb996e"/>
      <path id="Path_6781" data-name="Path 6781" d="M283,226.222a.909.909,0,0,1,.25-.036l.731-.046,2.723-.128,9.318-.358-.128.133c.036-1.308,0-2.7-.061-4.133-.118-2.37-.327-4.6-.46-6.672-.072-1.022-.1-2.008-.179-2.912a17.753,17.753,0,0,0-.388-2.493,9.467,9.467,0,0,0-1.456-3.326,9.854,9.854,0,0,0-.863-1.022,1.583,1.583,0,0,1,.276.225,6.327,6.327,0,0,1,.674.741A9.135,9.135,0,0,1,295,209.542a16.461,16.461,0,0,1,.424,2.519c.1.914.133,1.89.209,2.912.148,2.044.363,4.3.48,6.677.077,1.436.092,2.84.056,4.153v.128h-.128l-9.323.261-2.728.046h-.725A1.64,1.64,0,0,1,283,226.222Z" transform="translate(-283 -165.225)" fill="#263238"/>
      <path id="Path_6782" data-name="Path 6782" d="M399.9,424.3l9.186,21.9-9.272,4.5L387.34,429.393Z" transform="translate(-334.035 -272.377)" fill="#ffbe9d"/>
      <path id="Path_6783" data-name="Path 6783" d="M418.181,461.45l.312.613s12.476-1.022,13.574.9l-20.7,10.217-3.111-7.025A13.283,13.283,0,0,0,418.181,461.45Z" transform="translate(-344.267 -290.548)" fill="#455a64"/>
      <g id="Group_210" data-name="Group 210" transform="translate(66.875 176.541)" opacity="0.6">
        <path id="Path_6784" data-name="Path 6784" d="M414.2,472.708a.94.94,0,0,0-.112,1.252.909.909,0,0,0,1.241.117.991.991,0,0,0,.107-1.328.94.94,0,0,0-1.3,0" transform="translate(-413.903 -472.487)" fill="#fff"/>
      </g>
      <g id="Group_211" data-name="Group 211" transform="translate(66.358 171.77)" opacity="0.6">
        <path id="Path_6785" data-name="Path 6785" d="M413.636,474l-.746-1.691,20.1-9.155s1.119-.051,1.339.649Z" transform="translate(-412.89 -463.148)" fill="#fff"/>
      </g>
      <path id="Path_6786" data-name="Path 6786" d="M427.141,462.665c.051.1-.434.4-.771.971s-.393,1.124-.511,1.129-.25-.654.174-1.333S427.12,462.563,427.141,462.665Z" transform="translate(-352.818 -291.129)" fill="#263238"/>
      <path id="Path_6787" data-name="Path 6787" d="M432.788,462.345c.072.087-.281.47-.414,1.068s0,1.1-.112,1.144-.45-.511-.271-1.236S432.737,462.248,432.788,462.345Z" transform="translate(-355.85 -290.977)" fill="#263238"/>
      <path id="Path_6788" data-name="Path 6788" d="M438.055,464.215c-.082.066-.47-.368-.485-1.047s.353-1.134.434-1.073-.061.511-.041,1.063S438.147,464.159,438.055,464.215Z" transform="translate(-358.603 -290.86)" fill="#263238"/>
      <path id="Path_6789" data-name="Path 6789" d="M375.98,387.516l8.312,23.168,14.739-7.091L383.914,367.76Z" transform="translate(-328.479 -244.722)" fill="#263238"/>
      <path id="Path_6790" data-name="Path 6790" d="M362.027,408.463l-13.073,30.208-9.783-3.234,9.712-33.217Z" transform="translate(-310.474 -261.577)" fill="#ffbe9d"/>
      <path id="Path_6791" data-name="Path 6791" d="M348.228,464.54l-.209.654s9.656,7.975,9.1,10.11l-21.942-7.117L337.847,461A13.226,13.226,0,0,0,348.228,464.54Z" transform="translate(-308.522 -290.328)" fill="#455a64"/>
      <g id="Group_212" data-name="Group 212" transform="translate(29.833 173.729)" opacity="0.6">
        <path id="Path_6792" data-name="Path 6792" d="M342.349,466.992a.935.935,0,0,0-.95.817.9.9,0,0,0,.807.95.991.991,0,0,0,1.022-.874c0-.46-.511-.976-.945-.894" transform="translate(-341.397 -466.983)" fill="#fff"/>
      </g>
      <g id="Group_213" data-name="Group 213" transform="translate(26.652 176.129)" opacity="0.6">
        <path id="Path_6793" data-name="Path 6793" d="M335.17,473.412l.644-1.732,20.8,7.454s.838.741.511,1.395Z" transform="translate(-335.17 -471.68)" fill="#fff"/>
      </g>
      <path id="Path_6794" data-name="Path 6794" d="M358.135,469.107c-.036.107-.587,0-1.226.153s-1.068.511-1.15.46.276-.644,1.052-.838S358.191,469.015,358.135,469.107Z" transform="translate(-318.583 -294.153)" fill="#263238"/>
      <path id="Path_6795" data-name="Path 6795" d="M362.458,472.589c0,.112-.536.143-1.047.48s-.771.782-.874.741,0-.669.664-1.073S362.489,472.487,362.458,472.589Z" transform="translate(-320.909 -295.94)" fill="#263238"/>
      <path id="Path_6796" data-name="Path 6796" d="M365.083,477.395c-.1,0-.077-.593.388-1.088s1.022-.567,1.058-.465-.393.317-.771.731S365.2,477.435,365.083,477.395Z" transform="translate(-323.125 -297.567)" fill="#263238"/>
      <path id="Path_6797" data-name="Path 6797" d="M319.323,288.534a5.461,5.461,0,0,0-2.554-2.289l-.143-9.2-19.051,1.507s-6.8,9.288-6.8,13,0,11.132,8.21,16.481l19.061-13.64S320.324,290.246,319.323,288.534Z" transform="translate(-286.8 -200.354)" fill="#263238"/>
      <path id="Path_6798" data-name="Path 6798" d="M354.821,311.867,338.335,295.11l-5.615-18.07,9.405-.731,1.15,9.788" transform="translate(-307.319 -199.992)" fill="#263238"/>
      <path id="Path_6799" data-name="Path 6799" d="M312.91,279.23a2.187,2.187,0,0,1,.158.582,12.8,12.8,0,0,1,.2,1.63,9.738,9.738,0,0,1-.179,2.432,7.27,7.27,0,0,1-1.175,2.759,5.748,5.748,0,0,1-2.279,1.946,5.027,5.027,0,0,1-2.416.439,4.21,4.21,0,0,1-1.589-.434,2.908,2.908,0,0,1-.383-.24c-.082-.061-.123-.092-.117-.1a5.226,5.226,0,0,0,2.1.577,4.93,4.93,0,0,0,2.289-.475,5.619,5.619,0,0,0,2.166-1.87,8.466,8.466,0,0,0,1.379-5.027C313.043,280.078,312.859,279.24,312.91,279.23Z" transform="translate(-293.824 -201.42)" fill="#263238"/>
      <path id="Path_6800" data-name="Path 6800" d="M339.54,292.226a3.4,3.4,0,0,1-.9.695,10.217,10.217,0,0,1-5.247,1.533,3.231,3.231,0,0,1-1.139-.107,19.794,19.794,0,0,0,3.791-.562A20.269,20.269,0,0,0,339.54,292.226Z" transform="translate(-307.089 -207.774)" fill="#455a64"/>
      <path id="Path_6801" data-name="Path 6801" d="M343.761,279.348c0-.026.332-.117.741.189a.971.971,0,0,1,.378.792,1.022,1.022,0,0,1-.582.909.955.955,0,0,1-1.052-.24.782.782,0,0,1-.123-.874.761.761,0,0,1,.429-.4.27.27,0,0,1,.215,0,.734.734,0,0,0-.46.48.572.572,0,0,0,.123.618.725.725,0,0,0,.761.163.8.8,0,0,0,.184-1.3C344.067,279.389,343.756,279.394,343.761,279.348Z" transform="translate(-312.367 -201.462)" fill="#455a64"/>
      <path id="Path_6802" data-name="Path 6802" d="M350.084,299.147A3.576,3.576,0,0,1,351.617,296c.061.061-.511.623-.925,1.5S350.166,299.157,350.084,299.147Z" transform="translate(-315.809 -209.622)" fill="#455a64"/>
      <path id="Path_6803" data-name="Path 6803" d="M372.973,354.089c.051.056-2.319,2.233-5.288,4.864s-5.425,4.715-5.477,4.659,2.319-2.238,5.293-4.869S372.922,354.043,372.973,354.089Z" transform="translate(-321.743 -238.035)" fill="#455a64"/>
      <path id="Path_6804" data-name="Path 6804" d="M377.047,355.9a4.388,4.388,0,0,1-.623,1.047,21.635,21.635,0,0,1-1.834,2.289,21.872,21.872,0,0,1-2.13,2.018,4.5,4.5,0,0,1-.991.705c-.056-.066,1.379-1.236,2.917-2.912S376.976,355.853,377.047,355.9Z" transform="translate(-326.271 -238.92)" fill="#455a64"/>
      <path id="Path_6805" data-name="Path 6805" d="M314.764,281a1.364,1.364,0,0,1-.077.444,6.845,6.845,0,0,1-.4,1.165,9.527,9.527,0,0,1-.884,1.6,11.237,11.237,0,0,1-1.466,1.7,11.1,11.1,0,0,1-1.8,1.333,9.582,9.582,0,0,1-1.66.761,7.022,7.022,0,0,1-1.19.312,1.251,1.251,0,0,1-.45.046c0-.051.618-.164,1.568-.542a11.035,11.035,0,0,0,1.6-.8,11.841,11.841,0,0,0,1.742-1.318,11.972,11.972,0,0,0,1.446-1.64,11.071,11.071,0,0,0,.914-1.533C314.554,281.592,314.718,280.968,314.764,281Z" transform="translate(-294.661 -202.285)" fill="#455a64"/>
      <path id="Path_6806" data-name="Path 6806" d="M306.816,324.693l27.031,23.444-8.557,31.71,16.435,4.935s10.345-36.1,10.728-42.168-3.6-7.592-5.405-10.029-21.733-21.426-21.733-21.426L306.79,324.693" transform="translate(-294.636 -217.037)" fill="#263238"/>
      <path id="Path_6807" data-name="Path 6807" d="M328.86,304a3.8,3.8,0,0,1,.95.072,9.663,9.663,0,0,1,2.554.935,13.794,13.794,0,0,1,3.5,2.493l4.087,3.949c3.03,2.943,6.641,6.437,10.647,10.32l6.248,6.131c1.073,1.068,2.171,2.156,3.264,3.285a10.53,10.53,0,0,1,2.58,4.026,11.586,11.586,0,0,1,.511,2.37,14.947,14.947,0,0,1,0,2.391,28.765,28.765,0,0,1-.868,4.567c-.771,2.938-1.533,5.773-2.217,8.475-1.436,5.39-2.733,10.243-3.821,14.3s-1.987,7.362-2.611,9.656c-.312,1.124-.552,2.008-.72,2.616l-.194.68c-.046.153-.077.23-.077.23a1.986,1.986,0,0,1,.051-.235l.169-.685c.158-.613.383-1.5.674-2.636.6-2.294,1.461-5.594,2.529-9.671s2.345-8.945,3.765-14.34l2.2-8.475a28.215,28.215,0,0,0,.858-4.526,14.382,14.382,0,0,0,0-2.345,10.991,10.991,0,0,0-.511-2.309,10.325,10.325,0,0,0-2.519-3.929c-1.088-1.124-2.187-2.217-3.259-3.285l-6.238-6.131c-3.99-3.9-7.581-7.413-10.606-10.361-1.507-1.476-2.876-2.8-4.087-3.98a13.7,13.7,0,0,0-3.454-2.508,10.184,10.184,0,0,0-2.514-.976,6.746,6.746,0,0,0-.7-.1Z" transform="translate(-305.431 -213.531)" fill="#455a64"/>
    </g>
  </g>
</svg>
