<svg xmlns="http://www.w3.org/2000/svg" width="264.698" height="271.982" viewBox="0 0 264.698 271.982">
  <g id="Mobile_note_list-pana" data-name="Mobile note list-pana" transform="translate(-31.81 -42.982)">
    <g id="freepik--Floor--inject-39" transform="translate(31.81 302.996)">
      <path id="Path_6808" data-name="Path 6808" d="M296.508,471.8c0,.085-59.256.158-132.343.158S31.81,471.889,31.81,471.8s59.244-.164,132.355-.164S296.508,471.713,296.508,471.8Z" transform="translate(-31.81 -471.64)" fill="#263238"/>
    </g>
    <g id="freepik--Plant--inject-39" transform="translate(246.573 219.774)">
      <path id="Path_6809" data-name="Path 6809" d="M391.36,426.55l4.149,27.284h24.124l5.6-26.89Z" transform="translate(-388.028 -370.678)" fill="#34ac97"/>
      <path id="Path_6810" data-name="Path 6810" d="M423.735,455.279c0,.079-6.181.146-13.806.146s-13.8-.067-13.8-.146,6.175-.14,13.8-.14S423.735,455.2,423.735,455.279Z" transform="translate(-389.905 -381.926)" fill="#fafafa"/>
      <path id="Path_6811" data-name="Path 6811" d="M423.763,453.069c0,.079-6.217.14-13.9.14s-13.9-.061-13.9-.14,6.224-.139,13.9-.139S423.763,452.972,423.763,453.069Z" transform="translate(-389.842 -381.057)" fill="#fafafa"/>
      <path id="Path_6812" data-name="Path 6812" d="M423.689,450.57c0,.079-6.224.146-13.9.146s-13.9-.067-13.9-.146,6.224-.14,13.9-.14S423.689,450.491,423.689,450.57Z" transform="translate(-389.81 -380.073)" fill="#fafafa"/>
      <path id="Path_6813" data-name="Path 6813" d="M401.991,464.511a22.745,22.745,0,0,1-.74-3.433,23.166,23.166,0,0,1-.461-3.488A43.786,43.786,0,0,1,402,464.511Z" transform="translate(-391.738 -382.89)" fill="#fafafa"/>
      <path id="Path_6814" data-name="Path 6814" d="M405.189,464.141a26.421,26.421,0,0,1-.291-3.324,25.577,25.577,0,0,1-.152-3.366,16.843,16.843,0,0,1,.437,3.342,16.572,16.572,0,0,1,.006,3.348Z" transform="translate(-393.292 -382.835)" fill="#fafafa"/>
      <path id="Path_6815" data-name="Path 6815" d="M409.885,463.987a16.455,16.455,0,0,1-.607-3.439,17.151,17.151,0,0,1-.182-3.488,30,30,0,0,1,.467,3.458,31.31,31.31,0,0,1,.321,3.47Z" transform="translate(-394.997 -382.682)" fill="#fafafa"/>
      <path id="Path_6816" data-name="Path 6816" d="M413.625,464.18a16.873,16.873,0,0,1-.334-3.494,17.389,17.389,0,0,1,.1-3.506,28.007,28.007,0,0,1,.176,3.5A29.353,29.353,0,0,1,413.625,464.18Z" transform="translate(-396.639 -382.729)" fill="#fafafa"/>
      <path id="Path_6817" data-name="Path 6817" d="M419.8,464.176a19.2,19.2,0,0,1-.255-3.312,19.6,19.6,0,0,1,.03-3.324,20.393,20.393,0,0,1,.224,3.312A20.02,20.02,0,0,1,419.8,464.176Z" transform="translate(-399.094 -382.871)" fill="#fafafa"/>
      <path id="Path_6818" data-name="Path 6818" d="M424.394,464.274a41.251,41.251,0,0,1,.055-6.854,41.251,41.251,0,0,1-.055,6.854Z" transform="translate(-400.979 -382.823)" fill="#fafafa"/>
      <path id="Path_6819" data-name="Path 6819" d="M428.67,463.489a45.9,45.9,0,0,1,.692-7.139,45.9,45.9,0,0,1-.691,7.139Z" transform="translate(-402.707 -382.402)" fill="#fafafa"/>
      <path id="Path_6820" data-name="Path 6820" d="M434.08,463.647a18.805,18.805,0,0,1,1.3-5.987,28.906,28.906,0,0,1-.607,3A27.114,27.114,0,0,1,434.08,463.647Z" transform="translate(-404.835 -382.918)" fill="#fafafa"/>
      <path id="Path_6821" data-name="Path 6821" d="M426.107,337.79a.443.443,0,0,1-.03.133l-.115.388c-.109.358-.261.849-.455,1.468s-.455,1.419-.71,2.335-.607,1.947-.867,3.112-.643,2.426-.94,3.8-.607,2.845-.934,4.4c-.576,3.106-1.1,6.551-1.474,10.178s-.516,7.115-.564,10.275c0,1.583,0,3.087.042,4.495s.1,2.717.17,3.906.164,2.275.237,3.221.158,1.765.237,2.426.115,1.159.158,1.535v.4a.55.55,0,0,1,0,.133.483.483,0,0,0-.03-.133c-.03-.091-.036-.237-.067-.394-.049-.37-.121-.886-.206-1.529s-.2-1.48-.285-2.426-.212-2.026-.279-3.221-.17-2.511-.206-3.918-.061-2.918-.067-4.5c.03-3.172.188-6.672.54-10.312s.91-7.091,1.5-10.2c.321-1.553.607-3.033.958-4.4s.655-2.645.977-3.8.637-2.19.91-3.1.534-1.692.758-2.323.382-1.1.51-1.456l.133-.382A.607.607,0,0,1,426.107,337.79Z" transform="translate(-399.186 -335.758)" fill="#455a64"/>
      <path id="Path_6822" data-name="Path 6822" d="M422.787,362.266a8.959,8.959,0,0,1,3.749-4.737,2.153,2.153,0,0,1,1.984-.364c.843.406.91,1.589.661,2.493a6.618,6.618,0,0,1-2.73,3.718,5.568,5.568,0,0,1-4.1,1.037" transform="translate(-400.22 -343.341)" fill="#455a64"/>
      <path id="Path_6823" data-name="Path 6823" d="M420.5,379.427a14.991,14.991,0,0,1,4.452-7.164,2.846,2.846,0,0,1,1.007-.54,1.213,1.213,0,0,1,1.086.237,1.662,1.662,0,0,1,.243,1.565,9.505,9.505,0,0,1-7.036,7.085" transform="translate(-399.394 -349.092)" fill="#455a64"/>
      <path id="Path_6824" data-name="Path 6824" d="M420,396.973a13.776,13.776,0,0,1,4.489-5.647,2.135,2.135,0,0,1,1.571-.558c.849.152,1.213,1.213,1.165,2.056-.158,1.777-1.516,3.2-2.912,4.307a18.082,18.082,0,0,1-4.155,2.135" transform="translate(-399.296 -356.599)" fill="#455a64"/>
      <path id="Path_6825" data-name="Path 6825" d="M420.36,409.733a13.381,13.381,0,0,1,3.821-4.349,2.839,2.839,0,0,1,1.146-.516,1.177,1.177,0,0,1,1.128.431c.382.564,0,1.322-.394,1.868a10.918,10.918,0,0,1-5.459,4" transform="translate(-399.437 -362.141)" fill="#455a64"/>
      <path id="Path_6826" data-name="Path 6826" d="M415.478,404.17a42.322,42.322,0,0,0-5.459-5.568c-.309-.261-.7-.54-1.086-.412a.813.813,0,0,0-.5.734,2.1,2.1,0,0,0,.206.916,10.609,10.609,0,0,0,7.036,5.92" transform="translate(-394.744 -359.508)" fill="#455a64"/>
      <path id="Path_6827" data-name="Path 6827" d="M415.05,388.184l-4.295-5.2a5.163,5.163,0,0,0-1.4-1.322,1.777,1.777,0,0,0-1.82,0,1.741,1.741,0,0,0-.607,1.729,4.482,4.482,0,0,0,.837,1.717,12.842,12.842,0,0,0,3.124,3.324,5.286,5.286,0,0,0,3.925,1.213" transform="translate(-394.139 -352.918)" fill="#455a64"/>
      <path id="Path_6828" data-name="Path 6828" d="M416.422,370.512a15,15,0,0,0-4.319-6.49,2.566,2.566,0,0,0-1.128-.655,1.893,1.893,0,0,0-1.965,1.383,3.542,3.542,0,0,0,.388,2.845,7.5,7.5,0,0,0,2.02,2.129,17.506,17.506,0,0,0,4.774,2.584" transform="translate(-394.917 -345.818)" fill="#455a64"/>
      <path id="Path_6829" data-name="Path 6829" d="M419.959,353.766c-.412-3.033-2-5.562-3.827-8.013-.382-.522-.922-1.068-1.559-.971a1.213,1.213,0,0,0-.9.77,2.918,2.918,0,0,0-.17,1.213,9.378,9.378,0,0,0,6.066,8.371" transform="translate(-396.737 -338.505)" fill="#455a64"/>
      <path id="Path_6830" data-name="Path 6830" d="M426,344.885a25.272,25.272,0,0,1-.158-4.689,8.443,8.443,0,0,1,1.559-4.373,3.64,3.64,0,0,1,1.559-1.244,1.972,1.972,0,0,1,1.911.255,2.087,2.087,0,0,1,.655,1.686,5.332,5.332,0,0,1-.479,1.82c-1.146,2.754-3.033,5.8-5.047,6.569" transform="translate(-401.576 -334.44)" fill="#455a64"/>
      <path id="Path_6831" data-name="Path 6831" d="M395.208,357.62a2.425,2.425,0,0,1,0,.388v2.839a22.5,22.5,0,0,0,.085,2.3c.073,1.711.237,3.737.5,5.981s.661,4.695,1.213,7.242,1.177,4.95,1.82,7.115,1.322,4.082,1.941,5.678c.291.8.607,1.51.849,2.141s.485,1.171.679,1.607l.431,1.013a3.566,3.566,0,0,1,.133.358,1.6,1.6,0,0,1-.188-.334l-.479-.995c-.206-.431-.455-.958-.722-1.589s-.607-1.328-.886-2.129c-.643-1.589-1.328-3.512-2.014-5.671s-1.3-4.574-1.85-7.133-.9-5.022-1.171-7.279-.388-4.289-.437-6c-.042-.855-.036-1.632-.042-2.311s0-1.268,0-1.747.03-.819.042-1.1a1.6,1.6,0,0,1,.1-.376Z" transform="translate(-389.486 -343.56)" fill="#263238"/>
      <path id="Path_6832" data-name="Path 6832" d="M396.41,375.077a6.4,6.4,0,0,1,1.529-4.034,1.541,1.541,0,0,1,1.274-.673c.661.1.964.886.983,1.553a4.683,4.683,0,0,1-1.055,3.124,3.967,3.967,0,0,1-2.566,1.583" transform="translate(-390.015 -348.576)" fill="#263238"/>
      <path id="Path_6833" data-name="Path 6833" d="M398.8,387.187a10.717,10.717,0,0,1,1.492-5.829,2.025,2.025,0,0,1,.57-.607.849.849,0,0,1,.789-.073,1.213,1.213,0,0,1,.5,1.013,6.782,6.782,0,0,1-3.239,6.357" transform="translate(-390.954 -352.606)" fill="#263238"/>
      <path id="Path_6834" data-name="Path 6834" d="M401.92,399.278a9.772,9.772,0,0,1,1.82-4.81,1.517,1.517,0,0,1,.946-.722c.607-.079,1.1.546,1.213,1.152a4.73,4.73,0,0,1-1.055,3.555,12.867,12.867,0,0,1-2.366,2.347" transform="translate(-392.183 -357.77)" fill="#263238"/>
      <path id="Path_6835" data-name="Path 6835" d="M404.74,407.978a9.45,9.45,0,0,1,1.662-3.785,1.971,1.971,0,0,1,.673-.607.819.819,0,0,1,.855.048c.382.3.3.9.133,1.353a7.776,7.776,0,0,1-2.851,3.9" transform="translate(-393.292 -361.606)" fill="#263238"/>
      <path id="Path_6836" data-name="Path 6836" d="M399.619,405.889a30.081,30.081,0,0,0-4.919-2.614.867.867,0,0,0-.831-.049.607.607,0,0,0-.182.607,1.469,1.469,0,0,0,.34.607,7.558,7.558,0,0,0,6.066,2.517" transform="translate(-388.936 -361.469)" fill="#263238"/>
      <path id="Path_6837" data-name="Path 6837" d="M395.993,394.929l-4.046-2.639a3.75,3.75,0,0,0-1.213-.607,1.256,1.256,0,0,0-1.256.382,1.213,1.213,0,0,0,0,1.3,3.263,3.263,0,0,0,.94.995,9.1,9.1,0,0,0,2.845,1.589,3.749,3.749,0,0,0,2.93,0" transform="translate(-387.214 -356.945)" fill="#263238"/>
      <path id="Path_6838" data-name="Path 6838" d="M393.18,382.6a10.681,10.681,0,0,0-4.337-3.488,1.778,1.778,0,0,0-.91-.206,1.359,1.359,0,0,0-1.043,1.365,2.554,2.554,0,0,0,.88,1.856,5.344,5.344,0,0,0,1.82,1.013,12.131,12.131,0,0,0,3.8.728" transform="translate(-386.269 -351.935)" fill="#263238"/>
      <path id="Path_6839" data-name="Path 6839" d="M391.916,370.534a12.466,12.466,0,0,0-4.331-4.628,1.3,1.3,0,0,0-1.268-.328.892.892,0,0,0-.449.716,2.124,2.124,0,0,0,.146.867,6.672,6.672,0,0,0,5.944,4.392" transform="translate(-385.867 -346.672)" fill="#263238"/>
      <path id="Path_6840" data-name="Path 6840" d="M394.642,362.811a17.587,17.587,0,0,1-1.116-3.16,6,6,0,0,1,.121-3.306,2.536,2.536,0,0,1,.795-1.213,1.4,1.4,0,0,1,1.353-.243,1.5,1.5,0,0,1,.813,1.007,3.906,3.906,0,0,1,.055,1.328c-.188,2.123-.831,4.6-2.02,5.556" transform="translate(-388.811 -342.454)" fill="#263238"/>
      <path id="Path_6841" data-name="Path 6841" d="M440.57,357.19a1.54,1.54,0,0,1,.036.382c0,.279,0,.643.042,1.1a13.855,13.855,0,0,1,0,1.747c-.03.679,0,1.456-.042,2.311-.049,1.711-.194,3.749-.437,6s-.643,4.713-1.171,7.279-1.213,4.968-1.85,7.133-1.371,4.082-2.014,5.672c-.3.8-.607,1.51-.886,2.135s-.516,1.159-.722,1.589-.358.74-.479.989a1.819,1.819,0,0,1-.188.34,3.264,3.264,0,0,1,.133-.364l.431-1.013c.194-.437.431-.971.679-1.6s.558-1.341.849-2.147c.607-1.589,1.28-3.518,1.941-5.672s1.286-4.568,1.82-7.115.91-5.01,1.213-7.249.425-4.246.5-5.975c.061-.855.061-1.626.085-2.3s0-1.268,0-1.741v-1.1a2.37,2.37,0,0,1,.061-.388Z" transform="translate(-404.355 -343.391)" fill="#455a64"/>
      <path id="Path_6842" data-name="Path 6842" d="M442,374.637a6.387,6.387,0,0,0-1.529-4.028,1.547,1.547,0,0,0-1.274-.679c-.661.1-.964.892-.983,1.559a4.665,4.665,0,0,0,1.055,3.118,3.973,3.973,0,0,0,2.566,1.589" transform="translate(-406.462 -348.403)" fill="#455a64"/>
      <path id="Path_6843" data-name="Path 6843" d="M439.871,386.731a10.724,10.724,0,0,0-1.492-5.835,1.934,1.934,0,0,0-.57-.607.831.831,0,0,0-.789-.073,1.213,1.213,0,0,0-.5,1.007,6.782,6.782,0,0,0,3.269,6.339" transform="translate(-405.786 -352.423)" fill="#455a64"/>
      <path id="Path_6844" data-name="Path 6844" d="M436.375,398.841a9.772,9.772,0,0,0-1.82-4.81,1.5,1.5,0,0,0-.946-.716c-.607-.079-1.1.546-1.213,1.146a4.751,4.751,0,0,0,1.055,3.561,12.866,12.866,0,0,0,2.317,2.378" transform="translate(-404.145 -357.601)" fill="#455a64"/>
      <path id="Path_6845" data-name="Path 6845" d="M433.884,407.549a9.414,9.414,0,0,0-1.662-3.785,1.929,1.929,0,0,0-.673-.607.831.831,0,0,0-.855.048c-.382.3-.3.9-.133,1.359a7.733,7.733,0,0,0,2.851,3.894" transform="translate(-403.396 -361.438)" fill="#455a64"/>
      <path id="Path_6846" data-name="Path 6846" d="M437.083,405.453A30.557,30.557,0,0,1,442,402.838a.886.886,0,0,1,.831-.042.607.607,0,0,1,.182.607,1.511,1.511,0,0,1-.34.576,7.594,7.594,0,0,1-6.066,2.517" transform="translate(-405.83 -361.3)" fill="#455a64"/>
      <path id="Path_6847" data-name="Path 6847" d="M440.4,394.49l4.046-2.639a3.87,3.87,0,0,1,1.213-.607,1.274,1.274,0,0,1,1.256.382,1.213,1.213,0,0,1,0,1.3,3.178,3.178,0,0,1-.94.989,8.946,8.946,0,0,1-2.845,1.589,3.749,3.749,0,0,1-2.93,0" transform="translate(-407.243 -356.774)" fill="#455a64"/>
      <path id="Path_6848" data-name="Path 6848" d="M443.472,382.147a10.622,10.622,0,0,1,4.337-3.482,1.777,1.777,0,0,1,.91-.206,1.359,1.359,0,0,1,1.043,1.365,2.535,2.535,0,0,1-.88,1.85,5.458,5.458,0,0,1-1.82,1.019,12.324,12.324,0,0,1-3.8.728" transform="translate(-408.447 -351.758)" fill="#455a64"/>
      <path id="Path_6849" data-name="Path 6849" d="M445,370.088a12.482,12.482,0,0,1,4.331-4.634c.37-.267.855-.528,1.268-.322a.88.88,0,0,1,.449.716,2.11,2.11,0,0,1-.146.861,6.672,6.672,0,0,1-5.9,4.379" transform="translate(-409.131 -346.486)" fill="#455a64"/>
      <path id="Path_6850" data-name="Path 6850" d="M444.059,362.331a17.963,17.963,0,0,0,1.116-3.16,6.023,6.023,0,0,0-.121-3.312,2.566,2.566,0,0,0-.795-1.213,1.407,1.407,0,0,0-1.353-.237,1.5,1.5,0,0,0-.813,1.007,3.864,3.864,0,0,0-.055,1.322c.188,2.123.831,4.61,2.02,5.562" transform="translate(-407.953 -342.265)" fill="#455a64"/>
      <path id="Path_6851" data-name="Path 6851" d="M386.8,417.64v5.107a2.008,2.008,0,0,0,2.008,2.008h34.927a2.014,2.014,0,0,0,2.014-2.008V417.64Z" transform="translate(-386.234 -367.173)" fill="#34ac97"/>
      <g id="Group_214" data-name="Group 214" transform="translate(3.593 57.582)" opacity="0.4">
        <path id="Path_6852" data-name="Path 6852" d="M391.79,429.37l.291,1.626,32.227,2.293.819-3.918Z" transform="translate(-391.79 -429.37)"/>
      </g>
    </g>
    <g id="freepik--Character--inject-39" transform="translate(67.659 73.152)">
      <path id="Path_6853" data-name="Path 6853" d="M143.817,116.868c-1.82-2.845-.479-7.758-1.462-10.985s-.849-5.223-2.954-7.831a16.378,16.378,0,0,0-8.061-5,15.462,15.462,0,0,0-12.465,2.784,16.012,16.012,0,0,0-4.756,4.756c-1.377,2.384-1.589,5.077-1.523,7.885l-.176-.182a7.958,7.958,0,0,0-4.622-1.5,4.04,4.04,0,0,0-2.226.534,2.111,2.111,0,0,0-1.025,1.941c.158,1.213,1.5,1.82,2.645,2.232a2.93,2.93,0,0,0,2.1,5.459c1.632-.455,2.5-2.135,3.524-3.561a18.646,18.646,0,0,1-.782,6.9c-.922,2.6-2.821,5-2.608,7.746.1,1.213.607,2.463.394,3.682-.376,1.886-2.426,2.942-3.36,4.61-1.28,2.208-.4,5.18,1.413,6.976s4.343,2.663,6.812,3.306c5.853,1.529,12.514,2.014,17.548-1.341l14.109-14.388A19.9,19.9,0,0,0,143.817,116.868Z" transform="translate(-96.274 -92.721)" fill="#263238"/>
      <path id="Path_6854" data-name="Path 6854" d="M154.989,458.28v.692s11.944,4.4,12.132,6.642l-23.45.558.133-7.813a13.448,13.448,0,0,0,11.185-.079Z" transform="translate(-111.667 -236.54)" fill="#34ac97"/>
      <g id="Group_215" data-name="Group 215" transform="translate(33.962 224.23)" opacity="0.6">
        <path id="Path_6855" data-name="Path 6855" d="M147.531,462.413a.952.952,0,0,0-.607,1.11.916.916,0,0,0,1.092.637,1.013,1.013,0,0,0,.667-1.177.958.958,0,0,0-1.213-.54" transform="translate(-146.9 -462.386)" fill="#fff"/>
      </g>
      <g id="Group_216" data-name="Group 216" transform="translate(32.027 227.751)" opacity="0.6">
        <path id="Path_6856" data-name="Path 6856" d="M143.71,470.07v-1.88l22.443.152s1.055.431.952,1.171Z" transform="translate(-143.71 -468.19)" fill="#fff"/>
      </g>
      <path id="Path_6857" data-name="Path 6857" d="M161.134,459.467c0,.115-.57.182-1.122.558s-.843.873-.952.831.049-.71.728-1.159S161.158,459.358,161.134,459.467Z" transform="translate(-117.709 -236.969)" fill="#263238"/>
      <path id="Path_6858" data-name="Path 6858" d="M165.6,461.082c.03.109-.461.315-.843.813s-.473,1.007-.607,1-.206-.643.279-1.25S165.589,460.973,165.6,461.082Z" transform="translate(-119.684 -237.626)" fill="#263238"/>
      <path id="Path_6859" data-name="Path 6859" d="M168.9,464.615c-.1,0-.279-.54,0-1.177s.813-.9.861-.8-.273.437-.5.958S169.024,464.6,168.9,464.615Z" transform="translate(-121.535 -238.247)" fill="#263238"/>
      <path id="Path_6860" data-name="Path 6860" d="M117.5,256.17l38.985,8.856-.734,4.938-11.155,88.008-7.71-.176-.795,6.5-12.216.182s-1.82-21.952-2.3-29.789-.734-21.3-2.2-29.619S108.059,272,117.5,256.17Z" transform="translate(-99.779 -157.025)" fill="#263238"/>
      <path id="Path_6861" data-name="Path 6861" d="M155.713,427.41c-.091.691-1.82,20.053-1.82,20.053h-8.85l-1.553-19.975Z" transform="translate(-111.596 -224.395)" fill="#eb996e"/>
      <path id="Path_6862" data-name="Path 6862" d="M142.846,433.51c-.085.691-1.82,20.053-1.82,20.053h-8.844l-1.553-19.975Z" transform="translate(-106.537 -226.795)" fill="#ffbe9d"/>
      <path id="Path_6863" data-name="Path 6863" d="M160.739,418.05l-1.146,6.248-8.583-.1.188-6.041Z" transform="translate(-114.555 -220.713)" fill="#455a64"/>
      <path id="Path_6864" data-name="Path 6864" d="M155.866,281.81a1.212,1.212,0,0,1,0,.224v.661c0,.607-.049,1.456-.085,2.542-.091,2.232-.218,5.423-.382,9.359-.352,7.916-.837,18.8-1.371,30.869s-1.092,22.959-1.468,30.875c-.2,3.931-.364,7.121-.479,9.353-.061,1.086-.109,1.941-.146,2.542l-.049.661a1.357,1.357,0,0,1,0,.224,1.341,1.341,0,0,1,0-.23c0-.164,0-.382,0-.661,0-.607.049-1.45.085-2.542.091-2.232.218-5.423.382-9.359.352-7.916.837-18.8,1.371-30.869s1.092-22.953,1.468-30.869c.2-3.931.364-7.127.479-9.353.061-1.086.109-1.941.146-2.542,0-.279.036-.5.049-.661A1.214,1.214,0,0,1,155.866,281.81Z" transform="translate(-114.898 -167.113)" fill="#455a64"/>
      <path id="Path_6865" data-name="Path 6865" d="M143.433,427.41l-1.146,6.248H128.832l-.952-6.042Z" transform="translate(-105.455 -224.395)" fill="#455a64"/>
      <path id="Path_6866" data-name="Path 6866" d="M132.441,461.81s6.23,4.422,9.244.607l.789,1.856,3.542,13.211a1.765,1.765,0,0,1-.995,2.117,1.711,1.711,0,0,1-1.82-.346c-2.56-2.426-11.943-11.446-11.852-12.671l.036-3.239a1.662,1.662,0,0,1,1.049-1.522Z" transform="translate(-106.82 -237.929)" fill="#34ac97"/>
      <g id="Group_217" data-name="Group 217" transform="translate(24.544 227.514)" opacity="0.6">
        <path id="Path_6867" data-name="Path 6867" d="M144.722,482.036,131.377,467.8v.728a1.978,1.978,0,0,0,.607,1.565c1.086,1.456,4.076,4.719,11.173,11.525a1.686,1.686,0,0,0,1.553.437Z" transform="translate(-131.372 -467.8)" fill="#fff"/>
      </g>
      <g id="Group_218" data-name="Group 218" transform="translate(24.993 225.251)" opacity="0.6">
        <path id="Path_6868" data-name="Path 6868" d="M133.609,464.221a1.043,1.043,0,0,1,.291,1.353,1,1,0,0,1-1.341.3,1.1,1.1,0,0,1-.3-1.438,1.037,1.037,0,0,1,1.425-.158" transform="translate(-132.113 -464.068)" fill="#fff"/>
      </g>
      <path id="Path_6869" data-name="Path 6869" d="M147,478c.1.049.467-.831,1.462-1.3a5.247,5.247,0,0,1,1.923-.376c0-.042-.194-.17-.607-.224a2.657,2.657,0,0,0-1.5.273,2.711,2.711,0,0,0-1.122,1.025A1.566,1.566,0,0,0,147,478Z" transform="translate(-112.977 -243.544)" fill="#263238"/>
      <path id="Path_6870" data-name="Path 6870" d="M148.994,482.161a11.9,11.9,0,0,1,1.48-.728,13.24,13.24,0,0,1,1.632-.218,1.9,1.9,0,0,0-1.741-.133C149.383,481.385,148.916,482.113,148.994,482.161Z" transform="translate(-113.758 -245.463)" fill="#263238"/>
      <path id="Path_6871" data-name="Path 6871" d="M143.356,473.24a16.591,16.591,0,0,1,2.2-1.274,16.042,16.042,0,0,1,2.481-.607,3.773,3.773,0,0,0-2.614.243A3.816,3.816,0,0,0,143.356,473.24Z" transform="translate(-111.541 -241.637)" fill="#263238"/>
      <path id="Path_6872" data-name="Path 6872" d="M142.868,467.445c.042.1.964-.291,2.165-.34s2.159.237,2.2.133a3.187,3.187,0,0,0-2.208-.5A3.369,3.369,0,0,0,142.868,467.445Z" transform="translate(-111.351 -239.864)" fill="#263238"/>
      <path id="Path_6873" data-name="Path 6873" d="M145.776,465.33a1.365,1.365,0,0,0-.091-.607,4.409,4.409,0,0,0-.8-1.541,2,2,0,0,0-.989-.758.7.7,0,0,0-.74.291,1.146,1.146,0,0,0-.121.795,2.426,2.426,0,0,0,2.5,1.82,2.814,2.814,0,0,0,2.426-1.953.983.983,0,0,0-.1-.807.685.685,0,0,0-.764-.224,2.378,2.378,0,0,0-.977.77,4.853,4.853,0,0,0-.88,1.486,1.316,1.316,0,0,0-.146.607,7.6,7.6,0,0,1,1.213-1.929,2.214,2.214,0,0,1,.867-.643.364.364,0,0,1,.419.115.679.679,0,0,1,.036.534,2.505,2.505,0,0,1-2.135,1.668,2.1,2.1,0,0,1-2.147-1.5.843.843,0,0,1,.061-.558.382.382,0,0,1,.406-.17,1.82,1.82,0,0,1,.849.607A6.339,6.339,0,0,1,145.776,465.33Z" transform="translate(-111.407 -238.125)" fill="#263238"/>
      <path id="Path_6874" data-name="Path 6874" d="M250.822,163.226s3.269-4.671,3.979-5.065,6.727-1.583,7.188-1.359,7.164,2.487,6.248,3.178-5.587-.94-5.587-.94l-.692.218a30.33,30.33,0,0,1,4.853,1.953c.807.643.3,1.535-.449,1.334a46.583,46.583,0,0,0-4.483-1.347c-.237.115,3.773,1.589,4.173,1.923.546.449.443,1.522-.309,1.353-.443-.1-4.185-1.723-4.185-1.723a34.571,34.571,0,0,1,3.154,2c.394.516-.079,1.128-.728.88-.443-.176-2.469-1.559-3.063-1.82,0,0-.607.061-1.3,1.146s-4.125,3.33-4.125,3.33l-2.311,1.365-3.882-5.374Z" transform="translate(-153.224 -117.921)" fill="#ffbe9d"/>
      <path id="Path_6875" data-name="Path 6875" d="M254.39,165.8a1.389,1.389,0,0,0,1.6.249c.534-.218.983-.607,1.5-.873,1.553-.764,3.536-.218,5.053-1.055.212-.121.437-.328.364-.564s-.328-.279-.552-.3l-5.7-.752" transform="translate(-155.227 -120.174)" fill="#ffbe9d"/>
      <path id="Path_6876" data-name="Path 6876" d="M256.644,162.486a2.166,2.166,0,0,1,.607,0l1.686.176,2.5.291.716.091a1.116,1.116,0,0,1,.807.3.473.473,0,0,1,0,.54.97.97,0,0,1-.34.328,4.192,4.192,0,0,1-.783.328,22.751,22.751,0,0,1-3.075.376,4.307,4.307,0,0,0-1.243.352,7.692,7.692,0,0,0-1,.607,2.038,2.038,0,0,1-1.686.315c-.406-.152-.51-.4-.491-.394a1.65,1.65,0,0,0,.528.267,1.959,1.959,0,0,0,1.529-.388,11.211,11.211,0,0,1,1-.607,4.489,4.489,0,0,1,1.322-.4,26.3,26.3,0,0,0,3.033-.394,3.72,3.72,0,0,0,.71-.3c.206-.115.328-.3.237-.394a1.213,1.213,0,0,0-.607-.182l-.722-.1-2.487-.364c-.7-.1-1.28-.2-1.674-.273A2.426,2.426,0,0,1,256.644,162.486Z" transform="translate(-155.206 -120.16)" fill="#eb996e"/>
      <path id="Path_6877" data-name="Path 6877" d="M274.844,161.311a3.367,3.367,0,0,1-1.31.152,7.729,7.729,0,0,1-1.425-.164c-.522-.139-1.08-.315-1.674-.491l-1.256-.388h.079a19.472,19.472,0,0,1-3.118.467,18.572,18.572,0,0,1,3.033-.776h.079l1.25.37,1.65.51a9.1,9.1,0,0,0,1.371.23C274.341,161.3,274.838,161.256,274.844,161.311Z" transform="translate(-159.85 -119.233)" fill="#eb996e"/>
      <path id="Path_6878" data-name="Path 6878" d="M169.7,153.556s7.327-.394,11.009,1.413,19.9,12.963,19.9,12.963l16.62-6.157,5.884,7.976L208.7,180.246a12.235,12.235,0,0,1-11.683,1.11l-18.646-7.406Z" transform="translate(-121.908 -116.641)" fill="#34ac97"/>
      <path id="Path_6879" data-name="Path 6879" d="M221.385,185.06a3.639,3.639,0,0,1-.558-1.055,10.918,10.918,0,0,1-.7-2.808,10.652,10.652,0,0,1,.079-2.887,3.779,3.779,0,0,1,.315-1.159,14.838,14.838,0,0,0,.861,7.91Z" transform="translate(-141.723 -125.937)" fill="#263238"/>
      <g id="Group_219" data-name="Group 219" transform="translate(77.721 51.401)" opacity="0.3">
        <path id="Path_6880" data-name="Path 6880" d="M219.968,177.46a3.511,3.511,0,0,0-.886,2.505,24.086,24.086,0,0,0,.1,4.076,5.308,5.308,0,0,0,.576,2.141,1.013,1.013,0,0,0,.607.534c.473.109.9-.4.91-.892a3.033,3.033,0,0,0-.443-1.365,10.112,10.112,0,0,1-.843-6.593" transform="translate(-219.04 -177.46)"/>
      </g>
      <path id="Path_6881" data-name="Path 6881" d="M120.775,156.446c-.358.121-4.295,2.681-7.394,4.719a5.344,5.344,0,0,0-1.941,6.636l7.691,17.287,2.693,10.476L113.1,218.505l.607,2.548,41.811,3.573,2.038-4.8-2.426-21.837V170.567l-6.672-17.087-11.489.146Z" transform="translate(-98.805 -116.625)" fill="#34ac97"/>
      <g id="Group_220" data-name="Group 220" transform="translate(53.554 38.141)" opacity="0.3">
        <path id="Path_6882" data-name="Path 6882" d="M180.34,155.6a1.31,1.31,0,0,1,1.213.77,3.864,3.864,0,0,1,.309,1.51c.491,7.424.206,16.5.091,24.124l.522,23.517c-2.232-4.161-2.426-9.1-2.633-13.781q-.224-6.363-.467-12.738c-.261-7.036.085-14.073-.176-21.109C179.188,156.971,179.4,155.715,180.34,155.6Z" transform="translate(-179.199 -155.6)"/>
      </g>
      <g id="Group_221" data-name="Group 221" transform="translate(18.069 65.68)" opacity="0.3">
        <path id="Path_6883" data-name="Path 6883" d="M120.742,226.931c.224-.74.807-2.117.807-2.117a25.894,25.894,0,0,0,3.464-13.187s-.989-4.167-2.056-8.074L121.834,201l.073.036c1.886.867,3.033,3.451,3.3,5.508s.516,4.41,2.081,5.823c1.025.934,2.463,1.286,3.579,2.111a5.162,5.162,0,0,1,2.068,4.21c0,.679-.139,1.474.352,1.953.607.57,1.523.273,2.281,0s1.783-.437,2.2.255a1.365,1.365,0,0,1-.443,1.644,11.564,11.564,0,0,1-1.6.922c-1.316.795-2.068,2.25-3.178,3.312-2.2,2.123-5.508,2.493-8.553,2.748a3.146,3.146,0,0,1-2.554-.528,2.165,2.165,0,0,1-.7-2.062Z" transform="translate(-120.698 -201)"/>
      </g>
      <path id="Path_6884" data-name="Path 6884" d="M115,270.082c0-.055.746.164,1.941.358a17.343,17.343,0,0,0,4.713.091,17.148,17.148,0,0,0,4.561-1.213c1.116-.467,1.771-.849,1.82-.8s-.14.127-.431.315a10.854,10.854,0,0,1-1.274.692,15.255,15.255,0,0,1-9.408,1.122,10.359,10.359,0,0,1-1.4-.376A1.82,1.82,0,0,1,115,270.082Z" transform="translate(-100.388 -161.882)" fill="#455a64"/>
      <path id="Path_6885" data-name="Path 6885" d="M147.394,228.7l-.218-.334s1.274,1.747.758,3.154a1.583,1.583,0,0,1-.34.558,2.269,2.269,0,0,1-3.36,2,.94.94,0,0,1-.607-.9,1.213,1.213,0,0,1,.309-.516,1.686,1.686,0,0,0,.188-.261l-1.559-.3s-3.779-.23-4.8-2.25c-.164-.321-8.268.315-8.268.315l.607-9.141,13.563,1.82s9.6,1.11,10.536,1.1a.928.928,0,0,1,1.031,1.116c-.036.607-.5.861-1.432.9-.315,0-6.066.2-6.066.2h0c.485.716,1.1,1.868.346,2.287Z" transform="translate(-106.092 -143.193)" fill="#ffbe9d"/>
      <path id="Path_6886" data-name="Path 6886" d="M154.46,235.438c0-.042.261-.049.685,0a3.482,3.482,0,0,1,1.583.534,1.862,1.862,0,0,1,.873,1.444c0,.455-.176.691-.206.673a6.36,6.36,0,0,0,0-.649,1.82,1.82,0,0,0-.825-1.213,4.464,4.464,0,0,0-1.45-.576C154.7,235.553,154.448,235.48,154.46,235.438Z" transform="translate(-115.912 -148.856)" fill="#eb996e"/>
      <path id="Path_6887" data-name="Path 6887" d="M154.65,230.736c0-.036.315-.042.782.115a3.864,3.864,0,0,1,1.613,1.049,3.791,3.791,0,0,1,.9,1.692c.115.485.085.795.049.795a6.6,6.6,0,0,0-1.183-2.275A6.5,6.5,0,0,0,154.65,230.736Z" transform="translate(-115.987 -147.011)" fill="#eb996e"/>
      <path id="Path_6888" data-name="Path 6888" d="M156.47,228.318c0-.085.552-.121,1.165.121s1,.607.946.691-.491-.182-1.062-.4S156.464,228.4,156.47,228.318Z" transform="translate(-116.703 -146.043)" fill="#eb996e"/>
      <path id="Path_6889" data-name="Path 6889" d="M155.333,240.1c-.073.042-.309-.237-.71-.364s-.758-.049-.795-.133.364-.34.892-.164S155.424,240.078,155.333,240.1Z" transform="translate(-115.663 -150.42)" fill="#eb996e"/>
      <path id="Path_6890" data-name="Path 6890" d="M110.314,187.061l-3.882,10.263,14.467,2.2-.716,12.259-19.884-.843a9.7,9.7,0,0,1-9.39-9.1v-.655c.079-3.639,6.442-20.163,9.359-28.7a11.846,11.846,0,0,1,5.047-6.175h0Z" transform="translate(-90.91 -121.672)" fill="#34ac97"/>
      <path id="Path_6891" data-name="Path 6891" d="M127.835,231.6a6.146,6.146,0,0,1,0-.934c.03-.649.061-1.516.109-2.578.115-2.238.273-5.283.455-8.753l.133.164-3.033-.437c-4.191-.607-7.976-1.177-10.718-1.6l-3.239-.522-.88-.158a1.1,1.1,0,0,1-.3-.079,1.323,1.323,0,0,1,.309,0l.892.1,3.251.419c2.754.37,6.545.9,10.73,1.516l3.033.437h.139v.14c-.224,3.464-.425,6.509-.564,8.747-.085,1.055-.152,1.923-.2,2.572A4.851,4.851,0,0,1,127.835,231.6Z" transform="translate(-98.562 -141.495)" fill="#263238"/>
      <path id="Path_6892" data-name="Path 6892" d="M115.129,174.52a3.612,3.612,0,0,1,.419.37,11.314,11.314,0,0,1,1,1.146,16.426,16.426,0,0,1,3.385,9.329,10.48,10.48,0,0,1,0,1.522,2.081,2.081,0,0,1-.079.552c-.061,0,0-.795-.115-2.062a18.325,18.325,0,0,0-3.342-9.208C115.656,175.133,115.086,174.556,115.129,174.52Z" transform="translate(-100.437 -124.902)" fill="#263238"/>
      <path id="Path_6893" data-name="Path 6893" d="M183.347,176.3a8.6,8.6,0,0,1,0-1.565c.036-.964.079-2.3.085-3.767s-.036-2.8-.067-3.767a9.7,9.7,0,0,1,0-1.565,6.672,6.672,0,0,1,.224,1.553c.091.964.158,2.3.158,3.779s-.085,2.815-.176,3.779a6.951,6.951,0,0,1-.224,1.553Z" transform="translate(-127.263 -121.409)" fill="#263238"/>
      <path id="Path_6894" data-name="Path 6894" d="M129,251.51a7.238,7.238,0,0,1,.995.376c.607.267,1.547.637,2.681,1.08a85.531,85.531,0,0,0,9.062,2.93,83.831,83.831,0,0,0,9.341,1.856c1.213.17,2.19.291,2.869.37a7.548,7.548,0,0,1,1.049.152,6.113,6.113,0,0,1-1.062-.03c-.685-.036-1.668-.127-2.887-.267a71.629,71.629,0,0,1-9.4-1.777,70.5,70.5,0,0,1-9.1-3.033c-1.128-.467-2.032-.867-2.651-1.171A6.066,6.066,0,0,1,129,251.51Z" transform="translate(-105.896 -155.192)" fill="#263238"/>
      <path id="Path_6895" data-name="Path 6895" d="M172.37,190.267a.607.607,0,1,0,.607-.607A.607.607,0,0,0,172.37,190.267Z" transform="translate(-122.958 -130.859)" fill="#263238"/>
      <path id="Path_6896" data-name="Path 6896" d="M240.35,182.827a.607.607,0,1,0,.607-.607A.607.607,0,0,0,240.35,182.827Z" transform="translate(-149.703 -127.932)" fill="#263238"/>
      <path id="Path_6897" data-name="Path 6897" d="M208.762,179.193a.607.607,0,1,0,.579-.427A.607.607,0,0,0,208.762,179.193Z" transform="translate(-137.265 -126.573)" fill="#263238"/>
      <path id="Path_6898" data-name="Path 6898" d="M192.39,165.247a.607.607,0,1,0,.607-.607A.607.607,0,0,0,192.39,165.247Z" transform="translate(-130.835 -121.015)" fill="#263238"/>
      <path id="Path_6899" data-name="Path 6899" d="M170.12,204.787a.607.607,0,1,0,.607-.607A.607.607,0,0,0,170.12,204.787Z" transform="translate(-122.073 -136.571)" fill="#263238"/>
      <path id="Path_6900" data-name="Path 6900" d="M227.8,180.037a.607.607,0,1,0,.607-.607A.607.607,0,0,0,227.8,180.037Z" transform="translate(-144.766 -126.834)" fill="#263238"/>
      <path id="Path_6901" data-name="Path 6901" d="M213.712,195.543a.607.607,0,1,0,.579-.427A.607.607,0,0,0,213.712,195.543Z" transform="translate(-139.213 -133.006)" fill="#263238"/>
      <path id="Path_6902" data-name="Path 6902" d="M150.87,193.517a.607.607,0,1,0,.607-.607A.607.607,0,0,0,150.87,193.517Z" transform="translate(-114.5 -132.138)" fill="#263238"/>
      <circle id="Ellipse_86" data-name="Ellipse 86" cx="0.582" cy="0.582" r="0.582" transform="translate(33.489 52.038)" fill="#263238"/>
      <path id="Path_6903" data-name="Path 6903" d="M164.14,173.067a.607.607,0,1,0,.607-.607A.607.607,0,0,0,164.14,173.067Z" transform="translate(-119.72 -124.092)" fill="#263238"/>
      <path id="Path_6904" data-name="Path 6904" d="M196,180.037a.607.607,0,1,0,.607-.607A.607.607,0,0,0,196,180.037Z" transform="translate(-132.255 -126.834)" fill="#263238"/>
      <circle id="Ellipse_87" data-name="Ellipse 87" cx="0.582" cy="0.582" r="0.582" transform="translate(46.628 40.749)" fill="#263238"/>
      <circle id="Ellipse_88" data-name="Ellipse 88" cx="0.582" cy="0.582" r="0.582" transform="translate(25.907 54.312)" fill="#263238"/>
      <path id="Path_6905" data-name="Path 6905" d="M150.87,211.807a.607.607,0,1,0,.607-.607A.607.607,0,0,0,150.87,211.807Z" transform="translate(-114.5 -139.333)" fill="#263238"/>
      <circle id="Ellipse_89" data-name="Ellipse 89" cx="0.582" cy="0.582" r="0.582" transform="translate(52.384 101.789)" fill="#263238"/>
      <circle id="Ellipse_90" data-name="Ellipse 90" cx="0.582" cy="0.582" r="0.582" transform="translate(36.953 94.262)" fill="#263238"/>
      <path id="Path_6906" data-name="Path 6906" d="M124.41,259.337a.607.607,0,1,0,.607-.607A.607.607,0,0,0,124.41,259.337Z" transform="translate(-104.09 -158.033)" fill="#263238"/>
      <path id="Path_6907" data-name="Path 6907" d="M159.59,239.287a.607.607,0,1,0,.607-.607A.607.607,0,0,0,159.59,239.287Z" transform="translate(-117.93 -150.145)" fill="#263238"/>
      <circle id="Ellipse_91" data-name="Ellipse 91" cx="0.582" cy="0.582" r="0.582" transform="translate(10.882 53.033)" fill="#263238"/>
      <path id="Path_6908" data-name="Path 6908" d="M108.85,228.607a.607.607,0,1,0,.607-.607A.607.607,0,0,0,108.85,228.607Z" transform="translate(-97.968 -145.943)" fill="#263238"/>
      <path id="Path_6909" data-name="Path 6909" d="M124.41,234.4a.607.607,0,1,0,.607-.607A.607.607,0,0,0,124.41,234.4Z" transform="translate(-104.09 -148.221)" fill="#263238"/>
      <path id="Path_6910" data-name="Path 6910" d="M132.652,223.23a.607.607,0,1,0,.225-.672A.607.607,0,0,0,132.652,223.23Z" transform="translate(-107.322 -143.757)" fill="#263238"/>
      <path id="Path_6911" data-name="Path 6911" d="M114.08,193.517a.607.607,0,1,0,.607-.607A.607.607,0,0,0,114.08,193.517Z" transform="translate(-100.026 -132.138)" fill="#263238"/>
      <circle id="Ellipse_92" data-name="Ellipse 92" cx="0.582" cy="0.582" r="0.582" transform="translate(52.384 91.89)" fill="#263238"/>
      <circle id="Ellipse_93" data-name="Ellipse 93" cx="0.582" cy="0.582" r="0.582" transform="translate(6.151 69.271)" fill="#263238"/>
      <path id="Path_6912" data-name="Path 6912" d="M95.94,223.347a.607.607,0,1,0,.607-.607A.607.607,0,0,0,95.94,223.347Z" transform="translate(-92.889 -143.873)" fill="#263238"/>
      <path id="Path_6913" data-name="Path 6913" d="M132.652,199.58a.607.607,0,1,0,.225-.672A.607.607,0,0,0,132.652,199.58Z" transform="translate(-107.322 -134.452)" fill="#263238"/>
      <g id="Group_222" data-name="Group 222" transform="translate(17.214 39.178)" opacity="0.3">
        <path id="Path_6914" data-name="Path 6914" d="M130.584,161.52c-.358-1.116-.849-1.341-1.911-1.85a19.787,19.787,0,0,1-3.694-2.36l-5.259,3.342a9.663,9.663,0,0,0,.412,6.873,5.273,5.273,0,0,0,9.281.831,10.184,10.184,0,0,0,1.68-4.034A6.669,6.669,0,0,0,130.584,161.52Z" transform="translate(-119.289 -157.31)"/>
      </g>
      <path id="Path_6915" data-name="Path 6915" d="M148.962,107.262c-.661-3.961-3.8-8.577-7.734-7.746l-12.071,4.41a2.341,2.341,0,0,0-1.82,2.584l4.4,29.759h-.085s3.67,8.146,11.61,4.749c1.571-.679,2.135-2.529,2.275-4.392h.085a5.931,5.931,0,0,0-.055-.607,19.672,19.672,0,0,0-.37-4.107h0c-.218-2.426-.321-3.409-.315-3.385s5-1.371,5.374-8.122A80.145,80.145,0,0,0,148.962,107.262Z" transform="translate(-105.234 -95.356)" fill="#ffbe9d"/>
      <path id="Path_6916" data-name="Path 6916" d="M159.812,119.64a.855.855,0,0,1-.734.94.819.819,0,0,1-.952-.679.849.849,0,0,1,.728-.94.819.819,0,0,1,.958.679Z" transform="translate(-117.352 -103.039)" fill="#263238"/>
      <path id="Path_6917" data-name="Path 6917" d="M159.288,116.714c-.091.121-.789-.285-1.7-.188s-1.541.607-1.65.522,0-.261.3-.5a2.323,2.323,0,0,1,1.3-.552,2.275,2.275,0,0,1,1.377.291C159.221,116.471,159.336,116.659,159.288,116.714Z" transform="translate(-116.475 -101.871)" fill="#263238"/>
      <path id="Path_6918" data-name="Path 6918" d="M145.572,121.41a.861.861,0,0,1-.734.946.819.819,0,0,1-.952-.679.855.855,0,0,1,.728-.946.819.819,0,0,1,.958.679Z" transform="translate(-111.75 -103.735)" fill="#263238"/>
      <path id="Path_6919" data-name="Path 6919" d="M144.465,118.523c-.1.121-.789-.285-1.7-.188s-1.541.607-1.656.522.036-.255.3-.5a2.384,2.384,0,0,1,1.31-.552,2.25,2.25,0,0,1,1.371.291C144.392,118.281,144.508,118.469,144.465,118.523Z" transform="translate(-110.642 -102.583)" fill="#263238"/>
      <path id="Path_6920" data-name="Path 6920" d="M152.516,124.724a5.921,5.921,0,0,1,1.462-.425c.23-.049.449-.115.473-.279a1.213,1.213,0,0,0-.23-.679q-.412-.819-.873-1.711a30.581,30.581,0,0,1-2.032-4.5,29.954,29.954,0,0,1,2.39,4.325c.3.607.607,1.177.849,1.723a1.371,1.371,0,0,1,.212.91.607.607,0,0,1-.346.382,1.954,1.954,0,0,1-.394.1,6.2,6.2,0,0,1-1.51.158Z" transform="translate(-114.672 -102.323)" fill="#263238"/>
      <path id="Path_6921" data-name="Path 6921" d="M150.261,146.476a17.021,17.021,0,0,1-9.141-1.456s2.626,4.337,9.214,3.033Z" transform="translate(-110.664 -113.296)" fill="#eb996e"/>
      <path id="Path_6922" data-name="Path 6922" d="M151.26,133.026a1.662,1.662,0,0,0-1.541-.461,1.553,1.553,0,0,0-.989.667.952.952,0,0,0,.042,1.1,1.1,1.1,0,0,0,1.213.182,3.518,3.518,0,0,0,1.1-.819,1.007,1.007,0,0,0,.237-.3.309.309,0,0,0-.036-.34" transform="translate(-113.597 -108.382)" fill="#eb996e"/>
      <path id="Path_6923" data-name="Path 6923" d="M148.921,131.15c.146,0,.249.971,1.177,1.589s1.971.4,1.99.54-.212.212-.661.273a2.463,2.463,0,0,1-1.656-.394,2.178,2.178,0,0,1-.928-1.341C148.745,131.411,148.83,131.15,148.921,131.15Z" transform="translate(-113.685 -107.84)" fill="#263238"/>
      <path id="Path_6924" data-name="Path 6924" d="M144.386,115.953c-.061.255-.989.237-2.05.473s-1.9.607-2.068.412c-.073-.1.055-.346.376-.607a3.53,3.53,0,0,1,1.492-.7,3.64,3.64,0,0,1,1.65,0C144.2,115.656,144.416,115.832,144.386,115.953Z" transform="translate(-110.32 -101.657)" fill="#263238"/>
      <path id="Path_6925" data-name="Path 6925" d="M158.451,112.36c-.146.224-.795.073-1.559.14s-1.383.285-1.559.085c-.073-.1,0-.321.267-.546a2.147,2.147,0,0,1,1.213-.473,2.178,2.178,0,0,1,1.28.291C158.4,112.044,158.511,112.251,158.451,112.36Z" transform="translate(-116.245 -100.132)" fill="#263238"/>
      <path id="Path_6926" data-name="Path 6926" d="M144.565,96.8a8.043,8.043,0,0,1,6.848,7.5l-3.773.188-.782-1.965a2.8,2.8,0,0,1-1.583,3.227,7.853,7.853,0,0,1-3.864.558l-.243-1.686a3.209,3.209,0,0,1-1.953,2.608,9.663,9.663,0,0,1-3.33.7,9.244,9.244,0,0,0-3.33.71,7.073,7.073,0,0,1,.558-6.527,10.312,10.312,0,0,1,5.3-4.107,18.919,18.919,0,0,1,6.721-.977" transform="translate(-107.078 -94.326)" fill="#263238"/>
      <path id="Path_6927" data-name="Path 6927" d="M121.64,140.228c.364-1.941,1.019-3.894.722-5.841-.279-1.82-1.341-3.639-.661-5.314a3.087,3.087,0,0,1,2.572-1.777c-2.548-4.161-2.936-9.426-2.754-14.37a17.918,17.918,0,0,1,.655-4.756,7.018,7.018,0,0,1,2.742-3.84,4.428,4.428,0,0,1,4.561-.23l1.049.085a10.433,10.433,0,0,1-.346,7.746,8.116,8.116,0,0,0-1.013,2.742c-.115,2.087,1.99,3.767,1.99,5.847a10.511,10.511,0,0,1-1.5,4.665,1.917,1.917,0,0,0,.164,2.542c.491.649,4.064,9.475,1.377,14.412a6.891,6.891,0,0,1-2.778,4.246,4.677,4.677,0,0,1-5.841-.51C121.258,144.4,121.27,142.169,121.64,140.228Z" transform="translate(-102.915 -96.992)" fill="#263238"/>
    </g>
    <g id="freepik--speech-bubble--inject-39" transform="translate(37.107 42.982)">
      <path id="Path_6928" data-name="Path 6928" d="M63.121,65.493v1.092c0,.722,0,1.735.036,3.033,0,2.6.036,6.266.067,10.658l-.133-.14H77.843c.036-.036-.3.3-.158.152h0V65.493l.14.14L67.246,65.56l-3.033-.036H63.127a1.062,1.062,0,0,1,.255,0h.776l2.978-.036,10.742-.067h.133V80.311h0c.14-.14-.194.194-.158.164H63v-.133c.03-4.428.055-8.122.067-10.742,0-1.262.03-2.269.036-2.984v-.776A1.28,1.28,0,0,1,63.121,65.493Z" transform="translate(-49.378 -51.809)" fill="#263238"/>
      <path id="Path_6929" data-name="Path 6929" d="M82.192,60.107c.206.164-3.033,4.4-7.158,9.469L72.548,72.56l-.3.358-.346-.3c-3.476-3.087-5.872-5.392-5.738-5.544s2.766,1.88,6.327,4.853l-.607.055,2.426-3.033C78.456,63.91,81.992,59.937,82.192,60.107Z" transform="translate(-50.622 -49.717)" fill="#34ac97"/>
      <path id="Path_6930" data-name="Path 6930" d="M61.929,42.993a1.5,1.5,0,0,0-.364,0H60.479a6.218,6.218,0,0,0-.795.036l-.952.133-1.11.158-1.213.309a20.059,20.059,0,0,0-6.023,2.626,21.54,21.54,0,0,0-6.223,6.066,21.776,21.776,0,0,0-3.536,9.911,22.091,22.091,0,0,0-.061,2.912,12.306,12.306,0,0,0,.1,1.486c.1.5.152.995.23,1.5a21.357,21.357,0,0,0,2.02,5.926,22.783,22.783,0,0,0,3.84,5.332A22.322,22.322,0,0,0,52.345,83.4a20.5,20.5,0,0,0,6.8,2.087,13.884,13.884,0,0,0,1.82.152,16.755,16.755,0,0,0,1.82.036,22.171,22.171,0,0,0,3.639-.467,21.54,21.54,0,0,0,7.309-3.075h-.224l7.443,2.984.443.176-.127-.455q-1.128-4.094-2.19-7.958l-.036.2a21.351,21.351,0,0,0,3.973-9.1,19.3,19.3,0,0,0,.291-4.659,15.9,15.9,0,0,0-.212-2.238c-.055-.37-.115-.728-.17-1.092s-.176-.7-.261-1.055a21.279,21.279,0,0,0-8.286-12.071,20.3,20.3,0,0,0-4.944-2.608l-1.11-.4L67.267,43.6l-.971-.243c-.309-.055-.607-.091-.886-.133-.564-.073-1.062-.17-1.492-.188l-1.092-.042h-.673a.928.928,0,0,0-.224,0,1.752,1.752,0,0,0,.224.03l.667.049,1.086.079a11.473,11.473,0,0,1,1.48.224,21.163,21.163,0,0,1,16.924,15.7c.079.34.188.685.249,1.037l.164,1.068a15.389,15.389,0,0,1,.194,2.2,18.84,18.84,0,0,1-.3,4.568,20.963,20.963,0,0,1-3.918,8.9l-.067.085v.109Q79.684,80.892,80.8,85l.315-.285-7.437-3-.115-.042-.109.067a20.866,20.866,0,0,1-7.145,3.033,21.157,21.157,0,0,1-3.585.455,16.124,16.124,0,0,1-1.82,0,13.246,13.246,0,0,1-1.771-.152,19.944,19.944,0,0,1-6.672-2.032A22.019,22.019,0,0,1,47,79.139a22.625,22.625,0,0,1-3.8-5.2,21.109,21.109,0,0,1-2-5.8c-.073-.5-.152-.983-.224-1.468s-.067-.983-.1-1.462a22.346,22.346,0,0,1,.049-2.857,21.024,21.024,0,0,1,9.608-15.856,20.3,20.3,0,0,1,5.926-2.669l1.213-.328,1.1-.182.94-.158c.291-.03.558-.036.795-.055l1.074-.079A3.354,3.354,0,0,0,61.929,42.993Z" transform="translate(-40.543 -42.982)" fill="#455a64"/>
    </g>
    <g id="freepik--Device--inject-39" transform="translate(123.324 45.225)">
      <path id="Path_6931" data-name="Path 6931" d="M278.744,278.908l-78.885-.049a17.184,17.184,0,0,1-17.178-17.184l.036-197.817a17.178,17.178,0,0,1,17.2-17.178l78.891.042a17.19,17.19,0,0,1,17.178,17.19l-.042,197.792a17.178,17.178,0,0,1-17.2,17.2Z" transform="translate(-182.68 -46.68)" fill="#263238"/>
      <path id="Path_6932" data-name="Path 6932" d="M282.1,58.306H266.809a3.8,3.8,0,0,0-3.718,3.882v2.772a3.8,3.8,0,0,1-3.712,3.882H229.559a3.8,3.8,0,0,1-3.712-3.882V62.152a3.8,3.8,0,0,0-3.712-3.882H203.373A12.041,12.041,0,0,0,191.326,70.3L191.29,263.36A12.041,12.041,0,0,0,203.318,275.4l78.74.042A12.028,12.028,0,0,0,294.1,263.414l.036-193.061A12.028,12.028,0,0,0,282.1,58.306Z" transform="translate(-186.067 -51.24)" fill="#fff"/>
      <path id="Path_6942" data-name="Path 6942" d="M338.906,94.445c0,.055-1.99.109-4.44.133s-4.446,0-4.446-.061,1.99-.109,4.446-.133S338.906,94.391,338.906,94.445Z" transform="translate(-240.647 -65.445)" fill="#263238"/>
      <path id="Path_6943" data-name="Path 6943" d="M338.936,98.2c0,.049-1.983.109-4.44.133s-4.446,0-4.446-.061,1.99-.109,4.446-.133S338.936,98.141,338.936,98.2Z" transform="translate(-240.659 -66.92)" fill="#263238"/>
      <path id="Path_6944" data-name="Path 6944" d="M338.966,101.956c0,.049-1.983.109-4.44.127s-4.44,0-4.446-.055,1.99-.115,4.446-.133S338.966,101.9,338.966,101.956Z" transform="translate(-240.671 -68.4)" fill="#263238"/>
      <path id="Path_6945" data-name="Path 6945" d="M206.449,100.39a.212.212,0,0,1-.152-.061l-1.917-1.893a.212.212,0,0,1-.061-.158.218.218,0,0,1,.067-.152l1.911-1.856a.218.218,0,0,1,.3.309l-1.759,1.7,1.759,1.741a.212.212,0,0,1-.152.364Z" transform="translate(-191.194 -66.173)" fill="#263238"/>
      <path id="Path_6959" data-name="Path 6959" d="M214.64,163.37a2.59,2.59,0,1,1-2.59-2.59A2.59,2.59,0,0,1,214.64,163.37Z" transform="translate(-193.216 -91.57)" fill="#34ac97"/>
      <path id="Path_6960" data-name="Path 6960" d="M212.7,165.31a.164.164,0,0,1-.1-.036l-.71-.649a.158.158,0,0,1,0-.218.146.146,0,0,1,.212,0l.607.546,1.134-1.213a.152.152,0,1,1,.218.206l-1.213,1.3a.158.158,0,0,1-.146.061Z" transform="translate(-194.155 -92.708)" fill="#fff"/>
      <path id="Path_6961" data-name="Path 6961" d="M290.348,169.479a3.28,3.28,0,0,0,.564-.073,3.033,3.033,0,0,0,1.474-.728,3.13,3.13,0,0,0,1.062-2.384V153.835a9.621,9.621,0,0,0-.055-1.45,3.033,3.033,0,0,0-1.82-2.238,3.548,3.548,0,0,0-1.547-.243h-8.807l-78.248.049a3,3,0,0,0-2.354,1.146,3.033,3.033,0,0,0-.57,1.213,6.867,6.867,0,0,0-.067,1.383V166.24a3.1,3.1,0,0,0,.237,1.268,3.033,3.033,0,0,0,1.856,1.68,3.761,3.761,0,0,0,1.286.133h19.41l35.181.03,23.717.055h6.448l-6.448.03-23.717.049-35.181.036h-19.41a4.137,4.137,0,0,1-1.377-.146,3.354,3.354,0,0,1-2.05-1.856,3.433,3.433,0,0,1-.267-1.389V153.708a7.377,7.377,0,0,1,.073-1.45,3.312,3.312,0,0,1,3.233-2.608l78.248.042h8.807a3.8,3.8,0,0,1,1.626.261,3.269,3.269,0,0,1,1.9,2.384,8.751,8.751,0,0,1,.055,1.48v12.459a3.172,3.172,0,0,1-1.11,2.426,3.1,3.1,0,0,1-1.51.716,2.627,2.627,0,0,1-.425.036Z" transform="translate(-189.359 -87.191)" fill="#34ac97"/>
      <path id="Path_6962" data-name="Path 6962" d="M257.191,173.208c0,.091-6.715.158-14.995.158s-15.007-.067-15.007-.158,6.715-.158,15.007-.158S257.191,173.123,257.191,173.208Z" transform="translate(-200.191 -96.397)" fill="#e0e0e0"/>
      <path id="Path_6963" data-name="Path 6963" d="M334.433,165.245a.127.127,0,0,1-.03.079l-.946.934a.115.115,0,0,1-.158,0l-.928-.958a.109.109,0,0,1,.158-.152l.849.88.873-.88a.108.108,0,0,1,.182.1Z" transform="translate(-241.56 -93.275)" fill="#34ac97"/>
      <path id="Path_6982" data-name="Path 6982" d="M214.64,201.83a2.59,2.59,0,1,1-2.59-2.59A2.59,2.59,0,0,1,214.64,201.83Z" transform="translate(-193.216 -106.701)" fill="#34ac97"/>
      <path id="Path_6983" data-name="Path 6983" d="M212.7,203.77a.164.164,0,0,1-.1-.036l-.71-.649a.158.158,0,0,1,0-.218.152.152,0,0,1,.212,0l.607.546,1.134-1.213a.152.152,0,1,1,.218.206l-1.213,1.3a.158.158,0,0,1-.146.061Z" transform="translate(-194.155 -107.84)" fill="#fff"/>
      <path id="Path_6984" data-name="Path 6984" d="M290.348,207.939a3.28,3.28,0,0,0,.564-.073,3.033,3.033,0,0,0,1.474-.728,3.13,3.13,0,0,0,1.062-2.384V192.3a9.622,9.622,0,0,0-.055-1.45,3.033,3.033,0,0,0-1.82-2.238,3.549,3.549,0,0,0-1.547-.243h-8.807l-78.248.049a3,3,0,0,0-2.354,1.146,3.033,3.033,0,0,0-.57,1.213,6.867,6.867,0,0,0-.067,1.383v12.532a3.081,3.081,0,0,0,.237,1.268,3.033,3.033,0,0,0,1.856,1.68,3.761,3.761,0,0,0,1.286.133h19.41l35.181.03,23.717.055,6.448.03h0l-6.448.03-23.717.049L222.769,208h-19.41a4.137,4.137,0,0,1-1.377-.146,3.354,3.354,0,0,1-2.05-1.856,3.415,3.415,0,0,1-.267-1.389V192.168a7.377,7.377,0,0,1,.073-1.45,3.312,3.312,0,0,1,3.233-2.608l78.248.042h8.807a3.8,3.8,0,0,1,1.626.261,3.269,3.269,0,0,1,1.9,2.384,8.751,8.751,0,0,1,.055,1.48v12.459a3.172,3.172,0,0,1-1.11,2.426,3.1,3.1,0,0,1-1.51.716,2.626,2.626,0,0,1-.425.036Z" transform="translate(-189.359 -102.322)" fill="#34ac97"/>
      <path id="Path_6985" data-name="Path 6985" d="M257.191,211.668c0,.091-6.715.158-14.995.158s-15.007-.067-15.007-.158,6.715-.158,15.007-.158S257.191,211.583,257.191,211.668Z" transform="translate(-200.191 -111.528)" fill="#e0e0e0"/>
      <path id="Path_6986" data-name="Path 6986" d="M334.433,203.721a.127.127,0,0,1-.03.079l-.946.958a.115.115,0,0,1-.158,0l-.928-.958a.109.109,0,1,1,.158-.152l.849.88.873-.88a.106.106,0,0,1,.182.073Z" transform="translate(-241.56 -108.422)" fill="#34ac97"/>
      <path id="Path_7001" data-name="Path 7001" d="M214.55,240.246a4.552,4.552,0,0,0-.14-.607,2.554,2.554,0,0,0-.952-1.353,2.426,2.426,0,1,0,0,3.937,2.554,2.554,0,0,0,.952-1.353c.115-.388.109-.607.139-.607a1.389,1.389,0,0,1,0,.649,2.566,2.566,0,0,1-.934,1.5,2.687,2.687,0,0,1-2.566.425,2.724,2.724,0,0,1,0-5.138,2.687,2.687,0,0,1,2.566.419,2.6,2.6,0,0,1,.934,1.5A1.347,1.347,0,0,1,214.55,240.246Z" transform="translate(-193.126 -121.769)" fill="#e0e0e0"/>
      <path id="Path_7002" data-name="Path 7002" d="M290.348,246.4a3.28,3.28,0,0,0,.564-.073,3.033,3.033,0,0,0,1.474-.728,3.13,3.13,0,0,0,1.061-2.384V230.755a9.622,9.622,0,0,0-.055-1.45,3.033,3.033,0,0,0-1.82-2.238,3.548,3.548,0,0,0-1.547-.243h-8.807l-78.248.049a3,3,0,0,0-2.354,1.146,3.033,3.033,0,0,0-.57,1.213,6.867,6.867,0,0,0-.067,1.383v12.532a3.081,3.081,0,0,0,.237,1.268,3.033,3.033,0,0,0,1.856,1.68,3.761,3.761,0,0,0,1.286.133h19.41l35.181.03,23.717.055h6.448l-6.448.03-23.717.049-35.181.036h-19.41a4.137,4.137,0,0,1-1.377-.146,3.354,3.354,0,0,1-2.05-1.856,3.415,3.415,0,0,1-.267-1.389V230.628a7.375,7.375,0,0,1,.073-1.45,3.312,3.312,0,0,1,3.233-2.608l78.248.049h8.807a3.8,3.8,0,0,1,1.626.261,3.269,3.269,0,0,1,1.868,2.378,8.745,8.745,0,0,1,.055,1.48V243.2a3.172,3.172,0,0,1-1.11,2.426,3.1,3.1,0,0,1-1.51.716,2.627,2.627,0,0,1-.425.036Z" transform="translate(-189.359 -117.453)" fill="#e0e0e0"/>
      <path id="Path_7003" data-name="Path 7003" d="M257.191,250.128c0,.091-6.715.158-14.995.158s-15.007-.067-15.007-.158,6.715-.158,15.007-.158S257.191,250.043,257.191,250.128Z" transform="translate(-200.191 -126.659)" fill="#e0e0e0"/>
      <path id="Path_7004" data-name="Path 7004" d="M334.433,242.2a.115.115,0,0,1-.03.079l-.946.983a.115.115,0,0,1-.158,0l-.928-.958a.109.109,0,0,1,.158-.152l.849.88.873-.88a.111.111,0,0,1,.182.049Z" transform="translate(-241.56 -123.569)" fill="#e0e0e0"/>
      <path id="Path_7019" data-name="Path 7019" d="M214.553,277.817a4.551,4.551,0,0,0-.14-.607,2.553,2.553,0,0,0-.952-1.353,2.426,2.426,0,1,0,0,3.943,2.6,2.6,0,0,0,.952-1.353c.115-.388.109-.607.14-.607a1.377,1.377,0,0,1,0,.649,2.584,2.584,0,0,1-.934,1.5,2.687,2.687,0,0,1-2.566.425,2.73,2.73,0,0,1,0-5.144,2.687,2.687,0,0,1,2.566.425,2.566,2.566,0,0,1,.934,1.5A1.377,1.377,0,0,1,214.553,277.817Z" transform="translate(-193.128 -136.552)" fill="#e0e0e0"/>
      <path id="Path_7020" data-name="Path 7020" d="M290.348,283.989a4.851,4.851,0,0,0,.564-.067,3.142,3.142,0,0,0,2.535-3.112V268.345a9.545,9.545,0,0,0-.055-1.444,3.075,3.075,0,0,0-1.82-2.244,3.548,3.548,0,0,0-1.547-.237h-8.807l-78.248.048a2.96,2.96,0,0,0-2.354,1.146,3.033,3.033,0,0,0-.57,1.213,6.831,6.831,0,0,0-.067,1.377v12.532a3.13,3.13,0,0,0,.237,1.274,3.033,3.033,0,0,0,1.856,1.68,3.919,3.919,0,0,0,1.286.133h19.41l35.181.036,23.717.049,6.448.03h-6.448l-23.717.049H203.359a4.142,4.142,0,0,1-1.377-.152,3.33,3.33,0,0,1-2.05-1.85,3.445,3.445,0,0,1-.267-1.4V268.218a7.339,7.339,0,0,1,.073-1.444,3.324,3.324,0,0,1,3.233-2.614l78.248.049h8.807a3.809,3.809,0,0,1,1.626.267,3.245,3.245,0,0,1,1.9,2.384,8.679,8.679,0,0,1,.055,1.474V280.8a3.2,3.2,0,0,1-1.11,2.426,3.082,3.082,0,0,1-1.51.71,2.8,2.8,0,0,1-.425.042Z" transform="translate(-189.359 -132.242)" fill="#e0e0e0"/>
      <path id="Path_7021" data-name="Path 7021" d="M257.191,287.728c0,.085-6.715.158-14.995.158s-15.007-.073-15.007-.158,6.715-.158,15.007-.158S257.191,287.643,257.191,287.728Z" transform="translate(-200.191 -141.452)" fill="#e0e0e0"/>
      <path id="Path_7022" data-name="Path 7022" d="M334.424,279.781a.128.128,0,0,1-.03.079l-.946.952a.1.1,0,0,1-.158,0l-.928-.94a.109.109,0,1,1,.158-.146l.849.88.873-.88a.109.109,0,0,1,.152,0A.127.127,0,0,1,334.424,279.781Z" transform="translate(-241.551 -138.346)" fill="#e0e0e0"/>
      <path id="Path_7030" data-name="Path 7030" d="M214.55,315.407a4.553,4.553,0,0,0-.14-.607,2.554,2.554,0,0,0-.952-1.353,2.426,2.426,0,1,0,0,3.937,2.554,2.554,0,0,0,.952-1.353c.115-.388.109-.607.14-.607a1.389,1.389,0,0,1,0,.649,2.6,2.6,0,0,1-.934,1.5,2.721,2.721,0,1,1,0-4.3,2.6,2.6,0,0,1,.934,1.5A1.346,1.346,0,0,1,214.55,315.407Z" transform="translate(-193.126 -151.341)" fill="#e0e0e0"/>
      <path id="Path_7031" data-name="Path 7031" d="M290.348,321.589a3.567,3.567,0,0,0,.564-.067,3.142,3.142,0,0,0,2.536-3.118c0-1.08,0-2.323,0-3.718v-8.741a9.621,9.621,0,0,0-.055-1.45,3.033,3.033,0,0,0-1.82-2.238,3.548,3.548,0,0,0-1.547-.243h-8.807l-78.248.042a3.033,3.033,0,0,0-2.924,2.36,6.89,6.89,0,0,0-.067,1.383v12.532a3.082,3.082,0,0,0,.237,1.268,3.033,3.033,0,0,0,1.856,1.68,3.918,3.918,0,0,0,1.286.139h19.41l35.181.036,23.717.048h6.448l-6.448.03-23.717.048-35.181.036h-19.41a4.137,4.137,0,0,1-1.377-.146,3.366,3.366,0,0,1-2.05-1.82,3.463,3.463,0,0,1-.267-1.4V305.818a7.375,7.375,0,0,1,.073-1.45,3.288,3.288,0,0,1,.607-1.341,3.336,3.336,0,0,1,2.6-1.268l78.248.049H290a3.8,3.8,0,0,1,1.626.261,3.269,3.269,0,0,1,1.9,2.384,8.748,8.748,0,0,1,.055,1.48v12.477a3.2,3.2,0,0,1-1.11,2.426,3.081,3.081,0,0,1-1.51.71,2.075,2.075,0,0,1-.425.036Z" transform="translate(-189.359 -147.034)" fill="#e0e0e0"/>
      <path id="Path_7032" data-name="Path 7032" d="M257.191,325.328c0,.085-6.715.158-14.995.158s-15.007-.073-15.007-.158,6.715-.158,15.007-.158S257.191,325.237,257.191,325.328Z" transform="translate(-200.191 -156.244)" fill="#e0e0e0"/>
      <path id="Path_7033" data-name="Path 7033" d="M334.433,317.377a.109.109,0,0,1-.03.073l-.946.958a.115.115,0,0,1-.158,0l-.928-.958a.109.109,0,0,1,.158-.152l.849.88.873-.88a.109.109,0,0,1,.152,0A.115.115,0,0,1,334.433,317.377Z" transform="translate(-241.56 -153.134)" fill="#e0e0e0"/>
      <circle id="Ellipse_94" data-name="Ellipse 94" cx="12.593" cy="12.593" r="12.593" transform="matrix(0.161, -0.987, 0.987, 0.161, 72.528, 209.533)" fill="#34ac97"/>
      <path id="Path_7034" data-name="Path 7034" d="M325.883,376.222a.3.3,0,0,1-.3-.3v-6.575a.3.3,0,1,1,.607,0v6.575A.3.3,0,0,1,325.883,376.222Z" transform="translate(-238.9 -173.504)" fill="#fff"/>
      <path id="Path_7035" data-name="Path 7035" d="M327.039,375.067h-6.575a.3.3,0,1,1,0-.607h6.575a.3.3,0,0,1,0,.607Z" transform="translate(-236.768 -175.636)" fill="#fff"/>
      <path id="Path_7036" data-name="Path 7036" d="M333.3,133.851l-.061,1.462,1.45-.194,3.367-3.33L336.7,130.43Z" transform="translate(-241.914 -79.629)" fill="#34ac97"/>
      <path id="Path_7037" data-name="Path 7037" d="M339.26,129.868l1.316,1.322.2-.194a.843.843,0,0,0,0-1.213l-.14-.133a.831.831,0,0,0-1.213,0Z" transform="translate(-244.282 -79.219)" fill="#34ac97"/>
    </g>
  </g>
</svg>
