<svg xmlns="http://www.w3.org/2000/svg" width="268.035" height="236.567" viewBox="0 0 268.035 236.567">
  <g id="For_sale-pana" data-name="For sale-pana" transform="translate(-31.41 -57.21)">
    <g id="freepik--Floor--inject-111" transform="translate(31.41 284.534)">
      <path id="Path_6317" data-name="Path 6317" d="M299.445,439.415c0,.083-60.007.155-134.009.155S31.41,439.5,31.41,439.415s60-.155,134.026-.155S299.445,439.325,299.445,439.415Z" transform="translate(-31.41 -439.26)" fill="#263238"/>
    </g>
    <g id="freepik--House--inject-111" transform="translate(134.627 57.21)">
      <path id="Path_6318" data-name="Path 6318" d="M223.37,117.849V227.093H346.234V117.849H332.941L306.035,84.13l-22.694,33.392Z" transform="translate(-212.368 -68.112)" fill="#34ac97"/>
      <g id="Group_187" data-name="Group 187" transform="translate(11.002 16.018)" opacity="0.5">
        <path id="Path_6319" data-name="Path 6319" d="M223.37,117.849V227.093H346.234V117.849H332.941L306.035,84.13l-22.694,33.392Z" transform="translate(-223.37 -84.13)" fill="#fff"/>
      </g>
      <path id="Path_6320" data-name="Path 6320" d="M240.17,72.626c-.6.809-35.29,41.74-35.29,41.74h70.176l23.491-35.3,26.906,33.719,24.61-.03L320.021,71.62Z" transform="translate(-204.88 -63.046)" fill="#263238"/>
      <rect id="Rectangle_545" data-name="Rectangle 545" width="29.114" height="4.534" transform="translate(29.489 154.453)" fill="#e6e6e6"/>
      <rect id="Rectangle_546" data-name="Rectangle 546" width="38.848" height="3.517" transform="translate(22.783 161.236)" fill="#e6e6e6"/>
      <path id="Path_6321" data-name="Path 6321" d="M257.69,242.97l.238,43.68h25.008V242.97Z" transform="translate(-226.267 -132.441)" fill="#34ac97"/>
      <g id="Group_188" data-name="Group 188" transform="translate(31.423 110.529)" opacity="0.2">
        <path id="Path_6322" data-name="Path 6322" d="M257.69,242.97l.238,43.68h25.008V242.97Z" transform="translate(-257.69 -242.97)"/>
      </g>
      <g id="Group_189" data-name="Group 189" transform="translate(49.963 131.271)" opacity="0.4">
        <circle id="Ellipse_82" data-name="Ellipse 82" cx="1.101" cy="1.101" r="1.101"/>
      </g>
      <path id="Path_6323" data-name="Path 6323" d="M263.353,217.76,240.29,236.771v5.26l23.265-18.9L284.862,240.6V235.1Z" transform="translate(-219.221 -122.231)" fill="#263238"/>
      <rect id="Rectangle_547" data-name="Rectangle 547" width="5.391" height="7.467" transform="translate(51.242 3.933)" fill="#34ac97"/>
      <rect id="Rectangle_548" data-name="Rectangle 548" width="5.682" height="11.4" transform="translate(60.275)" fill="#34ac97"/>
      <g id="Group_190" data-name="Group 190" transform="translate(51.242)" opacity="0.4">
        <rect id="Rectangle_549" data-name="Rectangle 549" width="5.391" height="7.467" transform="translate(0 3.933)"/>
        <rect id="Rectangle_550" data-name="Rectangle 550" width="5.682" height="11.4" transform="translate(9.032)"/>
      </g>
      <rect id="Rectangle_551" data-name="Rectangle 551" width="6.355" height="6.355" transform="translate(91.346 33.577)" fill="#fff"/>
      <g id="Group_191" data-name="Group 191" transform="translate(70.176 16.018)" opacity="0.1">
        <path id="Path_6324" data-name="Path 6324" d="M322.82,119.432h3.386L348.435,86.8l-2.124-2.666Z" transform="translate(-322.82 -84.13)"/>
      </g>
      <g id="Group_192" data-name="Group 192" transform="translate(11.002 51.32)" opacity="0.1">
        <path id="Path_6325" data-name="Path 6325" d="M223.37,143.46v3.528l59.174-3.528Z" transform="translate(-223.37 -143.46)"/>
      </g>
      <g id="Group_193" data-name="Group 193" transform="translate(120.573 49.737)" opacity="0.1">
        <path id="Path_6326" data-name="Path 6326" d="M407.52,140.8l13.293,4.409V140.8Z" transform="translate(-407.52 -140.8)"/>
      </g>
      <rect id="Rectangle_552" data-name="Rectangle 552" width="33.838" height="4.397" transform="translate(26.436 157.244)" fill="#e6e6e6"/>
      <path id="Path_6327" data-name="Path 6327" d="M282.444,321.475c0,.083-7.319.155-16.345.155s-16.339-.071-16.339-.155,7.313-.155,16.339-.155S282.444,321.385,282.444,321.475Z" transform="translate(-223.056 -164.171)" fill="#e0e0e0"/>
      <path id="Path_6328" data-name="Path 6328" d="M282.444,328.085c0,.083-7.319.155-16.345.155s-16.339-.071-16.339-.155,7.313-.155,16.339-.155S282.444,327.972,282.444,328.085Z" transform="translate(-223.056 -166.848)" fill="#e0e0e0"/>
      <rect id="Rectangle_553" data-name="Rectangle 553" width="28.198" height="26.787" transform="translate(29.489 57.371)" fill="#fff"/>
      <path id="Path_6329" data-name="Path 6329" d="M267.189,153.63s-8,13.632-12.376,13.751c0,0,4.058,2.071,4.367,13.037h-4.76V153.642Z" transform="translate(-224.943 -96.259)" fill="#34ac97"/>
      <path id="Path_6330" data-name="Path 6330" d="M280.39,153.63s7.991,13.632,12.376,13.751c0,0-4.064,2.071-4.367,13.037h4.76V153.642Z" transform="translate(-235.461 -96.259)" fill="#34ac97"/>
      <rect id="Rectangle_554" data-name="Rectangle 554" width="0.893" height="28.572" transform="translate(42.912 57.133)" fill="#263238"/>
      <rect id="Rectangle_555" data-name="Rectangle 555" width="0.893" height="28.572" transform="translate(29.072 71.866) rotate(-90)" fill="#263238"/>
      <rect id="Rectangle_556" data-name="Rectangle 556" width="31.494" height="0.666" transform="translate(27.609 84.158)" fill="#263238"/>
      <rect id="Rectangle_557" data-name="Rectangle 557" width="28.198" height="26.787" transform="translate(88.359 57.371)" fill="#fff"/>
      <path id="Path_6331" data-name="Path 6331" d="M366.129,153.63s-7.991,13.632-12.376,13.751c0,0,4.064,2.071,4.367,13.037h-4.76V153.642Z" transform="translate(-265.013 -96.259)" fill="#34ac97"/>
      <path id="Path_6332" data-name="Path 6332" d="M379.33,153.63s7.991,13.632,12.376,13.751c0,0-4.058,2.071-4.367,13.037h4.76V153.642Z" transform="translate(-275.53 -96.259)" fill="#34ac97"/>
      <rect id="Rectangle_558" data-name="Rectangle 558" width="0.893" height="28.572" transform="translate(101.783 57.133)" fill="#263238"/>
      <rect id="Rectangle_559" data-name="Rectangle 559" width="0.893" height="28.572" transform="translate(87.943 71.866) rotate(-90)" fill="#263238"/>
      <rect id="Rectangle_560" data-name="Rectangle 560" width="31.494" height="0.666" transform="translate(86.485 84.158)" fill="#263238"/>
      <rect id="Rectangle_561" data-name="Rectangle 561" width="28.198" height="26.787" transform="translate(88.359 113.939)" fill="#fff"/>
      <path id="Path_6333" data-name="Path 6333" d="M366.129,248.7s-7.991,13.638-12.376,13.757c0,0,4.064,2.071,4.367,13.031h-4.76V248.712Z" transform="translate(-265.013 -134.761)" fill="#34ac97"/>
      <path id="Path_6334" data-name="Path 6334" d="M379.33,248.7s7.991,13.638,12.376,13.757c0,0-4.058,2.071-4.367,13.031h4.76V248.712Z" transform="translate(-275.53 -134.761)" fill="#34ac97"/>
      <rect id="Rectangle_562" data-name="Rectangle 562" width="0.893" height="28.572" transform="translate(101.783 113.701)" fill="#263238"/>
      <rect id="Rectangle_563" data-name="Rectangle 563" width="0.893" height="28.572" transform="translate(87.943 128.439) rotate(-90)" fill="#263238"/>
      <rect id="Rectangle_564" data-name="Rectangle 564" width="31.494" height="0.666" transform="translate(86.485 140.726)" fill="#263238"/>
    </g>
    <g id="freepik--Sign--inject-111" transform="translate(148.485 194.818)">
      <path id="Path_6335" data-name="Path 6335" d="M228.17,288.48v89.442h7.676V294.49h58.4v-6.01Z" transform="translate(-228.17 -288.48)" fill="#455a64"/>
      <rect id="Rectangle_565" data-name="Rectangle 565" width="2.481" height="83.433" transform="translate(5.194 6.01)" fill="#263238"/>
      <rect id="Rectangle_566" data-name="Rectangle 566" width="4.671" height="6.01" transform="translate(61.405)" fill="#263238"/>
      <rect id="Rectangle_567" data-name="Rectangle 567" width="56.348" height="35.534" transform="translate(11.103 10.389)" fill="#34ac97"/>
      <rect id="Rectangle_568" data-name="Rectangle 568" width="56.348" height="35.534" transform="translate(11.103 10.389)" fill="#34ac97"/>
      <rect id="Rectangle_569" data-name="Rectangle 569" width="3.112" height="35.534" transform="translate(64.345 10.389)" fill="#34ac97"/>
      <g id="Group_194" data-name="Group 194" transform="translate(64.345 10.389)" opacity="0.2">
        <rect id="Rectangle_570" data-name="Rectangle 570" width="3.112" height="35.534"/>
      </g>
      <path id="Path_6336" data-name="Path 6336" d="M299.283,340.325v-2.094c0-1.368,0-3.362-.03-5.914,0-5.111-.036-12.454-.065-21.42l.125.119-47.006.036h0l.155-.155v29.441l-.143-.143,33.8.065,9.693.042h.06l-9.669.042-33.916.071h-.143V310.67h.161l47.006.036h.119v.161c0,9.008-.048,16.381-.059,21.51,0,2.541,0,4.522-.036,5.885v1.529C299.289,340.153,299.283,340.325,299.283,340.325Z" transform="translate(-237.878 -297.467)" fill="#263238"/>
      <rect id="Rectangle_571" data-name="Rectangle 571" width="1.672" height="4.379" transform="translate(20.314 6.01)" fill="#34ac97"/>
      <rect id="Rectangle_572" data-name="Rectangle 572" width="1.672" height="4.379" transform="translate(47.833 6.01)" fill="#34ac97"/>
      <path id="Path_6337" data-name="Path 6337" d="M276.5,322.086v1.868h3.743v1.856H276.5v2.9h-2.38V320.23h6.652v1.856Z" transform="translate(-246.779 -301.338)" fill="#34ac97"/>
      <path id="Path_6338" data-name="Path 6338" d="M276.5,322.086v1.868h3.743v1.856H276.5v2.9h-2.38V320.23h6.652v1.856Z" transform="translate(-246.779 -301.338)" opacity="0.2"/>
      <path id="Path_6339" data-name="Path 6339" d="M286.31,324.359a4.726,4.726,0,1,1,4.712,4.415A4.436,4.436,0,0,1,286.31,324.359Zm7,0a2.3,2.3,0,1,0-2.291,2.428,2.273,2.273,0,0,0,2.291-2.428Z" transform="translate(-251.716 -301.225)" fill="#34ac97"/>
      <path id="Path_6340" data-name="Path 6340" d="M286.31,324.359a4.726,4.726,0,1,1,4.712,4.415A4.436,4.436,0,0,1,286.31,324.359Zm7,0a2.3,2.3,0,1,0-2.291,2.428,2.273,2.273,0,0,0,2.291-2.428Z" transform="translate(-251.716 -301.225)" opacity="0.2"/>
      <path id="Path_6341" data-name="Path 6341" d="M308,326.46H306.69v2.255h-2.38V320.23h3.879c2.315,0,3.766,1.19,3.766,3.142a2.809,2.809,0,0,1-1.66,2.678l1.833,2.666H309.54Zm0-4.338h-1.333v2.487H308c.994,0,1.493-.464,1.493-1.238s-.476-1.25-1.47-1.25Z" transform="translate(-259.006 -301.338)" fill="#34ac97"/>
      <path id="Path_6342" data-name="Path 6342" d="M308,326.46H306.69v2.255h-2.38V320.23h3.879c2.315,0,3.766,1.19,3.766,3.142a2.809,2.809,0,0,1-1.66,2.678l1.833,2.666H309.54Zm0-4.338h-1.333v2.487H308c.994,0,1.493-.464,1.493-1.238s-.476-1.25-1.47-1.25Z" transform="translate(-259.006 -301.338)" opacity="0.2"/>
      <path id="Path_6343" data-name="Path 6343" d="M266.78,347.846l.827-1.856a5.569,5.569,0,0,0,2.933.875c1.041,0,1.452-.292,1.452-.72,0-1.41-5.064-.381-5.064-3.689,0-1.589,1.3-2.886,3.945-2.886a6.617,6.617,0,0,1,3.225.779l-.774,1.868a5.253,5.253,0,0,0-2.469-.69c-1.053,0-1.434.357-1.434.8,0,1.357,5.046.345,5.046,3.624,0,1.547-1.3,2.868-3.939,2.868A7.015,7.015,0,0,1,266.78,347.846Z" transform="translate(-243.807 -309.17)" fill="#34ac97"/>
      <path id="Path_6345" data-name="Path 6345" d="M286.883,347.024h-3.766l-.7,1.732h-2.57l3.927-8.925h2.481l3.939,8.925h-2.618Zm-.738-1.856L285,342.311l-1.142,2.844Z" transform="translate(-249.1 -309.276)" fill="#34ac97"/>
      <path id="Path_6347" data-name="Path 6347" d="M298.44,339.87h2.517v6.9h4.248v2H298.44Z" transform="translate(-256.629 -309.292)" fill="#34ac97"/>
      <path id="Path_6349" data-name="Path 6349" d="M318.62,346.809v1.946h-7.14V339.83h6.974v1.946h-4.486v1.5h3.951v1.88h-3.951v1.63Z" transform="translate(-261.91 -309.276)" fill="#34ac97"/>
      <path id="Path_6351" data-name="Path 6351" d="M327.708,314.2c-.03,0-.036-.113-.1-.292a1.22,1.22,0,0,0-.458-.6,1.119,1.119,0,0,0-1.059-.131,1.1,1.1,0,0,0-.708,1.029,1.113,1.113,0,0,0,.708,1.029,1.155,1.155,0,0,0,1.059-.131,1.256,1.256,0,0,0,.458-.6c.065-.178.071-.286.1-.286s.048.107,0,.315a1.226,1.226,0,0,1-.446.756,1.344,1.344,0,0,1-1.285.226,1.38,1.38,0,0,1,0-2.6,1.345,1.345,0,0,1,1.285.226,1.226,1.226,0,0,1,.446.756A.393.393,0,0,1,327.708,314.2Z" transform="translate(-267.409 -298.352)" fill="#263238"/>
      <path id="Path_6352" data-name="Path 6352" d="M327.722,313.864c.06.059-.161.393-.5.75s-.655.6-.72.541.161-.393.5-.75S327.657,313.8,327.722,313.864Z" transform="translate(-267.989 -298.757)" fill="#263238"/>
      <path id="Path_6353" data-name="Path 6353" d="M327.819,315.115c0,.077-.458,0-.869-.369s-.6-.732-.53-.779.351.232.726.541S327.855,315.031,327.819,315.115Z" transform="translate(-267.955 -298.8)" fill="#263238"/>
      <path id="Path_6354" data-name="Path 6354" d="M326.921,356.352s-.036-.113-.1-.292a1.255,1.255,0,0,0-.458-.6,1.125,1.125,0,0,0-1.059-.131,1.1,1.1,0,0,0-.708,1.029,1.113,1.113,0,0,0,.69,1.011,1.154,1.154,0,0,0,1.059-.131,1.3,1.3,0,0,0,.458-.595c.06-.179.071-.286.1-.286s.054.107,0,.315a1.244,1.244,0,0,1-.44.756,1.351,1.351,0,0,1-1.285.226,1.374,1.374,0,0,1,0-2.6,1.351,1.351,0,0,1,1.285.226,1.244,1.244,0,0,1,.44.756C326.975,356.238,326.939,356.352,326.921,356.352Z" transform="translate(-267.081 -315.415)" fill="#263238"/>
      <path id="Path_6355" data-name="Path 6355" d="M326.956,356c.065.06-.155.393-.494.75s-.655.6-.72.541.161-.393.494-.75S326.9,355.955,326.956,356Z" transform="translate(-267.681 -315.821)" fill="#263238"/>
      <path id="Path_6356" data-name="Path 6356" d="M327.04,357.275c0,.077-.458-.03-.869-.369s-.6-.732-.53-.779.351.232.726.541S327.087,357.191,327.04,357.275Z" transform="translate(-267.639 -315.874)" fill="#263238"/>
      <path id="Path_6357" data-name="Path 6357" d="M256.912,355.339s-.036-.107-.1-.286a1.256,1.256,0,0,0-.458-.6,1.154,1.154,0,0,0-1.059-.131,1.119,1.119,0,0,0-.708,1.029,1.107,1.107,0,0,0,.714,1.017,1.119,1.119,0,0,0,1.059-.131,1.219,1.219,0,0,0,.458-.6c.065-.178.071-.292.1-.292s.048.113,0,.321a1.225,1.225,0,0,1-.446.756,1.345,1.345,0,0,1-1.285.226,1.38,1.38,0,0,1,0-2.6,1.345,1.345,0,0,1,1.285.226,1.225,1.225,0,0,1,.446.756C256.959,355.232,256.924,355.345,256.912,355.339Z" transform="translate(-238.74 -315.009)" fill="#263238"/>
      <path id="Path_6358" data-name="Path 6358" d="M256.922,355c.059.054-.161.393-.494.75s-.66.6-.726.541.161-.4.5-.756S256.857,354.948,256.922,355Z" transform="translate(-239.316 -315.416)" fill="#263238"/>
      <path id="Path_6359" data-name="Path 6359" d="M257.039,356.265c-.03.077-.458-.036-.869-.369s-.6-.738-.53-.779.351.232.726.536S257.039,356.182,257.039,356.265Z" transform="translate(-239.29 -315.466)" fill="#263238"/>
      <path id="Path_6360" data-name="Path 6360" d="M257.278,315.027c-.03,0-.036-.107-.1-.286a1.255,1.255,0,0,0-.458-.595,1.154,1.154,0,0,0-1.059-.131,1.113,1.113,0,0,0-.708,1.029,1.1,1.1,0,0,0,.708,1.029,1.118,1.118,0,0,0,1.059-.131,1.22,1.22,0,0,0,.458-.6c.065-.178.071-.292.1-.292s.048.113,0,.321a1.226,1.226,0,0,1-.446.756,1.345,1.345,0,0,1-1.285.226,1.38,1.38,0,0,1,0-2.6,1.345,1.345,0,0,1,1.285.226,1.226,1.226,0,0,1,.446.756C257.325,314.92,257.29,315.027,257.278,315.027Z" transform="translate(-238.886 -298.688)" fill="#263238"/>
      <path id="Path_6361" data-name="Path 6361" d="M257.292,314.694c.06.054-.161.393-.5.75s-.655.6-.72.542.161-.4.5-.756S257.215,314.634,257.292,314.694Z" transform="translate(-239.466 -299.093)" fill="#263238"/>
      <path id="Path_6362" data-name="Path 6362" d="M257.389,315.945c-.03.077-.458-.036-.869-.369s-.6-.738-.53-.779.351.232.726.536S257.425,315.862,257.389,315.945Z" transform="translate(-239.432 -299.136)" fill="#263238"/>
      <path id="Path_6363" data-name="Path 6363" d="M272.49,322.086v1.868h3.743v1.856H272.49v2.9h-2.38V320.23h6.658v1.856Z" transform="translate(-245.155 -301.338)" fill="#fafafa"/>
      <path id="Path_6364" data-name="Path 6364" d="M282.3,324.359a4.723,4.723,0,1,1,4.713,4.415A4.436,4.436,0,0,1,282.3,324.359Zm7,0a2.3,2.3,0,1,0-2.291,2.428,2.273,2.273,0,0,0,2.291-2.428Z" transform="translate(-250.092 -301.225)" fill="#fafafa"/>
      <path id="Path_6365" data-name="Path 6365" d="M303.989,326.46H302.68v2.255H300.3V320.23h3.879c2.315,0,3.772,1.19,3.772,3.142a2.809,2.809,0,0,1-1.66,2.678l1.827,2.666h-2.57Zm0-4.338H302.68v2.487h1.333c.994,0,1.488-.464,1.488-1.238s-.494-1.25-1.488-1.25Z" transform="translate(-257.382 -301.338)" fill="#fafafa"/>
      <text id="RENT" transform="translate(37.307 37.699)" fill="#fff" font-size="10" font-family="Georgia"><tspan x="-13.704" y="0">RENT</tspan></text>
    </g>
    <g id="freepik--Plants--inject-111" transform="translate(216.952 222.179)">
      <path id="Path_6370" data-name="Path 6370" d="M373.293,383.371c-3.57-1.922-5-4.635-5.849-8.6a14.239,14.239,0,0,1,2.636-11.49c2.077-2.672,5.123-4.623,6.545-7.688,1.511-3.273.964-7.432,3.267-10.2,1.583-1.9,4.129-2.66,6.158-4.082a44.776,44.776,0,0,0,4.409-4.165,8.513,8.513,0,0,1,5.3-2.678c3.046-.119,5.736,2.576,6.23,5.581a10.194,10.194,0,0,1-2.945,8.33c-1.505,1.612-3.445,2.939-4.32,4.968-1.648,3.814,1.077,8.526-.732,12.263-1.321,2.731-4.843,4.367-5,7.4a20.237,20.237,0,0,0,.494,3.3c.375,3.469-2.541,6.634-5.879,7.64s-6.944.339-10.306-.6" transform="translate(-352.925 -334.464)" fill="#34ac97"/>
      <path id="Path_6371" data-name="Path 6371" d="M395.5,356.24a2.377,2.377,0,0,1-.315.446l-.97,1.232c-.428.524-.946,1.19-1.5,1.964s-1.238,1.648-1.874,2.678c-.333.506-.684,1.035-1.041,1.589s-.69,1.19-1.059,1.785c-.744,1.19-1.422,2.576-2.166,3.992a66.961,66.961,0,0,0-6.3,19.772c-.214,1.589-.446,3.094-.536,4.516-.054.708-.131,1.392-.161,2.053s-.042,1.3-.065,1.9c-.071,1.19,0,2.309,0,3.267s.042,1.785.1,2.469.06,1.19.083,1.565a3.234,3.234,0,0,1,0,.547,2.49,2.49,0,0,1-.083-.541c-.042-.4-.1-.916-.161-1.559s-.149-1.505-.167-2.469-.1-2.071-.054-3.284c0-.6.03-1.25.042-1.91s.089-1.357.137-2.071c.077-1.428.3-2.945.5-4.546a65.248,65.248,0,0,1,6.319-19.9c.756-1.422,1.452-2.785,2.213-4,.375-.6.714-1.19,1.083-1.785l1.071-1.583c.66-1.023,1.357-1.88,1.934-2.654s1.107-1.416,1.559-1.928l1.029-1.19A2.38,2.38,0,0,1,395.5,356.24Z" transform="translate(-357.809 -343.283)" fill="#263238"/>
      <path id="Path_6372" data-name="Path 6372" d="M350.1,394.79a5.355,5.355,0,0,1,3.7,1.934,9.372,9.372,0,0,1,1.856,3.826,16.577,16.577,0,0,1-.559,8.473c-2.886-1.053-4.641-4.165-5.432-5.784-1.255-2.576-1.952-7.985.44-8.449" transform="translate(-345.373 -358.895)" fill="#34ac97"/>
      <path id="Path_6373" data-name="Path 6373" d="M366.039,419.027a4.522,4.522,0,0,1-.173-4.558,6,6,0,0,1,3.653-2.892,2.559,2.559,0,0,1,2.142.119,1.946,1.946,0,0,1,.732,1.845,3.921,3.921,0,0,1-.851,1.862c-1.422,1.892-3.148,3.463-5.5,3.641" transform="translate(-352.187 -365.621)" fill="#34ac97"/>
      <g id="Group_195" data-name="Group 195" transform="translate(3.136 35.895)" opacity="0.2">
        <path id="Path_6374" data-name="Path 6374" d="M350.1,394.79a5.355,5.355,0,0,1,3.7,1.934,9.372,9.372,0,0,1,1.856,3.826,16.577,16.577,0,0,1-.559,8.473c-2.886-1.053-4.641-4.165-5.432-5.784-1.255-2.576-1.952-7.985.44-8.449" transform="translate(-348.508 -394.79)"/>
      </g>
      <g id="Group_196" data-name="Group 196" transform="translate(13.146 45.777)" opacity="0.2">
        <path id="Path_6375" data-name="Path 6375" d="M366.039,419.027a4.522,4.522,0,0,1-.173-4.558,6,6,0,0,1,3.653-2.892,2.559,2.559,0,0,1,2.142.119,1.946,1.946,0,0,1,.732,1.845,3.921,3.921,0,0,1-.851,1.862c-1.422,1.892-3.148,3.463-5.5,3.641" transform="translate(-365.333 -411.398)"/>
      </g>
      <g id="Group_197" data-name="Group 197" transform="translate(0 51.401)" opacity="0.2">
        <path id="Path_6376" data-name="Path 6376" d="M354.087,425.479a10.627,10.627,0,0,0-8.533-4.629c-.857,0-1.874.19-2.213.982s.226,1.666.845,2.261a9.086,9.086,0,0,0,9.949,1.607" transform="translate(-343.239 -420.85)"/>
      </g>
      <path id="Path_6377" data-name="Path 6377" d="M354.087,425.479a10.627,10.627,0,0,0-8.533-4.629c-.857,0-1.874.19-2.213.982s.226,1.666.845,2.261a9.086,9.086,0,0,0,9.949,1.607" transform="translate(-343.239 -369.449)" fill="#34ac97"/>
      <path id="Path_6378" data-name="Path 6378" d="M366.116,430.4a1.911,1.911,0,0,1-.143-.559c-.071-.369-.167-.9-.262-1.559a19.483,19.483,0,0,1-.131-5.224,9.722,9.722,0,0,1,1.987-4.826,6.211,6.211,0,0,1,1.136-1.113,1.986,1.986,0,0,1,.494-.309,13.4,13.4,0,0,0-1.458,1.553,10.251,10.251,0,0,0-1.827,4.76,22.711,22.711,0,0,0,.048,5.153A18.691,18.691,0,0,1,366.116,430.4Z" transform="translate(-352.24 -367.813)" fill="#263238"/>
      <path id="Path_6379" data-name="Path 6379" d="M352.69,401.64a6.418,6.418,0,0,1,.422.857c.262.559.6,1.38,1.047,2.38.863,2.029,2.011,4.849,3.2,7.991s2.2,6.021,2.886,8.116c.351,1.041.6,1.892.8,2.481a6.252,6.252,0,0,1,.25.928,5.281,5.281,0,0,1-.363-.887c-.226-.631-.53-1.458-.893-2.451-.744-2.077-1.785-4.933-2.975-8.074s-2.3-5.95-3.112-8.021L353,402.533A5.54,5.54,0,0,1,352.69,401.64Z" transform="translate(-347.066 -361.669)" fill="#263238"/>
      <path id="Path_6380" data-name="Path 6380" d="M349.61,424.367a1.968,1.968,0,0,1,.553,0,4.293,4.293,0,0,1,.649.077,7.308,7.308,0,0,1,.851.178,11.633,11.633,0,0,1,2.118.768,12.945,12.945,0,0,1,2.333,1.488,12.5,12.5,0,0,1,1.928,1.981,10.776,10.776,0,0,1,1.19,1.916,6.971,6.971,0,0,1,.345.791,4.856,4.856,0,0,1,.214.6,1.839,1.839,0,0,1,.119.547c-.054,0-.274-.744-.869-1.856a12.89,12.89,0,0,0-1.19-1.845,14.082,14.082,0,0,0-1.9-1.916,14.278,14.278,0,0,0-2.261-1.47,13.046,13.046,0,0,0-2.053-.815C350.389,424.486,349.6,424.426,349.61,424.367Z" transform="translate(-345.819 -370.865)" fill="#263238"/>
    </g>
    <g id="freepik--Character--inject-111" transform="translate(69.265 114.032)">
      <path id="Path_6381" data-name="Path 6381" d="M120.921,436.44l-.149,1.315s-3.469,8.14-2.826,8.753a2.975,2.975,0,0,0,3.326.518c1.535-.637,7.319-8.027,7.319-8.027l.232-1.083Z" transform="translate(-104.279 -267.616)" fill="#34ac97"/>
      <path id="Path_6382" data-name="Path 6382" d="M118.163,446.121s1.845-1.19,3.386,1.19a14.7,14.7,0,0,0,2.874-2.82c2.065-2.368,4.052-4.671,4.052-4.671s.214-.232.173,0-.089.565-.089.565l-3.951,4.76a23.912,23.912,0,0,1-3.035,3.088,3.082,3.082,0,0,1-2.255.387,2.475,2.475,0,0,1-1.488-.928C117.812,447.555,118.163,446.121,118.163,446.121Z" transform="translate(-104.264 -268.943)" fill="#f0f0f0"/>
      <path id="Path_6383" data-name="Path 6383" d="M122.207,452.224a3.778,3.778,0,0,0-3.737-2.243,1.577,1.577,0,0,1,.7-.1,3.225,3.225,0,0,1,1.624.47,3.315,3.315,0,0,1,1.19,1.19A1.434,1.434,0,0,1,122.207,452.224Z" transform="translate(-104.524 -273.059)" fill="#263238"/>
      <path id="Path_6384" data-name="Path 6384" d="M128.844,439.25a4.578,4.578,0,0,1-.357.464l-1,1.226-3.445,3.993a17.139,17.139,0,0,1-2.017,2.106,3.79,3.79,0,0,1-2.2.9,2.332,2.332,0,0,1-1.523-.5,1.357,1.357,0,0,1-.381-.452,3.988,3.988,0,0,0,.428.393,2.3,2.3,0,0,0,1.47.428,3.707,3.707,0,0,0,2.1-.9,17.752,17.752,0,0,0,1.987-2.089l3.481-3.963,1.071-1.19A3.039,3.039,0,0,1,128.844,439.25Z" transform="translate(-104.301 -268.754)" fill="#263238"/>
      <path id="Path_6385" data-name="Path 6385" d="M123.665,445.867a3.687,3.687,0,0,1-.94-.375,4.5,4.5,0,0,1-.9-.452,2.208,2.208,0,0,1,.982.28,2.273,2.273,0,0,1,.863.547Z" transform="translate(-105.88 -271.099)" fill="#263238"/>
      <path id="Path_6386" data-name="Path 6386" d="M124.792,443.973a4.833,4.833,0,0,1-1.113-.25,4.588,4.588,0,0,1-1.089-.333,4.652,4.652,0,0,1,2.2.595Z" transform="translate(-106.192 -270.431)" fill="#263238"/>
      <path id="Path_6387" data-name="Path 6387" d="M125.984,442.074c-.036.042-.506-.244-1.154-.44s-1.19-.238-1.19-.292a2.975,2.975,0,0,1,2.38.732Z" transform="translate(-106.617 -269.59)" fill="#263238"/>
      <path id="Path_6388" data-name="Path 6388" d="M126.775,440.21c-.03.048-.458-.167-1.023-.315a10.018,10.018,0,0,1-1.041-.244,2.7,2.7,0,0,1,2.065.559Z" transform="translate(-107.051 -268.905)" fill="#455a64"/>
      <path id="Path_6389" data-name="Path 6389" d="M126.332,437.75a1.619,1.619,0,0,1-.637-.28,3.81,3.81,0,0,1-.6-.446c-.1-.1-.208-.2-.315-.315a.994.994,0,0,1-.155-.2.3.3,0,0,1,0-.315.476.476,0,0,1,.524-.149,1.1,1.1,0,0,1,.428.2,1.428,1.428,0,0,1,.452.625,1.285,1.285,0,0,1,.119.684,3.871,3.871,0,0,0-.238-.631,1.458,1.458,0,0,0-.434-.542c-.19-.143-.553-.262-.7-.089-.054.065,0,.184.131.3a3.691,3.691,0,0,0,.3.309,5.587,5.587,0,0,0,.559.464C126.106,437.607,126.344,437.726,126.332,437.75Z" transform="translate(-107 -267.444)" fill="#455a64"/>
      <path id="Path_6390" data-name="Path 6390" d="M127.229,437.685a1.22,1.22,0,0,1,.22-.678,1.939,1.939,0,0,1,.524-.6,1.784,1.784,0,0,1,.411-.232.554.554,0,0,1,.268-.042.309.309,0,0,1,.268.19.6.6,0,0,1-.125.53,1.648,1.648,0,0,1-.3.363,1.785,1.785,0,0,1-.678.393,1.083,1.083,0,0,1-.708.048,5.61,5.61,0,0,0,.666-.173,1.887,1.887,0,0,0,.6-.393,1.619,1.619,0,0,0,.262-.333.494.494,0,0,0,.107-.369c-.03-.089-.173-.1-.3-.042a1.833,1.833,0,0,0-.369.2,2,2,0,0,0-.518.506C127.318,437.424,127.265,437.691,127.229,437.685Z" transform="translate(-108.023 -267.493)" fill="#455a64"/>
      <path id="Path_6391" data-name="Path 6391" d="M132.6,438.542a1.268,1.268,0,0,0-.637.149,2.452,2.452,0,0,0-.976,1.226,2.636,2.636,0,0,0-.065,1.577c.107.4.25.625.226.643a1.3,1.3,0,0,1-.351-.6,2.452,2.452,0,0,1,0-1.678,2.38,2.38,0,0,1,1.089-1.279C132.328,438.369,132.644,438.524,132.6,438.542Z" transform="translate(-109.457 -268.439)" fill="#263238"/>
      <path id="Path_6392" data-name="Path 6392" d="M129.2,444.35a3.374,3.374,0,0,1-.643.893,3.273,3.273,0,0,1-.785.768,3.374,3.374,0,0,1,.643-.893,3.273,3.273,0,0,1,.785-.768Z" transform="translate(-108.29 -270.819)" fill="#263238"/>
      <path id="Path_6393" data-name="Path 6393" d="M131.479,443.11c.054,0,.113.107.167.256s.077.28,0,.3-.149-.077-.2-.244S131.431,443.122,131.479,443.11Z" transform="translate(-109.767 -270.317)" fill="#263238"/>
      <path id="Path_6394" data-name="Path 6394" d="M131.525,441.129c.048,0,.042.155,0,.309s-.077.28-.131.274-.089-.143-.054-.309S131.477,441.111,131.525,441.129Z" transform="translate(-109.73 -269.514)" fill="#263238"/>
      <path id="Path_6395" data-name="Path 6395" d="M132.526,439.521c.03.042-.048.155-.155.262s-.22.2-.262.167,0-.167.125-.292S132.49,439.479,132.526,439.521Z" transform="translate(-110.041 -268.858)" fill="#455a64"/>
      <path id="Path_6396" data-name="Path 6396" d="M134.25,438.717c0,.054-.119.107-.268.149s-.286.06-.3,0,.089-.143.256-.19S134.244,438.67,134.25,438.717Z" transform="translate(-110.682 -268.513)" fill="#455a64"/>
      <path id="Path_6397" data-name="Path 6397" d="M147.736,436.139l1.19-5.444-10.181-2.255-1.785,7.937.625.184c2.773.779,14.155,3.766,16.161,3.612C155.953,440.007,147.736,436.139,147.736,436.139Z" transform="translate(-112.012 -264.376)" fill="#34ac97"/>
      <path id="Path_6398" data-name="Path 6398" d="M140.653,440.461a3.57,3.57,0,0,0-.815-2.457,3.523,3.523,0,0,0-2.213-1.273L137,439.592Z" transform="translate(-112.028 -267.733)" fill="#34ac97"/>
      <path id="Path_6399" data-name="Path 6399" d="M151.716,443.433s2.838,1.547,2.38,1.964-12.108-2.172-17.136-3.766l.065-.22,13.531,3.13S151.115,443.326,151.716,443.433Z" transform="translate(-112.012 -269.629)" fill="#f0f0f0"/>
      <path id="Path_6400" data-name="Path 6400" d="M136.76,441.34a.792.792,0,0,0,.167.06l.5.137,1.833.494c1.547.4,3.7.934,6.081,1.47s4.552.964,6.129,1.261l1.868.333.506.083h.178a.747.747,0,0,0-.173-.042l-.506-.107-1.856-.375c-1.571-.315-3.737-.768-6.117-1.3s-4.534-1.029-6.087-1.416l-1.839-.452-.506-.119Z" transform="translate(-111.931 -269.6)" fill="#263238"/>
      <path id="Path_6401" data-name="Path 6401" d="M159.69,446a4.429,4.429,0,0,1,.541-.809,4.368,4.368,0,0,1,.791-.565A1.693,1.693,0,0,0,159.69,446Z" transform="translate(-121.217 -270.933)" fill="#263238"/>
      <path id="Path_6402" data-name="Path 6402" d="M155.218,442.754c0,.03.208-.113.4-.315s.345-.387.321-.411-.208.119-.411.321S155.194,442.73,155.218,442.754Z" transform="translate(-119.405 -269.878)" fill="#263238"/>
      <path id="Path_6403" data-name="Path 6403" d="M154,441.914c0,.03.2-.042.417-.155s.363-.244.351-.274-.2.042-.416.161A.957.957,0,0,0,154,441.914Z" transform="translate(-118.913 -269.657)" fill="#263238"/>
      <path id="Path_6404" data-name="Path 6404" d="M153.48,440.4a1.254,1.254,0,0,0,.518.19,1.19,1.19,0,0,0,.541.059,1.356,1.356,0,0,0-.518-.184,1.267,1.267,0,0,0-.541-.065Z" transform="translate(-118.702 -269.216)" fill="#263238"/>
      <path id="Path_6405" data-name="Path 6405" d="M153.43,439.2a1.042,1.042,0,0,0,.553.3,1,1,0,0,0,.631.054,2.977,2.977,0,0,0-.6-.172,3.753,3.753,0,0,0-.589-.185Z" transform="translate(-118.682 -268.734)" fill="#263238"/>
      <path id="Path_6406" data-name="Path 6406" d="M156.13,441.441a1.928,1.928,0,0,0,.655.143,4.272,4.272,0,0,0,.732,0,2,2,0,0,0,.434-.071.381.381,0,0,0,.208-.173.262.262,0,0,0-.042-.28,1.238,1.238,0,0,0-1.565,0,1.255,1.255,0,0,0-.309.393.387.387,0,0,0-.054.173,1.786,1.786,0,0,1,.422-.494,1.19,1.19,0,0,1,.631-.22,1.023,1.023,0,0,1,.768.226c.089.1,0,.214-.113.256a1.75,1.75,0,0,1-.4.077,5.055,5.055,0,0,1-.714,0A3.222,3.222,0,0,1,156.13,441.441Z" transform="translate(-119.775 -269.374)" fill="#263238"/>
      <path id="Path_6407" data-name="Path 6407" d="M155.968,441.04a.684.684,0,0,0,.178-.44,1.119,1.119,0,0,0-.071-.518.69.69,0,0,0-.47-.452.262.262,0,0,0-.268.256.7.7,0,0,0,.042.321,2.114,2.114,0,0,0,.22.464.987.987,0,0,0,.315.345s-.1-.149-.238-.393a2.54,2.54,0,0,1-.184-.452c-.06-.161-.065-.422.107-.417s.3.22.369.375a1.065,1.065,0,0,1,.089.464A2.38,2.38,0,0,1,155.968,441.04Z" transform="translate(-119.453 -268.908)" fill="#263238"/>
      <path id="Path_6408" data-name="Path 6408" d="M138.15,436.724a3.964,3.964,0,0,1,.744.19,3.285,3.285,0,0,1,2.2,2.719,2.908,2.908,0,0,1,0,.768.779.779,0,0,0,.048-.2,2.559,2.559,0,0,0,0-.6,3.165,3.165,0,0,0-2.249-2.791,2.748,2.748,0,0,0-.565-.113C138.221,436.712,138.15,436.712,138.15,436.724Z" transform="translate(-112.494 -267.721)" fill="#263238"/>
      <path id="Path_6409" data-name="Path 6409" d="M140.832,430a20.4,20.4,0,0,0-.553,2.071,18.712,18.712,0,0,0-.428,2.1,17.814,17.814,0,0,0,.553-2.071A16.753,16.753,0,0,0,140.832,430Z" transform="translate(-113.182 -265.008)" fill="#455a64"/>
      <path id="Path_6410" data-name="Path 6410" d="M145.67,441.837a8.686,8.686,0,0,0,2.975.69c0-.036-.666-.143-1.482-.333S145.682,441.8,145.67,441.837Z" transform="translate(-115.539 -269.8)" fill="#263238"/>
      <path id="Path_6411" data-name="Path 6411" d="M142.31,441.088c-.036,0,0,.149.054.321s.042.309.077.315.089-.149.048-.345S142.334,441.064,142.31,441.088Z" transform="translate(-114.173 -269.497)" fill="#263238"/>
      <path id="Path_6412" data-name="Path 6412" d="M141.392,439.228c-.03,0,0,.143.1.274s.173.22.2.2,0-.143-.1-.274S141.422,439.211,141.392,439.228Z" transform="translate(-113.802 -268.744)" fill="#455a64"/>
      <path id="Path_6413" data-name="Path 6413" d="M139.75,438.092c0,.036.137.065.274.155s.232.19.262.173,0-.179-.2-.28S139.75,438.063,139.75,438.092Z" transform="translate(-113.142 -268.275)" fill="#455a64"/>
      <path id="Path_6414" data-name="Path 6414" d="M138.54,437.481a.2.2,0,0,0,.107.143c.077.048.155.071.173.042s0-.1-.1-.143S138.564,437.451,138.54,437.481Z" transform="translate(-112.652 -268.032)" fill="#455a64"/>
      <path id="Path_6415" data-name="Path 6415" d="M143.732,283.7,131.7,279.44h0l-16.6,3.011.476,93.012,15.756-.208s0-1.083-.036-2.975l9.241,2.529s9-30.417,12.073-42.9C155.15,321.484,143.732,283.7,143.732,283.7Zm-12.626,73.424c-.244-22.5-.565-58.484-.238-63.166,0,0,8.824,31.4,8.925,34.064C139.835,329.623,134.944,345.171,131.106,357.125Z" transform="translate(-103.159 -204.033)" fill="#263238"/>
      <path id="Path_6416" data-name="Path 6416" d="M142.154,408.54c.083,0,.155,4.165.155,9.312s-.065,9.318-.149,9.318-.155-4.165-.161-9.318S142.071,408.54,142.154,408.54Z" transform="translate(-114.053 -256.317)" fill="#455a64"/>
      <path id="Path_6417" data-name="Path 6417" d="M148,380.993a.867.867,0,0,1,.042-.214c.042-.143.083-.363.149-.6.137-.565.333-1.369.6-2.38.53-2.088,1.285-5.081,2.225-8.77,1.91-7.42,4.54-17.636,7.45-28.918.6-2.279,1.19-4.51,1.726-6.646v.065c-1.934-9.853-3.868-18.475-5.4-24.622L153,301.69c-.208-.833-.369-1.488-.488-1.946-.048-.214-.089-.381-.119-.506a.779.779,0,0,1,0-.178,1.018,1.018,0,0,1,.059.167l.143.5c.131.458.309,1.107.541,1.934.458,1.684,1.113,4.135,1.892,7.206,1.583,6.135,3.57,14.756,5.5,24.61v.06l-1.72,6.646c-2.975,11.275-5.611,21.48-7.545,28.894l-2.321,8.747c-.274,1.017-.494,1.815-.643,2.38-.077.262-.131.464-.178.6A.822.822,0,0,1,148,380.993Z" transform="translate(-116.483 -211.979)" fill="#455a64"/>
      <path id="Path_6418" data-name="Path 6418" d="M126.945,382.611c-.083,0-.155-18.719-.155-41.806s.071-41.806.155-41.806.155,18.713.155,41.806S127.034,382.611,126.945,382.611Z" transform="translate(-107.893 -211.954)" fill="#455a64"/>
      <path id="Path_6419" data-name="Path 6419" d="M133.918,185.426l9.52.47c.1-1.107.184-5.391.184-5.391s3.963-.464,4.165-4.409-.149-13.019-.149-13.019h0a13.685,13.685,0,0,0-13.834,1.19l-.6.428Z" transform="translate(-110.493 -156.365)" fill="#e6bbac"/>
      <path id="Path_6420" data-name="Path 6420" d="M154.012,174.562a.7.7,0,1,1,.821-.006A.6.6,0,0,1,154.012,174.562Z" transform="translate(-118.853 -161.107)" fill="#263238"/>
      <path id="Path_6421" data-name="Path 6421" d="M155.815,173.463c-.065.065-.44-.244-.982-.268s-.946.244-1.006.167.036-.149.214-.274a1.309,1.309,0,0,1,.809-.22,1.285,1.285,0,0,1,.779.3C155.791,173.309,155.845,173.434,155.815,173.463Z" transform="translate(-118.836 -160.872)" fill="#263238"/>
      <path id="Path_6422" data-name="Path 6422" d="M145.055,174.211a.6.6,0,1,1-.791.161A.595.595,0,0,1,145.055,174.211Z" transform="translate(-114.924 -161.381)" fill="#263238"/>
      <path id="Path_6423" data-name="Path 6423" d="M145.877,173.894c-.065.065-.44-.244-.982-.268s-.952.244-1.006.173.036-.155.214-.28a1.339,1.339,0,0,1,1.583.077C145.853,173.715,145.907,173.87,145.877,173.894Z" transform="translate(-114.812 -161.046)" fill="#263238"/>
      <path id="Path_6424" data-name="Path 6424" d="M150.523,178.78a2.528,2.528,0,0,1,.881-.155c.143,0,.256-.036.274-.113a.845.845,0,0,0-.089-.411c-.125-.363-.256-.732-.387-1.119a14.91,14.91,0,0,1-.821-2.933,15.31,15.31,0,0,1,1.113,2.832c.125.393.25.762.369,1.131a.934.934,0,0,1,.054.6.363.363,0,0,1-.256.214.935.935,0,0,1-.244,0A2.618,2.618,0,0,1,150.523,178.78Z" transform="translate(-117.447 -161.351)" fill="#263238"/>
      <path id="Path_6425" data-name="Path 6425" d="M147.547,182.826a10.5,10.5,0,0,0,2.636.875,1.5,1.5,0,0,1-1.785.53C147.226,183.754,147.547,182.826,147.547,182.826Z" transform="translate(-116.262 -164.879)" fill="#fff"/>
      <path id="Path_6426" data-name="Path 6426" d="M147.277,192.064a9.2,9.2,0,0,1-5.087-1.654s1.113,2.88,5.058,2.672Z" transform="translate(-114.13 -167.977)" fill="#d88876"/>
      <path id="Path_6427" data-name="Path 6427" d="M132.682,173.994c-.089,0-2.933-.333-2.582,3.011s3.606,1.886,3.606,1.785S132.682,173.994,132.682,173.994Z" transform="translate(-109.221 -161.325)" fill="#e6bbac"/>
      <path id="Path_6428" data-name="Path 6428" d="M133.121,178.554a1.207,1.207,0,0,1-.149.107.6.6,0,0,1-.434.054,1.464,1.464,0,0,1-.8-1.226,1.993,1.993,0,0,1,.077-.851.69.69,0,0,1,.393-.494.292.292,0,0,1,.357.125c.06.089.042.161.06.161s.065-.059,0-.2a.369.369,0,0,0-.149-.2.476.476,0,0,0-.333-.054.827.827,0,0,0-.553.6,2.005,2.005,0,0,0-.107.952,1.529,1.529,0,0,0,1,1.357.625.625,0,0,0,.524-.143C133.121,178.637,133.133,178.56,133.121,178.554Z" transform="translate(-109.785 -162.13)" fill="#d88876"/>
      <path id="Path_6429" data-name="Path 6429" d="M145.342,159.665a2.267,2.267,0,0,0,1.571-2.291,2.773,2.773,0,0,0-1.7-2.3,3.57,3.57,0,0,0-2.916.113,3.148,3.148,0,0,0-6.206.327,1.691,1.691,0,0,0-1.749-1.19,2.529,2.529,0,0,0-2.059.815,1.547,1.547,0,0,0,.065,2.071,3.511,3.511,0,0,0-2.428.643,2.582,2.582,0,0,0-1.029,2.237,2.047,2.047,0,0,0,1.583,1.785c.286.054.637.06.8.3a.869.869,0,0,1,.089.476v2.832a1.1,1.1,0,0,1,1.386.6,3.136,3.136,0,0,1,.2,1.642c.25.363.863.238,1.119-.119a2.083,2.083,0,0,0,.256-1.261l-.054-4.558a1.505,1.505,0,0,0,2.208-1.3,3.011,3.011,0,0,0,4.617-.678,7.491,7.491,0,0,0,1.517.958,2.457,2.457,0,0,0,1.755.107,1.482,1.482,0,0,0,.994-1.363l-.2-.167" transform="translate(-108.744 -152.708)" fill="#263238"/>
      <path id="Path_6430" data-name="Path 6430" d="M207.245,220.51a3.249,3.249,0,1,0,2.3.952A3.255,3.255,0,0,0,207.245,220.51Zm0,2.666a.387.387,0,1,1,0,.006Z" transform="translate(-139.158 -180.167)" fill="#34ac97"/>
      <path id="Path_6431" data-name="Path 6431" d="M207.65,231.046v5.849s1.3.6,1.226.672.934-.672.934-.672v-.7l-.6-.6.6-.541-.6-.744.6-.66-.666-.75.666-.672v-1.19Z" transform="translate(-140.64 -184.431)" fill="#34ac97"/>
      <path id="Path_6432" data-name="Path 6432" d="M210.467,209.5l-3.719-3.326L203,209.544l1.107.173.1,3.409,5.064.089-.149-3.57Zm-3.749,3.082a.595.595,0,1,1,.452-.156.6.6,0,0,1-.452.156Z" transform="translate(-138.757 -174.359)" fill="#263238"/>
      <path id="Path_6433" data-name="Path 6433" d="M208.39,216.477a1.259,1.259,0,0,1-.292.03,1.625,1.625,0,0,0-.732.113,1.838,1.838,0,0,0-.845.643,1.761,1.761,0,0,0,.268,2.368,1.874,1.874,0,0,0,.964.452,3.641,3.641,0,0,0,1.029-.083,1.327,1.327,0,0,1-1.041.3,1.958,1.958,0,0,1-1.131-.452,1.987,1.987,0,0,1-.708-1.321,2.011,2.011,0,0,1,.411-1.44,1.9,1.9,0,0,1,1.006-.678,1.523,1.523,0,0,1,.809-.03C208.295,216.424,208.4,216.46,208.39,216.477Z" transform="translate(-139.928 -178.479)" fill="#455a64"/>
      <path id="Path_6434" data-name="Path 6434" d="M212.012,219.84c-.077-.042.107-.464.077-.988s-.226-.922-.167-.976.458.327.476.958S212.077,219.894,212.012,219.84Z" transform="translate(-142.366 -179.098)" fill="#455a64"/>
      <path id="Path_6435" data-name="Path 6435" d="M193.66,209.643a18.125,18.125,0,0,1,1.41-3.154,4.7,4.7,0,0,1,2.136-1.785,7.266,7.266,0,0,1,3.63-.083l2.927.434c.4.06.9.244.893.643a.6.6,0,0,1-.452.482,1.887,1.887,0,0,1-.708,0,10.2,10.2,0,0,0-1.952-.06c-.464.03-1.041.2-1.119.655s.369.762.779.773a2.207,2.207,0,0,0,1.154-.422l1.148-.678a.994.994,0,0,1,.714-.208c.422.1.524.7.3,1.071a3.058,3.058,0,0,1-.994.827c-1.476,1-2.16,2.618-2.838,4.76" transform="translate(-134.975 -173.655)" fill="#e6bbac"/>
      <path id="Path_6436" data-name="Path 6436" d="M153.746,206.435,147.2,223.309l-6.807-15.75c-2.13-7.622-11.543-8.122-11.543-8.122l-9.312-1.19c-3.35-1.363-8.776-.226-10.9.946-2.707,1.488-5.111,6.063-5.647,9.437,0,0-9.377,24.247-7.777,26.776s11.615,12.424,11.615,12.424l-1.4,5.105,15.934,1.006,1.612-6.289.19,6.73,14.982,1.053c-.655-5.92-1.714-11.871-2-13.566l-1.19-17.368.155-3.57.143-.369c1.4,2.35,3.171,5.355,5.355,9.211,4.379,7.735,8.8,5.76,11.394,2.654a14.578,14.578,0,0,0,2.457-4.76l6.444-18.112ZM108.1,235.388c0,.1-1.607-2.862-1.607-2.862l2.344-7.735S108.1,235.3,108.1,235.388Z" transform="translate(-95.031 -170.899)" fill="#34ac97"/>
      <path id="Path_6437" data-name="Path 6437" d="M134.17,197.348l5.028,19.308,5.212-18.13-.577-.048.137-2.386-9.8-1.172Z" transform="translate(-110.882 -169.803)" fill="#fff"/>
      <path id="Path_6438" data-name="Path 6438" d="M132.371,199.31a.874.874,0,0,1,0,.262c-.036.2-.077.446-.131.744-.125.684-.3,1.618-.524,2.767s-.512,2.606-.827,4.2a3.41,3.41,0,0,0,.065,2.416,3.947,3.947,0,0,0,2.261,1.4l.173.06-.1.155a5.508,5.508,0,0,0-.131,4.457,22.94,22.94,0,0,0,1.226,2.749q.66,1.333,1.279,2.576c.809,1.654,1.565,3.183,2.237,4.54l-.238.059v-6.747a3.124,3.124,0,0,1,0-.512,2.2,2.2,0,0,1,.048.512c0,.369.03.851.054,1.458.03,1.3.077,3.1.131,5.284v.547l-.25-.488c-.678-1.357-1.446-2.88-2.279-4.522-.411-.827-.839-1.69-1.285-2.57a23,23,0,0,1-1.244-2.791,5.851,5.851,0,0,1,.167-4.7l.083.22a8.189,8.189,0,0,1-1.351-.565,2.7,2.7,0,0,1-1.059-.976,2.291,2.291,0,0,1-.28-1.351,9,9,0,0,1,.208-1.261q.509-2.383.893-4.165c.256-1.19.458-2.071.6-2.749.065-.3.125-.541.173-.738a1.153,1.153,0,0,1,.1-.268Z" transform="translate(-109.351 -171.581)" fill="#263238"/>
      <path id="Path_6439" data-name="Path 6439" d="M148.8,201.18a5.947,5.947,0,0,1,.2.9c.107.6.256,1.434.417,2.505s.351,2.338.464,3.79c0,.363.048.732.036,1.125a2.053,2.053,0,0,1-.369,1.19,5.2,5.2,0,0,1-1.975,1.571V212a3.124,3.124,0,0,1,.684.8c.048.071.089.149.131.226a.53.53,0,0,1,.036.208v.143c-.036.184-.083.351-.131.524-.6,1.862-1.333,3.57-1.981,5.111s-1.267,2.933-1.785,4.088-.952,2.094-1.255,2.737l-.363.738c-.083.167-.131.25-.143.244a.863.863,0,0,1,.089-.274c.083-.2.184-.452.3-.756l1.19-2.773c.5-1.19,1.083-2.576,1.726-4.117s1.357-3.261,1.946-5.087a3.784,3.784,0,0,0,.119-.482v-.107a.113.113,0,0,1,0-.048l-.125-.214a2.933,2.933,0,0,0-.6-.708l-.19-.161.214-.107a4.9,4.9,0,0,0,1.862-1.452,3.206,3.206,0,0,0,.3-2.112c-.089-1.434-.262-2.713-.393-3.784s-.244-1.874-.327-2.511A4.97,4.97,0,0,1,148.8,201.18Z" transform="translate(-114.365 -172.338)" fill="#263238"/>
      <path id="Path_6440" data-name="Path 6440" d="M141.976,266.36c-.089,0,0-5.462.184-12.186s.411-12.174.518-12.174,0,5.456-.184,12.186S142.083,266.36,141.976,266.36Z" transform="translate(-114.029 -188.87)" fill="#263238"/>
      <path id="Path_6441" data-name="Path 6441" d="M145.859,250.106c-.036,0,.161-.22.482-.071a.591.591,0,1,1-.732.19c.2-.286.47-.22.452-.184a.7.7,0,0,0-.262.292.411.411,0,0,0,0,.345.292.292,0,0,0,.345.107.3.3,0,0,0,.25-.262.375.375,0,0,0-.167-.3C146.049,250.082,145.882,250.142,145.859,250.106Z" transform="translate(-115.466 -192.103)" fill="#263238"/>
      <path id="Path_6442" data-name="Path 6442" d="M145.971,260.5c-.042,0,.155-.214.482-.071a.6.6,0,1,1-.738.208c.208-.292.47-.226.452-.184s-.173.077-.262.292a.411.411,0,0,0,0,.345.339.339,0,0,0,.6-.161.387.387,0,0,0-.167-.3C146.156,260.474,145.989,260.54,145.971,260.5Z" transform="translate(-115.513 -196.313)" fill="#263238"/>
      <path id="Path_6443" data-name="Path 6443" d="M145.521,272.258c-.036,0,.155-.214.482-.071a.6.6,0,1,1-.738.2c.208-.292.476-.226.452-.184s-.173.071-.262.292a.411.411,0,0,0,0,.345.321.321,0,0,0,.351.107.309.309,0,0,0,.25-.268.411.411,0,0,0-.173-.3C145.706,272.234,145.539,272.3,145.521,272.258Z" transform="translate(-115.331 -201.075)" fill="#263238"/>
      <path id="Path_6444" data-name="Path 6444" d="M151.222,232.134H155.6v-.684H150.99Z" transform="translate(-117.694 -184.597)" fill="#263238"/>
      <path id="Path_6445" data-name="Path 6445" d="M198.934,221.046a23.52,23.52,0,0,1-3.522-1.511,24.066,24.066,0,0,1-3.392-1.785,23.8,23.8,0,0,1,3.522,1.517,23.708,23.708,0,0,1,3.392,1.779Z" transform="translate(-134.31 -179.049)" fill="#455a64"/>
      <path id="Path_6446" data-name="Path 6446" d="M193.66,215.309a.429.429,0,0,1,.3-.292.643.643,0,0,1,.488,0,.553.553,0,0,1,.309.547.506.506,0,0,1-.4.5.446.446,0,0,1-.458-.256.345.345,0,0,1,0-.339c.048-.071.1-.077.107-.065a.378.378,0,0,0,.089.286c.125.137.351.137.369-.143s-.238-.369-.434-.339S193.7,215.339,193.66,215.309Z" transform="translate(-134.975 -177.923)" fill="#455a64"/>
      <path id="Path_6447" data-name="Path 6447" d="M182.108,244.148a5.908,5.908,0,0,1,.071-1.922,5.986,5.986,0,0,1,.387-1.886,12.115,12.115,0,0,1-.458,3.808Z" transform="translate(-130.277 -188.198)" fill="#263238"/>
      <path id="Path_6448" data-name="Path 6448" d="M183.9,244.073a5.724,5.724,0,0,1-.726-1.678,5.475,5.475,0,0,1-.428-1.785,10.644,10.644,0,0,1,1.154,3.457Z" transform="translate(-130.556 -188.307)" fill="#263238"/>
      <path id="Path_6449" data-name="Path 6449" d="M143.9,198.231a6.634,6.634,0,0,1-1.113,2.321l.875,2.38h.744l.631-2.285s-.44-.351-.762-2.487Z" transform="translate(-114.373 -171.115)" fill="#455a64"/>
      <path id="Path_6450" data-name="Path 6450" d="M143.787,198.959a2.325,2.325,0,0,1-.262.411,1.976,1.976,0,0,1-1.107.791,1.142,1.142,0,0,1-.976-.214,2.035,2.035,0,0,1-.506-1.018,10.675,10.675,0,0,1-.393-2.517l.3.036c-.143.488-.268,1.006-.446,1.523a8.02,8.02,0,0,1-.66,1.493,1.66,1.66,0,0,1-.6.6,1.357,1.357,0,0,1-.779.179,4.064,4.064,0,0,1-1.333-.381,8.116,8.116,0,0,1-1.047-.6,15.78,15.78,0,0,1-1.38-1.012,2.38,2.38,0,0,1-.47-.416c.036-.048.75.494,1.964,1.238a7.986,7.986,0,0,0,1.035.524,3.963,3.963,0,0,0,1.244.333,1.19,1.19,0,0,0,1.095-.637,8.212,8.212,0,0,0,.595-1.428c.167-.506.3-1.017.446-1.511a.149.149,0,0,1,.184-.107.161.161,0,0,1,.113.143,11.031,11.031,0,0,0,.345,2.463,1.874,1.874,0,0,0,.411.91.934.934,0,0,0,.779.19,1.975,1.975,0,0,0,1.065-.666,2.011,2.011,0,0,1,.381-.327Z" transform="translate(-110.866 -170.338)" fill="#e0e0e0"/>
      <path id="Path_6451" data-name="Path 6451" d="M142.583,206.067c-.125.309-2.463,9.33-2.463,9.33l1.482,5.712,2.743-9.52s-.928-5.825-.97-5.67S142.583,206.067,142.583,206.067Z" transform="translate(-113.292 -174.256)" fill="#455a64"/>
      <path id="Path_6452" data-name="Path 6452" d="M124.931,276.715a11.424,11.424,0,0,1-3.671.119,11.234,11.234,0,0,1-3.57-.774c0-.089,1.618.286,3.618.464S124.925,276.614,124.931,276.715Z" transform="translate(-104.208 -202.659)" fill="#263238"/>
      <path id="Path_6453" data-name="Path 6453" d="M161.156,278.986a10.478,10.478,0,0,1-2.535,0,10.115,10.115,0,0,1-2.511-.3,21.531,21.531,0,0,1,5.046.3Z" transform="translate(-119.767 -203.698)" fill="#263238"/>
      <path id="Path_6454" data-name="Path 6454" d="M117.176,229a1.1,1.1,0,0,1,0,.327q0,.375.036.946c0,.821.042,2.005.048,3.475,0,2.933-.077,6.985-.315,11.454s-.6,8.509-.928,11.424c-.161,1.458-.309,2.636-.422,3.451-.054.375-.1.684-.137.934a2,2,0,0,1-.065.321,1.054,1.054,0,0,1,0-.327c0-.25.048-.565.077-.946.077-.857.19-2.029.321-3.451.268-2.922.6-6.956.839-11.424s.351-8.509.4-11.442c0-1.434.042-2.606.054-3.469v-.946A1.1,1.1,0,0,1,117.176,229Z" transform="translate(-103.272 -183.605)" fill="#263238"/>
      <path id="Path_6455" data-name="Path 6455" d="M114.29,250.1a42.727,42.727,0,0,1,1.25-4.939,41.585,41.585,0,0,1,1.553-4.861,42.152,42.152,0,0,1-1.244,4.945A41.869,41.869,0,0,1,114.29,250.1Z" transform="translate(-102.831 -188.182)" fill="#263238"/>
      <path id="Path_6456" data-name="Path 6456" d="M114.875,257.522a23.853,23.853,0,0,1-1.981-3.249,22.968,22.968,0,0,1-1.714-3.4,23.206,23.206,0,0,1,1.981,3.249A22.965,22.965,0,0,1,114.875,257.522Z" transform="translate(-101.571 -192.462)" fill="#263238"/>
    </g>
  </g>
</svg>
