<svg xmlns="http://www.w3.org/2000/svg" width="241.02" height="227.97" viewBox="0 0 241.02 227.97">
  <g id="Service_24_7-pana" data-name="Service 24_7-pana" transform="translate(-33.35 -59.93)">
    <g id="freepik--Table--inject-225" transform="translate(33.35 287.611)">
      <path id="Path_7038" data-name="Path 7038" d="M274.369,470.784c0,.078-53.961.144-120.507.144S33.35,470.84,33.35,470.784s53.945-.144,120.512-.144S274.369,470.7,274.369,470.784Z" transform="translate(-33.35 -470.64)"/>
    </g>
    <g id="freepik--Text--inject-225" transform="translate(34.137 120.278)">
      <path id="Path_7039" data-name="Path 7039" d="M49.72,200.849H61.3l-1.02,5.194H39.42l.826-4.13,12.556-9.84c3.1-2.484,4.052-3.936,4.052-5.749s-1.38-3.032-4.052-3.032a7.628,7.628,0,0,0-5.854,2.877l-4.291-3.11c2.217-3.032,6.336-5.039,11.087-5.039,5.826,0,9.64,3.11,9.64,7.4,0,3.265-1.491,6.02-6.336,9.762Z" transform="translate(-36.842 -172.903)" fill="#263238"/>
      <path id="Path_7040" data-name="Path 7040" d="M108.125,200.64H103.6l-1.142,5.782h-6.22l1.181-5.782H82.58l.826-4.291L99.627,178.87h6.963L91.477,195.44h7.24l1.026-5.156h5.943l-1.026,5.156h4.529Z" transform="translate(-56.076 -173.282)" fill="#263238"/>
      <path id="Path_7041" data-name="Path 7041" d="M145.212,168.79h5.749l-20.229,37.076H125Z" transform="translate(-74.98 -168.79)" fill="#263238"/>
      <path id="Path_7042" data-name="Path 7042" d="M189.519,178.87l-.826,4.136-14.718,23.416H166.89l14.125-22.357h-8.931l-.909,4.49H165.51l1.935-9.685Z" transform="translate(-93.033 -173.282)" fill="#263238"/>
    </g>
    <g id="freepik--Stopwatch--inject-225" transform="translate(41.793 59.93)">
      <path id="Path_7050" data-name="Path 7050" d="M56.657,127.257H48.58A47.928,47.928,0,0,1,61.064,95.713C69.413,86.45,80.251,81.35,91.554,81.35c23.1,0,39.238,16.864,39.238,41.023h-8.06c0-19.7-12.523-32.929-31.161-32.929C73.3,89.427,56.657,107.455,56.657,127.257Z" transform="translate(-48.58 -69.476)" fill="#34ac97"/>
      <path id="Path_7051" data-name="Path 7051" d="M69.259,160.107a6.167,6.167,0,0,1,2.334.244,6.765,6.765,0,0,1-2.334.205,5.764,5.764,0,0,1-2.339-.244A5.713,5.713,0,0,1,69.259,160.107Z" transform="translate(-56.753 -104.571)" fill="#263238"/>
      <path id="Path_7052" data-name="Path 7052" d="M79.412,127.42c1.109.71,1.857,1.436,1.735,1.63s-1.109-.2-2.217-.87-1.846-1.408-1.73-1.63S78.331,126.716,79.412,127.42Z" transform="translate(-61.329 -89.591)" fill="#263238"/>
      <path id="Path_7053" data-name="Path 7053" d="M105.195,104.6c.527,1.181.787,2.217.554,2.306s-.826-.771-1.391-1.929-.826-2.217-.554-2.306S104.673,103.406,105.195,104.6Z" transform="translate(-73.141 -78.976)" fill="#263238"/>
      <path id="Path_7054" data-name="Path 7054" d="M138.706,101.631c-.322,1.253-.759,2.217-.976,2.173s-.172-1.109.105-2.378.71-2.217.976-2.168S139.027,100.384,138.706,101.631Z" transform="translate(-88.248 -77.455)" fill="#263238"/>
      <path id="Path_7055" data-name="Path 7055" d="M164.962,121.185c-1.075.71-2.046,1.142-2.173.965s.621-.942,1.663-1.7,2.018-1.186,2.173-.965S166.037,120.47,164.962,121.185Z" transform="translate(-99.47 -86.443)" fill="#263238"/>
      <path id="Path_7056" data-name="Path 7056" d="M173.774,153.637a6.817,6.817,0,0,1-2.334-.211,6.857,6.857,0,0,1,2.334-.238,5.884,5.884,0,0,1,2.339.211A5.852,5.852,0,0,1,173.774,153.637Z" transform="translate(-103.331 -101.489)" fill="#263238"/>
      <path id="Path_7057" data-name="Path 7057" d="M109.789,141.991a1.763,1.763,0,0,1-1.109-.382L95.1,131.076a1.8,1.8,0,1,1,2.217-2.838l12.384,9.6,17.1-15.705a1.8,1.8,0,0,1,2.445,2.633L111.03,141.509A1.807,1.807,0,0,1,109.789,141.991Z" transform="translate(-69.004 -87.437)" fill="#34ac97"/>
      <rect id="Rectangle_609" data-name="Rectangle 609" width="16.442" height="6.514" rx="0.79" transform="translate(33.988)" fill="#34ac97"/>
      <rect id="Rectangle_610" data-name="Rectangle 610" width="8.498" height="7.706" transform="translate(37.957 3.26)" fill="#34ac97"/>
      <rect id="Rectangle_611" data-name="Rectangle 611" width="11.592" height="7.04" rx="1.29" transform="matrix(0.628, -0.778, 0.778, 0.628, 0.296, 28.397)" fill="#34ac97"/>
      <path id="Path_7058" data-name="Path 7058" d="M126.282,71.546c0,.094-3.487.166-7.761.166s-7.761-.072-7.761-.166,3.481-.166,7.761-.166S126.282,71.458,126.282,71.546Z" transform="translate(-76.29 -65.033)" fill="#263238"/>
      <path id="Path_7059" data-name="Path 7059" d="M56.935,112.471a15.32,15.32,0,0,1-2.716-1.89,14.953,14.953,0,0,1-2.561-2.09A9.643,9.643,0,0,1,54.5,110.2,9.664,9.664,0,0,1,56.935,112.471Z" transform="translate(-49.95 -81.566)" fill="#263238"/>
      <path id="Path_7060" data-name="Path 7060" d="M59.371,108.881a15.32,15.32,0,0,1-2.716-1.89,15.142,15.142,0,0,1-2.567-2.09,9.58,9.58,0,0,1,2.849,1.719A9.819,9.819,0,0,1,59.371,108.881Z" transform="translate(-51.033 -79.966)" fill="#263238"/>
      <path id="Path_7061" data-name="Path 7061" d="M62.366,105.871a15.636,15.636,0,0,1-2.711-1.89,16.324,16.324,0,0,1-2.567-2.09,9.821,9.821,0,0,1,2.844,1.719A9.819,9.819,0,0,1,62.366,105.871Z" transform="translate(-52.371 -78.624)" fill="#263238"/>
      <path id="Path_7062" data-name="Path 7062" d="M65.269,102.281a15.55,15.55,0,0,1-2.716-1.89A14.511,14.511,0,0,1,60,98.3a9.447,9.447,0,0,1,2.844,1.719A9.852,9.852,0,0,1,65.269,102.281Z" transform="translate(-53.666 -77.025)" fill="#263238"/>
      <rect id="Rectangle_612" data-name="Rectangle 612" width="11.592" height="7.04" rx="1.29" transform="translate(73.929 14.421) rotate(47.45)" fill="#34ac97"/>
      <path id="Path_7063" data-name="Path 7063" d="M175.666,93.5a16.785,16.785,0,0,1,2.273-2.406,13.364,13.364,0,0,1,2.445-2.217,9.364,9.364,0,0,1-2.118,2.561A9.805,9.805,0,0,1,175.666,93.5Z" transform="translate(-105.213 -72.826)" fill="#263238"/>
      <path id="Path_7064" data-name="Path 7064" d="M178.856,96.438a16.54,16.54,0,0,1,2.267-2.406,13.086,13.086,0,0,1,2.45-2.217,9.491,9.491,0,0,1-2.118,2.561A9.71,9.71,0,0,1,178.856,96.438Z" transform="translate(-106.634 -74.137)" fill="#263238"/>
      <path id="Path_7065" data-name="Path 7065" d="M181.386,99.848a16.539,16.539,0,0,1,2.267-2.406,13.085,13.085,0,0,1,2.45-2.217,9.477,9.477,0,0,1-2.123,2.556A9.931,9.931,0,0,1,181.386,99.848Z" transform="translate(-107.761 -75.656)" fill="#263238"/>
      <path id="Path_7066" data-name="Path 7066" d="M184.506,103.278a16.539,16.539,0,0,1,2.267-2.406,13.086,13.086,0,0,1,2.45-2.217,9.452,9.452,0,0,1-2.123,2.561A10.278,10.278,0,0,1,184.506,103.278Z" transform="translate(-109.152 -77.185)" fill="#263238"/>
      <path id="Path_7067" data-name="Path 7067" d="M113.643,66.505a11.336,11.336,0,0,1-.233-3.21,11.393,11.393,0,0,1,.233-3.215,11.234,11.234,0,0,1,.238,3.215A10.949,10.949,0,0,1,113.643,66.505Z" transform="translate(-77.471 -59.997)" fill="#263238"/>
      <path id="Path_7068" data-name="Path 7068" d="M119.143,66.505a11.337,11.337,0,0,1-.233-3.21,11.393,11.393,0,0,1,.233-3.215,11.361,11.361,0,0,1,.233,3.215A11.3,11.3,0,0,1,119.143,66.505Z" transform="translate(-79.922 -59.997)" fill="#263238"/>
      <path id="Path_7069" data-name="Path 7069" d="M124.633,66.505a11.336,11.336,0,0,1-.233-3.21,11.393,11.393,0,0,1,.233-3.215,11.361,11.361,0,0,1,.233,3.215A11.069,11.069,0,0,1,124.633,66.505Z" transform="translate(-82.368 -59.997)" fill="#263238"/>
      <path id="Path_7070" data-name="Path 7070" d="M130.133,66.505a11.1,11.1,0,0,1-.233-3.21,11.155,11.155,0,0,1,.233-3.215,11.123,11.123,0,0,1,.233,3.215A11.3,11.3,0,0,1,130.133,66.505Z" transform="translate(-84.819 -59.997)" fill="#263238"/>
      <path id="Path_7071" data-name="Path 7071" d="M135.623,66.505a11.337,11.337,0,0,1-.233-3.21,11.393,11.393,0,0,1,.233-3.215,11.361,11.361,0,0,1,.233,3.215A12.36,12.36,0,0,1,135.623,66.505Z" transform="translate(-87.266 -59.997)" fill="#263238"/>
      <circle id="Ellipse_95" data-name="Ellipse 95" cx="4.069" cy="4.069" r="4.069" transform="translate(35.448 52.141) rotate(-45)" fill="#34ac97"/>
      <path id="Path_7072" data-name="Path 7072" d="M123.51,150.588c-.039,0-.033-.36-.205-.976a4.036,4.036,0,0,0-1.491-2.14,3.881,3.881,0,1,0,0,6.231,4.058,4.058,0,0,0,1.491-2.14c.172-.615.166-.976.205-.976s0,.089,0,.261a2.772,2.772,0,0,1-.078.754,4.036,4.036,0,0,1-1.464,2.334,4.2,4.2,0,0,1-4,.654,4.242,4.242,0,1,1,4-7.356,4.058,4.058,0,0,1,1.464,2.339,2.771,2.771,0,0,1,.078.754C123.538,150.488,123.527,150.588,123.51,150.588Z" transform="translate(-78.241 -98.439)" fill="#263238"/>
    </g>
    <g id="freepik--speech-bubble--inject-225" transform="translate(224.342 83.148)">
      <path id="Path_7073" data-name="Path 7073" d="M379.843,144.727l6.952-1.109a23.449,23.449,0,1,0-5.483-6.353h0Z" transform="translate(-377.961 -101.86)" fill="#fff"/>
      <path id="Path_7074" data-name="Path 7074" d="M379.757,144.68a2.24,2.24,0,0,1,.078-.471l.266-1.419c.238-1.275.593-3.143,1.053-5.582a.055.055,0,0,1,.072-.044.033.033,0,0,1,.033,0h0l-.1.078a23.527,23.527,0,0,1-3.265-11.026,23.035,23.035,0,0,1,.139-3.626,25.442,25.442,0,0,1,.787-3.808,23.453,23.453,0,0,1,40.1-9.064l.942,1.109c.294.388.554.793.843,1.181a23.282,23.282,0,0,1,1.491,2.461c.244.41.4.865.6,1.292a9.358,9.358,0,0,1,.554,1.308,22.128,22.128,0,0,1,.815,2.694,23.954,23.954,0,0,1,.083,10.821A23.516,23.516,0,0,1,404.6,148.588a25.5,25.5,0,0,1-3.908.227,30.675,30.675,0,0,1-3.62-.388,23.228,23.228,0,0,1-10.4-4.812h.05l-5.2.782-1.325.194-.438.061.46-.083,1.336-.222,5.145-.854h.05a23.222,23.222,0,0,0,10.355,4.718,29.139,29.139,0,0,0,3.592.371,25.114,25.114,0,0,0,3.88-.238,23.344,23.344,0,0,0,19.4-17.85,23.715,23.715,0,0,0-.094-10.694,24.4,24.4,0,0,0-.8-2.661,13.936,13.936,0,0,0-.554-1.292,10.683,10.683,0,0,0-.6-1.275,22.131,22.131,0,0,0-1.475-2.428c-.277-.388-.554-.787-.832-1.17l-.931-1.109a23.183,23.183,0,0,0-39.637,9,25.693,25.693,0,0,0-.793,3.77,22.733,22.733,0,0,0-.155,3.6,23.46,23.46,0,0,0,3.165,10.971.057.057,0,1,1-.078.083h0l.1-.033c-.488,2.411-.865,4.263-1.109,5.544-.128.626-.227,1.109-.294,1.43A2.076,2.076,0,0,1,379.757,144.68Z" transform="translate(-377.876 -101.812)" fill="#263238"/>
      <path id="Path_7075" data-name="Path 7075" d="M433.16,143.564a2.378,2.378,0,1,1,2.373,2.373A2.378,2.378,0,0,1,433.16,143.564Z" transform="translate(-402.513 -119.356)" fill="#263238"/>
      <path id="Path_7076" data-name="Path 7076" d="M416,143.564a2.378,2.378,0,1,1,2.378,2.373A2.378,2.378,0,0,1,416,143.564Z" transform="translate(-394.865 -119.356)" fill="#263238"/>
      <path id="Path_7077" data-name="Path 7077" d="M398.633,144.752a2.378,2.378,0,1,1,3.249.87A2.378,2.378,0,0,1,398.633,144.752Z" transform="translate(-386.984 -119.358)" fill="#263238"/>
    </g>
    <g id="freepik--Character--inject-225" transform="translate(35.08 67.675)">
      <path id="Path_7078" data-name="Path 7078" d="M89.664,296.358c-1.458-.693-3.914-2.14-5.433-2.705a7.207,7.207,0,0,0-4.751-.322,2.356,2.356,0,0,0-1.791,1.957l5.959,4.4,6.015-1.585Z" transform="translate(-54.839 -171.573)" fill="#ff9a6c"/>
      <path id="Path_7079" data-name="Path 7079" d="M64.776,291.809s-10.7-2.323-12.49-3.237S41.2,283,39.641,283s-2.888.421-3.171,1.974l2.035,1.58.261.809,3.481,1.813.615,1.142,8.87,4.734s9.3,4.723,10.854,4.989,9.3.915,12.617,3.736l13.3-5.466s-3.842-5.455-6.8-6.8a14.432,14.432,0,0,0-10.167.072Z" transform="translate(-36.47 -167.084)" fill="#ffbf9d"/>
      <path id="Path_7080" data-name="Path 7080" d="M103.59,312.963s16.936,36.932,19.663,44.349c0,0,18.931-3.116,19.58-13.621L118.441,310.43Z" transform="translate(-66.381 -179.308)" fill="#ffbf9d"/>
      <path id="Path_7081" data-name="Path 7081" d="M62.827,296.085h-.183a2.518,2.518,0,0,1-.51-.105,10.912,10.912,0,0,1-1.763-.71c-.721-.349-1.558-.809-2.478-1.325-.46-.255-.942-.527-1.447-.787s-1.053-.488-1.613-.732a22.226,22.226,0,0,0-3.2-1.164,5.2,5.2,0,0,0-2.694-.194,2.218,2.218,0,0,0-1.242,1.253,5.949,5.949,0,0,1-.283.632.814.814,0,0,1,.028-.177,3.4,3.4,0,0,1,.15-.5,3.076,3.076,0,0,1,.394-.726,1.907,1.907,0,0,1,.865-.676,3.022,3.022,0,0,1,1.336-.133,10.161,10.161,0,0,1,1.491.261,21.373,21.373,0,0,1,3.271,1.153c.554.244,1.109.471,1.624.743s.992.554,1.452.815c.915.527,1.735,1,2.439,1.369a13.932,13.932,0,0,0,1.691.782C62.583,296.024,62.827,296.057,62.827,296.085Z" transform="translate(-41.345 -170.523)" fill="#ff9a6c"/>
      <path id="Path_7082" data-name="Path 7082" d="M49.569,288.9a5.927,5.927,0,0,1-1.5-.521,30.658,30.658,0,0,0-3.52-1.4,5.339,5.339,0,0,0-2.023-.172,2,2,0,0,0-1.43.665,2.345,2.345,0,0,0-.416,1.014,1.314,1.314,0,0,1-.083.416,1.181,1.181,0,0,1,0-.427,2.217,2.217,0,0,1,.366-1.109,1.9,1.9,0,0,1,.643-.554,2.86,2.86,0,0,1,.92-.261,5.377,5.377,0,0,1,2.134.161,21.068,21.068,0,0,1,3.526,1.5,14.425,14.425,0,0,1,1.386.693Z" transform="translate(-38.299 -168.646)" fill="#ff9a6c"/>
      <path id="Path_7083" data-name="Path 7083" d="M95.49,297a2.676,2.676,0,0,1-.432.188,12.709,12.709,0,0,1-1.236.377,19.959,19.959,0,0,1-4.208.626,20.662,20.662,0,0,1-4.246-.255,12.242,12.242,0,0,1-1.258-.272,1.38,1.38,0,0,1-.449-.15c0-.044.665.083,1.741.216a25.61,25.61,0,0,0,4.2.172,26.183,26.183,0,0,0,4.174-.554C94.8,297.146,95.451,296.957,95.49,297Z" transform="translate(-57.5 -173.319)" fill="#ff9a6c"/>
      <path id="Path_7084" data-name="Path 7084" d="M272.562,249.674l-24.636-5.1-6.1-4.573-32.541,6.275c-.521.954-5.793,8.315-5.793,8.315l-12.817,4.352a26.953,26.953,0,0,0-13.9,8.87,57.281,57.281,0,0,0-8.315,13.914c-5.765,13.532-14.086,29.165-14.086,29.165l-5.217-8.4L127.17,312.843s12.878,25.961,17.141,29.669c4.74,4.119,15.639,4.6,23.172-3.088,4.54-4.634,17.662-22.951,20.395-27.535l4.058,19.17,3.731,21.881L189.635,368h88.032l-3.642-14.236s3.587-37.1,4.579-44.011C280.939,293.463,272.562,249.674,272.562,249.674Z" transform="translate(-76.889 -147.922)" fill="#34ac97"/>
      <path id="Path_7085" data-name="Path 7085" d="M387.671,257.45s17.629,4.945,21.509,22.468c2.351,10.616,10.333,40.879,13.144,65.792,1.663,14.813,1.619,28.5,1.663,30.069H396.934L385.47,262.395Z" transform="translate(-191.998 -155.698)" fill="#34ac97"/>
      <path id="Path_7086" data-name="Path 7086" d="M289.012,277.29a.4.4,0,0,1-.072.183l-.249.51c-.222.449-.554,1.109-.915,1.946-.782,1.663-1.7,4.13-3.188,6.885l-.072.139-.122-.105c-1.829-1.558-3.814-3.431-5.865-5.455-3.631-3.6-6.813-6.957-9.164-9.335l-2.8-2.811-.771-.759a1.95,1.95,0,0,1-.255-.277,1.591,1.591,0,0,1,.294.238l.8.721c.687.632,1.663,1.569,2.866,2.744,2.389,2.345,5.6,5.677,9.219,9.274,2.051,2.023,4.025,3.881,5.832,5.466l-.2.033c1.5-2.716,2.45-5.172,3.271-6.824.4-.837.743-1.48.987-1.918.111-.194.205-.36.283-.488A.963.963,0,0,1,289.012,277.29Z" transform="translate(-138.553 -160.493)"/>
      <path id="Path_7087" data-name="Path 7087" d="M331.546,249.38a1.714,1.714,0,0,1-.05.388c-.055.277-.122.643-.205,1.109-.2.953-.554,2.328-1.009,4-.959,3.326-2.511,7.922-4.435,12.883-1.014,2.628-2.012,5.111-2.944,7.312l-.072.172-.139-.122c-2.511-2.217-4.762-3.964-6.286-5.261-.765-.649-1.364-1.17-1.768-1.536l-.449-.421c-.105-.1-.155-.15-.15-.155a.89.89,0,0,1,.177.122l.477.394,1.813,1.475c1.558,1.264,3.825,2.977,6.364,5.183l-.211.05c.915-2.217,1.907-4.69,2.916-7.312,1.9-4.989,3.481-9.507,4.485-12.839.5-1.663.865-3.027,1.109-3.975.105-.449.194-.809.261-1.109A2.521,2.521,0,0,1,331.546,249.38Z" transform="translate(-160.166 -152.102)"/>
      <path id="Path_7088" data-name="Path 7088" d="M238.575,358.337a.4.4,0,0,1-.05-.122l-.116-.377q-.15-.554-.416-1.464c-.188-.632-.371-1.414-.593-2.323s-.46-1.951-.7-3.1a152.7,152.7,0,0,1-2.583-18.216c-.626-7.168-.765-13.682-.732-18.388,0-2.356.061-4.263.128-5.577.033-.643.055-1.148.072-1.519a1.658,1.658,0,0,1,.028-.394.509.509,0,0,1,0-.133.708.708,0,0,1,0,.139v1.907c0,1.319-.044,3.221-.033,5.577,0,4.7.188,11.209.815,18.36a167.9,167.9,0,0,0,2.495,18.205c.227,1.153.438,2.217.654,3.1s.377,1.7.554,2.334l.366,1.475.083.383C238.575,358.292,238.581,358.337,238.575,358.337Z" transform="translate(-124.222 -177.655)"/>
      <path id="Path_7089" data-name="Path 7089" d="M392.08,292.51a.626.626,0,0,1,.078.155c.05.116.116.266.194.455.177.421.416,1.014.726,1.763.155.388.338.809.516,1.281l.527,1.552c.189.554.388,1.159.6,1.791s.36,1.325.554,2.04c1.663,5.7,2.495,13.959,2.018,22.989s-1.541,17.185-2.217,23.039c-.338,2.927-.615,5.305-.809,6.968-.094.8-.172,1.441-.227,1.89l-.067.493a.672.672,0,0,1-.033.166.627.627,0,0,1,0-.166l.039-.5c.044-.455.105-1.109.177-1.9.155-1.663.4-4.036.715-6.979.6-5.887,1.624-14.014,2.112-23.028s-.333-17.224-1.924-22.928l-.554-2.04-.554-1.785c-.177-.554-.344-1.081-.5-1.558s-.344-.9-.493-1.292c-.288-.759-.51-1.353-.676-1.779-.066-.194-.122-.344-.166-.466A.555.555,0,0,1,392.08,292.51Z" transform="translate(-194.944 -171.322)"/>
      <path id="Path_7090" data-name="Path 7090" d="M176.325,386.778c-.078,0-.172-4.224-.205-9.424s0-9.424.083-9.424.172,4.224.205,9.424S176.408,386.778,176.325,386.778Z" transform="translate(-98.698 -204.932)"/>
      <path id="Path_7091" data-name="Path 7091" d="M317.426,376.363v-.233c0-.166.044-.388.078-.676.078-.61.183-1.48.322-2.6.072-.554.15-1.192.238-1.874s.155-1.436.238-2.217c.161-1.608.383-3.431.554-5.46.083-1.009.166-2.073.261-3.176s.139-2.256.211-3.448c.166-2.384.238-4.939.333-7.622.122-5.372.105-11.281-.172-17.473s-.843-12.08-1.469-17.418c-.349-2.666-.654-5.2-1.048-7.556-.183-1.181-.344-2.323-.554-3.415s-.383-2.14-.554-3.143c-.338-2-.726-3.8-1.042-5.383-.161-.793-.3-1.53-.443-2.217s-.288-1.292-.416-1.846l-.554-2.556c-.055-.283-.105-.5-.139-.665a2.124,2.124,0,0,1-.039-.233,1.443,1.443,0,0,1,.067.222l.172.66.615,2.55.438,1.84c.144.676.3,1.408.471,2.217.327,1.58.732,3.376,1.081,5.377q.277,1.5.554,3.143c.2,1.109.36,2.217.554,3.415.4,2.362.715,4.9,1.075,7.561.638,5.344,1.181,11.237,1.491,17.435s.288,12.118.15,17.5c-.105,2.689-.183,5.244-.36,7.628-.078,1.192-.133,2.345-.227,3.454s-.194,2.168-.283,3.182c-.155,2.029-.394,3.881-.554,5.455-.094.8-.183,1.552-.261,2.217s-.183,1.308-.266,1.874c-.161,1.109-.288,1.985-.371,2.589l-.105.676A1.329,1.329,0,0,1,317.426,376.363Z" transform="translate(-159.805 -168.934)"/>
      <path id="Path_7092" data-name="Path 7092" d="M341.94,338h.111l.349-.039,1.358-.155,5.194-.554,18.488-1.918h.139v.139c.139,5.594.3,11.924.477,18.638v.061l-.039.039-2.217,2.4-8.083,8.637-.072.078-.094-.05-13.621-6.763-.061-.028v-.05c-.593-6.181-1.109-11.292-1.425-14.879-.166-1.763-.294-3.149-.383-4.108-.039-.46-.072-.815-.094-1.075a1.327,1.327,0,0,1,0-.355,2.1,2.1,0,0,0,.05.377c.05.244.072.626.128,1.109.1.97.249,2.362.443,4.136.371,3.559.9,8.642,1.541,14.79l-.066-.094,13.637,6.724-.161.028,8.066-8.67,2.217-2.395-.039.1c-.161-6.713-.316-13.039-.449-18.638l.144.122-18.432,1.763-5.228.488-1.391.122-.36.033Z" transform="translate(-172.599 -190.404)"/>
      <path id="Path_7093" data-name="Path 7093" d="M368.419,347.18a5.932,5.932,0,0,1-.959.183c-.621.1-1.519.227-2.633.371-2.217.283-5.316.61-8.726.937l-8.737.854-2.644.277a5.711,5.711,0,0,1-.97.072,5.928,5.928,0,0,1,.959-.183c.621-.1,1.519-.227,2.633-.371,2.217-.283,5.316-.61,8.731-.937l8.731-.854,2.644-.277A5.709,5.709,0,0,1,368.419,347.18Z" transform="translate(-173.406 -195.685)"/>
      <g id="Group_223" data-name="Group 223" transform="translate(199.071 126.255)" opacity="0.3">
        <path id="Path_7094" data-name="Path 7094" d="M396.867,348.693l.931,11.326c2.057-9.7,5.289-20.129,4.784-30.03s-1.436-19.375-7.013-28.339a56.267,56.267,0,0,1,3.276,21.066C398.336,334.3,396.867,348.693,396.867,348.693Z" transform="translate(-395.57 -301.65)"/>
      </g>
      <path id="Path_7095" data-name="Path 7095" d="M147.851,347.147A2.367,2.367,0,0,0,144,346.055l-20.112,10.012c-1.325.66-2.772,1.441-3.26,2.827-.638,1.774.554,3.648,1.663,5.172,1.852,2.544,4.069,5.316,7.207,5.677l17.3-11.863c2.112-.31,3.426-2.667,3.326-4.8S148.927,349,147.851,347.147Z" transform="translate(-73.894 -194.931)" fill="#34ac97"/>
      <path id="Path_7096" data-name="Path 7096" d="M156.97,361.559a1.112,1.112,0,0,1-.177.194l-.554.516c-.477.444-1.181,1.07-2.062,1.824-1.768,1.513-4.28,3.526-7.207,5.577s-5.6,3.742-7.639,4.884c-1.009.582-1.835,1.037-2.411,1.336l-.665.338c-.155.078-.238.111-.244.1a.871.871,0,0,1,.216-.15l.638-.388,2.362-1.414c1.99-1.2,4.7-2.916,7.595-4.962s5.422-4.025,7.207-5.494l2.123-1.757.554-.471A2.858,2.858,0,0,1,156.97,361.559Z" transform="translate(-80.829 -202.092)"/>
      <g id="Group_224" data-name="Group 224" transform="translate(154.528 98.548)" opacity="0.3">
        <path id="Path_7097" data-name="Path 7097" d="M331.812,251.67c-2.367,7.861-5.682,16.753-8.482,24.392-2.384-2.023-5.721-4.7-8.11-6.73a66.913,66.913,0,0,0,7.367,11.514c.333.416.776.87,1.292.771s.748-.632.926-1.109l4.363-11.547C331.208,263.561,333.176,257.264,331.812,251.67Z" transform="translate(-315.22 -251.67)"/>
      </g>
      <path id="Path_7098" data-name="Path 7098" d="M261.335,96.735c7.207-2.073,13.948,0,20.594,3.448a37.064,37.064,0,0,1,15.478,15.766,36.562,36.562,0,0,1,3.953,22.878,29.176,29.176,0,0,1-12.29,19.4c-8.986,5.921-21.371,5.61-30.623.128s-15.345-15.589-16.958-26.227a35.536,35.536,0,0,1,3.21-21.62A27.118,27.118,0,0,1,261.33,96.729" transform="translate(-127.634 -83.708)" fill="#263238"/>
      <path id="Path_7099" data-name="Path 7099" d="M280.189,120c-1.391-2.678-1.33-5.854-2.09-8.781-1.663-6.436-7.539-11.087-13.926-12.944-5.937-1.735-12.806-.432-19.4,2.55a26.275,26.275,0,0,0-11.315,9.341,20.683,20.683,0,0,0-1.663,18.882l32.923-8.659c3.426,2.217,6.935,4.507,10.9,5.544a7.063,7.063,0,0,0,3.559.161,3.138,3.138,0,0,0,2.356-2.445C281.669,122.328,280.793,121.169,280.189,120Z" transform="translate(-122.828 -84.416)" fill="#263238"/>
      <path id="Path_7100" data-name="Path 7100" d="M289.491,188.551l-8.5-59.771c-.377-2.827-1.663-5.71-4.507-5.577L246.55,120.32c-9.38.432-13.781,12.75-12.95,22.08.926,10.389,2.461,23.034,4.851,30.529,4.806,15.062,16.941,15.217,16.941,15.217s.737,2.994,1.663,8.593l19.4,12.906Z" transform="translate(-124.275 -94.588)" fill="#ffbf9d"/>
      <path id="Path_7101" data-name="Path 7101" d="M246.723,178.961a2,2,0,0,0,2.217,1.7,1.912,1.912,0,0,0,1.768-2.1,2.012,2.012,0,0,0-2.217-1.707,1.924,1.924,0,0,0-1.768,2.1Z" transform="translate(-130.163 -119.778)" fill="#263238"/>
      <path id="Path_7102" data-name="Path 7102" d="M240.391,169.012c.283.222,1.613-1.109,3.747-1.436s3.853.51,4.047.211c.094-.133-.227-.554-.981-.954a5.543,5.543,0,0,0-3.287-.488,5.261,5.261,0,0,0-2.933,1.469C240.4,168.413,240.253,168.9,240.391,169.012Z" transform="translate(-127.324 -115.068)" fill="#263238"/>
      <path id="Path_7103" data-name="Path 7103" d="M282.253,173.184a2,2,0,0,0,2.217,1.707,1.913,1.913,0,0,0,1.768-2.1,2,2,0,0,0-2.217-1.707,1.918,1.918,0,0,0-1.768,2.1Z" transform="translate(-145.997 -117.206)" fill="#263238"/>
      <path id="Path_7104" data-name="Path 7104" d="M276.956,163.921c.283.222,1.619-1.109,3.747-1.436s3.853.51,4.047.211c.094-.133-.227-.554-.981-.953a5.544,5.544,0,0,0-3.293-.488,5.283,5.283,0,0,0-2.966,1.491C276.956,163.3,276.806,163.855,276.956,163.921Z" transform="translate(-143.616 -112.799)" fill="#263238"/>
      <path id="Path_7105" data-name="Path 7105" d="M264.147,182.409a14.19,14.19,0,0,0-3.553-.094c-.554,0-1.109,0-1.236-.36a3.391,3.391,0,0,1,.116-1.663q.466-2.09.981-4.385c1.33-6.242,2.217-11.337,1.957-11.387s-1.536,4.989-2.872,11.2c-.316,1.536-.621,3-.9,4.407a3.16,3.16,0,0,0,.044,2.173,1.353,1.353,0,0,0,1.014.66,3.51,3.51,0,0,0,.942,0A14.9,14.9,0,0,0,264.147,182.409Z" transform="translate(-135.397 -114.284)" fill="#263238"/>
      <path id="Path_7106" data-name="Path 7106" d="M273,235.687A39.7,39.7,0,0,0,292.835,227a22.935,22.935,0,0,1-18.848,13.332Z" transform="translate(-141.877 -142.128)" fill="#ff9a6c"/>
      <path id="Path_7107" data-name="Path 7107" d="M271.639,204.237a3.881,3.881,0,0,1,3.221-1.951,3.542,3.542,0,0,1,2.622.948,2.251,2.251,0,0,1,.554,2.517,2.56,2.56,0,0,1-2.683,1.109,8.149,8.149,0,0,1-2.971-1.208,2.334,2.334,0,0,1-.7-.554.721.721,0,0,1-.122-.793" transform="translate(-141.203 -131.112)" fill="#ff9a6c"/>
      <path id="Path_7108" data-name="Path 7108" d="M275.671,197.719c-.355.033,0,2.35-1.735,4.291s-4.224,2.068-4.2,2.389c0,.155.621.366,1.663.238a5.826,5.826,0,0,0,3.526-1.868,5.061,5.061,0,0,0,1.3-3.57C276.17,198.218,275.827,197.686,275.671,197.719Z" transform="translate(-140.424 -129.079)" fill="#263238"/>
      <path id="Path_7109" data-name="Path 7109" d="M275.88,152.771c.3.554,2.384-.05,4.928-.133s4.673.294,4.923-.277c.111-.272-.322-.759-1.225-1.2a8.582,8.582,0,0,0-7.506.31C276.14,151.984,275.747,152.511,275.88,152.771Z" transform="translate(-143.149 -108.013)" fill="#263238"/>
      <path id="Path_7110" data-name="Path 7110" d="M238.923,151.963c.449.427,1.84-.3,3.6-.593s3.326-.172,3.57-.732c.116-.272-.194-.715-.915-1.075a5.294,5.294,0,0,0-5.782,1.064C238.84,151.22,238.712,151.753,238.923,151.963Z" transform="translate(-126.648 -107.427)" fill="#263238"/>
      <path id="Path_7111" data-name="Path 7111" d="M295.589,114.785c-4.036-8.559-18.638-19.186-27.907-17.285L253.94,108.455a14.541,14.541,0,0,0,11.254,9.735c2.744.455,5.959.249,7.833,2.312s1.425,5.61,3.237,7.8c2.511,3.038,8.144,2.129,10.173,5.51.892,1.475.787,3.393,1.7,4.856,1.22,1.946,6.813,3.881,8.87,2.894s1.591-4.668,2.04-6.7a10.336,10.336,0,0,0-.6-6.907C296.936,123.694,297.518,118.866,295.589,114.785Z" transform="translate(-133.383 -84.319)" fill="#263238"/>
      <path id="Path_7112" data-name="Path 7112" d="M320.533,178.007c-.172-1.153.743-4.063,1.852-4.435,2.96-.931,8.465-1.524,9.69,6.17,1.663,10.533-9.225,10.028-9.3,9.729S321.132,181.965,320.533,178.007Z" transform="translate(-163.05 -118.082)" fill="#ffbf9d"/>
      <path id="Path_7113" data-name="Path 7113" d="M328.893,187.632c.044-.044.205.1.554.188a1.829,1.829,0,0,0,1.375-.188c1.042-.582,1.7-2.495,1.447-4.4a6.131,6.131,0,0,0-.931-2.539,2.134,2.134,0,0,0-1.6-1.186.937.937,0,0,0-1,.676c-.094.316,0,.516-.05.554s-.249-.139-.238-.588a1.181,1.181,0,0,1,.31-.721,1.392,1.392,0,0,1,.97-.432,2.61,2.61,0,0,1,2.173,1.325,6.348,6.348,0,0,1,1.109,2.833c.272,2.129-.5,4.285-1.951,4.989a2,2,0,0,1-1.719,0C328.954,187.865,328.86,187.655,328.893,187.632Z" transform="translate(-166.587 -120.733)" fill="#ff9a6c"/>
      <path id="Path_7114" data-name="Path 7114" d="M243.579,111.036c-.482,4.435-6.4,10.671-8.87,14.347-4.751,7.013-5.593,9.258-3.919,23.538-3.149-4.64-5.677-9.252-6.1-14.846a23.264,23.264,0,0,1,4.4-15.844,18.1,18.1,0,0,1,14.513-7.207" transform="translate(-120.317 -90.442)" fill="#263238"/>
      <path id="Path_7115" data-name="Path 7115" d="M301.911,79.455a17.5,17.5,0,0,1,8.748-4.867,21.463,21.463,0,0,1,14.258,1.2,15.183,15.183,0,0,1,8.521,10.367,12.75,12.75,0,0,1-4.59,12.329,21.359,21.359,0,0,0,8.764,5.133,6.285,6.285,0,0,1-4.23,2.417,19.4,19.4,0,0,1-5.067-.033,8.737,8.737,0,0,0,4.845,3.537,16.076,16.076,0,0,1-8.254-.272,32.1,32.1,0,0,1-7.467-3.354,54.113,54.113,0,0,1-18.061-16.076C298.663,86.706,299.677,81.906,301.911,79.455Z" transform="translate(-153.531 -73.902)" fill="#263238"/>
      <path id="Path_7116" data-name="Path 7116" d="M319.279,112.106c-5.954-8.7-13.532-13.349-20.389-14.8" transform="translate(-153.415 -84.333)" fill="#263238"/>
      <path id="Path_7117" data-name="Path 7117" d="M298.89,97.31a5.853,5.853,0,0,0,.97.294c.626.177,1.53.449,2.617.865a32.224,32.224,0,0,1,7.9,4.435,40.561,40.561,0,0,1,6.553,6.27c.732.9,1.325,1.663,1.707,2.162a5.753,5.753,0,0,0,.643.793,6.153,6.153,0,0,0-.554-.865c-.355-.554-.92-1.3-1.635-2.217a37.252,37.252,0,0,0-6.5-6.42,30.074,30.074,0,0,0-8.038-4.379,23.115,23.115,0,0,0-2.661-.771,6.358,6.358,0,0,0-1-.166Z" transform="translate(-153.415 -84.333)" fill="#455a64"/>
      <path id="Path_7118" data-name="Path 7118" d="M308.508,124.8l-.133.044-.388.155c-.333.144-.832.333-1.486.554a23.955,23.955,0,0,1-5.71,1.164,31.221,31.221,0,0,1-8.609-.554,55.891,55.891,0,0,1-10.123-3.154c-3.492-1.425-6.785-2.888-9.718-4.324a58.207,58.207,0,0,1-7.5-4.346,37.143,37.143,0,0,1-4.535-3.681c-.51-.471-.876-.865-1.109-1.109l-.294-.294c-.066-.061-.1-.094-.105-.089s0,.039.083.111l.272.316a15.007,15.007,0,0,0,1.109,1.17,34.652,34.652,0,0,0,4.5,3.775,55.614,55.614,0,0,0,7.5,4.435c2.938,1.458,6.225,2.933,9.724,4.363a55.274,55.274,0,0,0,10.189,3.143,30.7,30.7,0,0,0,8.687.477,23.234,23.234,0,0,0,5.688-1.253c.649-.249,1.142-.455,1.469-.621l.371-.183C308.47,124.83,308.514,124.808,308.508,124.8Z" transform="translate(-135.548 -89.618)" fill="#455a64"/>
      <path id="Path_7119" data-name="Path 7119" d="M291,214.111l-1-1.962c.072-.039,7.035-3.609,9.712-5.86,6.309-5.3,12.107-13.765,12.168-13.859l1.829,1.247c-.244.36-6.026,8.8-12.573,14.3C298.254,210.386,291.3,213.961,291,214.111Z" transform="translate(-149.453 -126.723)" fill="#455a64"/>
      <path id="Path_7120" data-name="Path 7120" d="M293.513,220.49S284,224.736,284,225.679s1.508,2.827,2.639,2.733a12.922,12.922,0,0,0,4.989-2.689,21.264,21.264,0,0,1,2.772-3.637Z" transform="translate(-146.779 -139.227)" fill="#263238"/>
      <path id="Path_7121" data-name="Path 7121" d="M303.2,136.228l-2.217-.105a51.933,51.933,0,0,0-3.249-18.743c-4.812-12.4-14.064-19.048-27.491-19.78a16.343,16.343,0,0,0-3.648.249l.97-.92a5.355,5.355,0,0,1,1.613-1.048h0a5.444,5.444,0,0,1,2.589-.4c16.952,1.469,24.614,12.246,28.056,21.16A53.218,53.218,0,0,1,303.2,136.228Z" transform="translate(-139.025 -83.509)" fill="#455a64"/>
      <ellipse id="Ellipse_96" data-name="Ellipse 96" cx="7.024" cy="10.1" rx="7.024" ry="10.1" transform="translate(156.047 52.68)" fill="#455a64"/>
      <path id="Path_7122" data-name="Path 7122" d="M331.878,178.975a.481.481,0,0,1,0-.139,1.953,1.953,0,0,0-.033-.41,14.262,14.262,0,0,0-.161-1.563,11.991,11.991,0,0,0-2.168-5.283,7.8,7.8,0,0,0-1.319-1.358,6,6,0,0,0-1.791-.97,4.989,4.989,0,0,0-2.151-.205,5.544,5.544,0,0,0-2.151.8,8.554,8.554,0,0,0-3.071,3.881,13.748,13.748,0,0,0,0,10.533,8.543,8.543,0,0,0,3.071,3.881,5.544,5.544,0,0,0,2.151.8,5.073,5.073,0,0,0,2.151-.205,6,6,0,0,0,1.791-.97,8,8,0,0,0,1.319-1.358,11.991,11.991,0,0,0,2.168-5.283,14.4,14.4,0,0,0,.161-1.563,1.494,1.494,0,0,1,.033-.41.438.438,0,0,1,0-.139.372.372,0,0,1,0,.139v.41a13.436,13.436,0,0,1-.111,1.58,11.814,11.814,0,0,1-2.118,5.388,7.994,7.994,0,0,1-1.342,1.408,6.1,6.1,0,0,1-1.857,1.026,5.272,5.272,0,0,1-2.256.227,5.749,5.749,0,0,1-2.256-.832,8.7,8.7,0,0,1-3.188-3.969,13.914,13.914,0,0,1,0-10.755,8.7,8.7,0,0,1,3.188-3.969,5.748,5.748,0,0,1,2.256-.832,5.272,5.272,0,0,1,2.256.227,6.1,6.1,0,0,1,1.857,1.026,7.806,7.806,0,0,1,1.342,1.408,11.77,11.77,0,0,1,2.118,5.388,13.435,13.435,0,0,1,.111,1.574v.416A.4.4,0,0,1,331.878,178.975Z" transform="translate(-161.784 -116.195)" fill="#263238"/>
      <ellipse id="Ellipse_97" data-name="Ellipse 97" cx="4.474" cy="6.431" rx="4.474" ry="6.431" transform="translate(159.678 55.784)" fill="#455a64"/>
      <path id="Path_7123" data-name="Path 7123" d="M333.328,180.858c-.033,0,0-.488-.161-1.347a7.517,7.517,0,0,0-1.386-3.326,4.147,4.147,0,0,0-1.962-1.458,3.149,3.149,0,0,0-1.353-.128,3.443,3.443,0,0,0-1.347.5,5.41,5.41,0,0,0-1.935,2.439,8.6,8.6,0,0,0-.66,3.326,8.508,8.508,0,0,0,.66,3.326,5.411,5.411,0,0,0,1.935,2.439,3.443,3.443,0,0,0,1.347.5,3.149,3.149,0,0,0,1.353-.127,4.147,4.147,0,0,0,1.962-1.458,7.517,7.517,0,0,0,1.386-3.326c.139-.859.128-1.347.161-1.342a2.779,2.779,0,0,1,0,.349,7.956,7.956,0,0,1-.067,1.009,7.417,7.417,0,0,1-1.336,3.448,4.307,4.307,0,0,1-2.051,1.563,3.326,3.326,0,0,1-1.452.155,3.753,3.753,0,0,1-1.458-.554,5.6,5.6,0,0,1-2.051-2.545,8.914,8.914,0,0,1,0-6.891,5.6,5.6,0,0,1,2.051-2.545,3.758,3.758,0,0,1,1.452-.554,3.36,3.36,0,0,1,1.458.155,4.308,4.308,0,0,1,2.051,1.563,7.418,7.418,0,0,1,1.336,3.448,7.967,7.967,0,0,1,.067,1.009A2.933,2.933,0,0,1,333.328,180.858Z" transform="translate(-164.703 -118.643)" fill="#263238"/>
      <ellipse id="Ellipse_98" data-name="Ellipse 98" cx="3.215" cy="4.623" rx="3.215" ry="4.623" transform="translate(161.247 57.592)" fill="#455a64"/>
      <path id="Path_7124" data-name="Path 7124" d="M333.632,182.286c-.028,0-.028-.349-.128-.965a5.543,5.543,0,0,0-1.009-2.389,2.944,2.944,0,0,0-1.4-1.037,2.218,2.218,0,0,0-1.913.272,5.512,5.512,0,0,0,0,8.232,2.218,2.218,0,0,0,1.913.272,2.944,2.944,0,0,0,1.4-1.037,5.543,5.543,0,0,0,1.009-2.389c.1-.615.1-.965.128-.959a.788.788,0,0,1,0,.249,5.606,5.606,0,0,1-.039.726,5.322,5.322,0,0,1-.954,2.5,3.149,3.149,0,0,1-1.491,1.109,2.5,2.5,0,0,1-1.059.116,2.688,2.688,0,0,1-1.064-.388,4.053,4.053,0,0,1-1.491-1.852,6.408,6.408,0,0,1,0-4.989,4.052,4.052,0,0,1,1.491-1.852,2.688,2.688,0,0,1,1.064-.388,2.5,2.5,0,0,1,1.059.116,3.149,3.149,0,0,1,1.491,1.109,5.322,5.322,0,0,1,.954,2.5,5.6,5.6,0,0,1,.039.726A.843.843,0,0,1,333.632,182.286Z" transform="translate(-165.954 -120.071)" fill="#263238"/>
    </g>
  </g>
</svg>
