<svg xmlns="http://www.w3.org/2000/svg" width="264.646" height="218.865" viewBox="0 0 264.646 218.865">
  <g id="Inbox_cleanup-pana_1_" data-name="Inbox cleanup-pana (1)" transform="translate(-24.71 -73.48)">
    <g id="freepik--Floor--inject-152" transform="translate(24.71 292.039)">
      <path id="Path_6457" data-name="Path 6457" d="M280.945,445.473c0,.088-57.361.153-128.1.153s-128.135-.065-128.135-.153,57.349-.153,128.135-.153S280.945,445.391,280.945,445.473Z" transform="translate(-24.71 -445.32)" fill="#263238"/>
    </g>
    <g id="freepik--Screen--inject-152" transform="translate(62.498 73.48)">
      <path id="Path_6458" data-name="Path 6458" d="M269.448,225.262c0-1.076-.053-60.265-.129-151.588l.129.112H89.141l.153-.153V225.22l-.141-.135,180.324.135-180.324.135H89V73.48H269.606v.129C269.524,165,269.448,224.186,269.448,225.262Z" transform="translate(-89 -73.48)" fill="#fafafa"/>
      <rect id="Rectangle_574" data-name="Rectangle 574" width="64.75" height="14.841" transform="translate(0.5 10.662)" fill="#ebebeb"/>
      <path id="Path_6461" data-name="Path 6461" d="M102.921,105a12.238,12.238,0,0,1-1.681,2.157,12.1,12.1,0,0,1-1.91,1.957A25.234,25.234,0,0,1,102.921,105Z" transform="translate(-93.258 -86.473)" fill="#263238"/>
      <path id="Path_6462" data-name="Path 6462" d="M115.31,109.076a12.613,12.613,0,0,1-1.857-2.063,12.8,12.8,0,0,1-1.622-2.263,12.508,12.508,0,0,1,1.857,2.069A12.643,12.643,0,0,1,115.31,109.076Z" transform="translate(-98.411 -86.37)" fill="#263238"/>
      <path id="Path_6463" data-name="Path 6463" d="M163.62,103.693c0,.088-7.582.153-16.928.153s-16.922-.065-16.922-.153,7.576-.153,16.922-.153S163.62,103.611,163.62,103.693Z" transform="translate(-105.806 -85.871)" fill="#263238"/>
      <rect id="Rectangle_575" data-name="Rectangle 575" width="116.045" height="25.427" transform="translate(64.426 76.587)" fill="#34ac97"/>
      <g id="Group_198" data-name="Group 198" transform="translate(64.426 76.587)" opacity="0.8">
        <rect id="Rectangle_576" data-name="Rectangle 576" width="116.045" height="25.427" fill="#fff"/>
      </g>
      <rect id="Rectangle_577" data-name="Rectangle 577" width="9.528" height="9.528" rx="2.25" transform="translate(71.891 84.534)" fill="#34ac97"/>
      <path id="Path_6464" data-name="Path 6464" d="M216.4,225.611a.588.588,0,0,1-.353-.118l-1.922-1.446a.588.588,0,1,1,.705-.935l1.5,1.123,3.009-3.268a.589.589,0,1,1,.864.8l-3.368,3.656A.588.588,0,0,1,216.4,225.611Z" transform="translate(-140.466 -134.2)" fill="#fff"/>
      <rect id="Rectangle_578" data-name="Rectangle 578" width="116.045" height="25.427" transform="translate(64.426 51.031)" fill="#34ac97"/>
      <path id="Path_6465" data-name="Path 6465" d="M314.532,203.613c0,.088-25.639.153-57.261.153s-57.261-.065-57.261-.153,25.633-.153,57.261-.153S314.532,203.531,314.532,203.613Z" transform="translate(-134.761 -127.061)" fill="#263238"/>
      <rect id="Rectangle_579" data-name="Rectangle 579" width="116.045" height="24.363" transform="translate(64.491 127.418)" fill="#34ac97"/>
      <g id="Group_199" data-name="Group 199" transform="translate(64.491 127.418)" opacity="0.8">
        <rect id="Rectangle_580" data-name="Rectangle 580" width="116.045" height="24.363" fill="#fff"/>
      </g>
      <rect id="Rectangle_581" data-name="Rectangle 581" width="9.528" height="9.528" rx="2.25" transform="translate(71.95 135.371)" fill="#34ac97"/>
      <path id="Path_6466" data-name="Path 6466" d="M216.53,312.09a.588.588,0,0,1-.353-.118l-1.922-1.446a.588.588,0,1,1,.705-.94l1.5,1.129,3.009-3.268a.588.588,0,1,1,.864.793l-3.386,3.662A.588.588,0,0,1,216.53,312.09Z" transform="translate(-140.536 -169.836)" fill="#fff"/>
      <g id="Group_200" data-name="Group 200" transform="translate(64.426 51.031)" opacity="0.8">
        <rect id="Rectangle_582" data-name="Rectangle 582" width="116.045" height="25.427" fill="#fff"/>
      </g>
      <rect id="Rectangle_583" data-name="Rectangle 583" width="9.528" height="9.528" rx="2.25" transform="translate(71.891 58.978)" fill="#34ac97"/>
      <path id="Path_6467" data-name="Path 6467" d="M216.4,182.141a.588.588,0,0,1-.353-.118l-1.922-1.446a.588.588,0,1,1,.705-.935l1.5,1.123,3.009-3.268a.589.589,0,1,1,.864.8l-3.368,3.656A.588.588,0,0,1,216.4,182.141Z" transform="translate(-140.466 -116.28)" fill="#fff"/>
      <path id="Path_6468" data-name="Path 6468" d="M269.448,225.262c0-1.076-.053-60.265-.129-151.588l.129.112H89.141l.153-.153V225.22l-.141-.135,180.324.135-180.324.135H89V73.48H269.606v.129C269.524,165,269.448,224.186,269.448,225.262Z" transform="translate(-89 -73.48)" fill="#34ac97"/>
      <path id="Path_6469" data-name="Path 6469" d="M89.85,91.513c0-.088,40.21-.153,89.806-.153s89.818.065,89.818.153-40.2.153-89.818.153S89.85,91.6,89.85,91.513Z" transform="translate(-89.35 -80.851)" fill="#34ac97"/>
      <circle id="Ellipse_83" data-name="Ellipse 83" cx="1.928" cy="1.928" r="1.928" transform="translate(4.062 3.303)" fill="#34ac97"/>
      <circle id="Ellipse_84" data-name="Ellipse 84" cx="1.928" cy="1.928" r="1.928" transform="translate(9.422 3.303)" fill="#34ac97"/>
      <path id="Path_6470" data-name="Path 6470" d="M118.442,79.664a1.928,1.928,0,1,1-2.727,0A1.928,1.928,0,0,1,118.442,79.664Z" transform="translate(-99.78 -75.796)" fill="#34ac97"/>
      <path id="Path_6473" data-name="Path 6473" d="M168.6,127.443a1.963,1.963,0,0,1,.5-.047v.094c-1.176.059-4.814.106-9.081.106-2.645,0-5.043,0-6.777-.047l-2.051-.047a3.392,3.392,0,0,1-.752-.059,3.391,3.391,0,0,1,.752-.059l2.051-.047c1.734-.029,4.114-.047,6.777-.047,4.267,0,7.882.047,9.081.106v.094A1.664,1.664,0,0,1,168.6,127.443Z" transform="translate(-114.327 -95.662)" fill="#263238"/>
      <path id="Path_6474" data-name="Path 6474" d="M168.6,133.993a1.663,1.663,0,0,1,.5-.047v.094c-1.176.059-4.814.106-9.081.106-2.645,0-5.043,0-6.777-.047l-2.051-.047a3.916,3.916,0,0,1-.752-.059,3.568,3.568,0,0,1,.752-.065l2.051-.047c1.734,0,4.114-.041,6.777-.041,4.267,0,7.882.041,9.081.106v.094A2.392,2.392,0,0,1,168.6,133.993Z" transform="translate(-114.327 -98.362)" fill="#263238"/>
      <path id="Path_6475" data-name="Path 6475" d="M168.6,140.533a1.963,1.963,0,0,1,.5-.047v.094c-1.176.065-4.814.106-9.081.106-2.645,0-5.043,0-6.777-.041l-2.051-.053a3.391,3.391,0,0,1-.752-.059,3.913,3.913,0,0,1,.752-.059l2.051-.047c1.734-.029,4.114-.047,6.777-.047,4.267,0,7.882.047,9.081.106v.094A1.663,1.663,0,0,1,168.6,140.533Z" transform="translate(-114.327 -101.058)" fill="#263238"/>
      <path id="Path_6478" data-name="Path 6478" d="M168.6,174.283a1.963,1.963,0,0,1,.5-.047v.094c-1.176.059-4.814.106-9.081.106-2.645,0-5.043,0-6.777-.047l-2.051-.047a3.391,3.391,0,0,1-.752-.059,3.39,3.39,0,0,1,.752-.059l2.051-.047c1.734-.029,4.114-.047,6.777-.047,4.267,0,7.882.047,9.081.106v.094a1.963,1.963,0,0,1-.5-.047Z" transform="translate(-114.327 -114.97)" fill="#263238"/>
      <path id="Path_6479" data-name="Path 6479" d="M168.6,180.825a1.663,1.663,0,0,1,.5-.047v.082c-1.176.059-4.814.106-9.081.106-2.645,0-5.043,0-6.777-.047l-2.051-.047a3.914,3.914,0,0,1-.752-.059,3.569,3.569,0,0,1,.752-.065l2.051-.047c1.734-.029,4.114-.041,6.777-.041,4.267,0,7.882.041,9.081.106v.094A2.391,2.391,0,0,1,168.6,180.825Z" transform="translate(-114.327 -117.662)" fill="#263238"/>
      <path id="Path_6480" data-name="Path 6480" d="M168.6,187.373a1.963,1.963,0,0,1,.5-.047v.094c-1.176.065-4.814.106-9.081.106-2.645,0-5.043,0-6.777-.041l-2.051-.053a3.392,3.392,0,0,1-.752-.059,3.914,3.914,0,0,1,.752-.059l2.051-.047c1.734-.029,4.114-.047,6.777-.047,4.267,0,7.882.047,9.081.106v.094A1.663,1.663,0,0,1,168.6,187.373Z" transform="translate(-114.327 -120.366)" fill="#263238"/>
      <path id="Path_6482" data-name="Path 6482" d="M136.845,225.431a3.427,3.427,0,0,1-.852.118c-.541.047-1.317.1-2.239.159l.123-.129a2.6,2.6,0,0,1-.464,1.37,1.816,1.816,0,0,1-.588.541,2,2,0,0,1-.823.188,2.034,2.034,0,0,1-1.616-.676,3.045,3.045,0,0,1-.658-1.4l.129.106c-.858,0-1.575,0-2.075-.053a2.991,2.991,0,0,1-.782-.076,3.352,3.352,0,0,1,.782-.076l2.075-.053h.082v.112a2.857,2.857,0,0,0,.617,1.246,1.763,1.763,0,0,0,1.387.588,1.622,1.622,0,0,0,.694-.159,1.5,1.5,0,0,0,.517-.441,2.445,2.445,0,0,0,.435-1.2v-.123h.112c.929-.035,1.7-.047,2.251-.053A3.528,3.528,0,0,1,136.845,225.431Z" transform="translate(-104.664 -136.101)" fill="#263238"/>
      <path id="Path_6483" data-name="Path 6483" d="M168.6,221.123a1.964,1.964,0,0,1,.5-.047v.094c-1.176.059-4.814.106-9.081.106-2.645,0-5.043,0-6.777-.047l-2.051-.047a3.392,3.392,0,0,1-.752-.059,3.39,3.39,0,0,1,.752-.059l2.051-.047c1.734-.029,4.114-.047,6.777-.047,4.267,0,7.882.047,9.081.106v.094A1.964,1.964,0,0,1,168.6,221.123Z" transform="translate(-114.327 -134.279)" fill="#263238"/>
      <path id="Path_6484" data-name="Path 6484" d="M168.6,227.673a1.662,1.662,0,0,1,.5-.047v.094c-1.176.059-4.814.106-9.081.106-2.645,0-5.043,0-6.777-.047l-2.051-.047a3.915,3.915,0,0,1-.752-.059,3.568,3.568,0,0,1,.752-.065l2.051-.047c1.734-.029,4.114-.041,6.777-.041,4.267,0,7.882.041,9.081.106v.094A2.392,2.392,0,0,1,168.6,227.673Z" transform="translate(-114.327 -136.979)" fill="#263238"/>
      <path id="Path_6485" data-name="Path 6485" d="M168.6,234.213a1.963,1.963,0,0,1,.5-.047v.094c-1.176.065-4.814.106-9.081.106-2.645,0-5.043,0-6.777-.041l-2.051-.053a3.392,3.392,0,0,1-.752-.059,3.914,3.914,0,0,1,.752-.059l2.051-.047c1.734,0,4.114-.047,6.777-.047,4.267,0,7.882.047,9.081.106v.094a1.664,1.664,0,0,1-.5-.047Z" transform="translate(-114.327 -139.675)" fill="#263238"/>
      <path id="Path_6486" data-name="Path 6486" d="M375.722,184.078h-4.479a1.763,1.763,0,0,1-1.793-1.763V174.85h.588v7.441a1.176,1.176,0,0,0,1.2,1.176h4.479a1.176,1.176,0,0,0,1.176-1.176v-7.183h.588v7.183a1.763,1.763,0,0,1-1.763,1.787Z" transform="translate(-204.608 -115.267)" fill="#34ac97"/>
      <rect id="Rectangle_584" data-name="Rectangle 584" width="9.534" height="0.588" transform="translate(164.107 59.624)" fill="#34ac97"/>
      <path id="Path_6487" data-name="Path 6487" d="M372.948,174.138h-.588v-.652a1.176,1.176,0,0,1,1.176-1.176h2.351a1.176,1.176,0,0,1,1.176,1.176v.523h-.588v-.523a.588.588,0,0,0-.588-.588h-2.351a.588.588,0,0,0-.588.588Z" transform="translate(-205.808 -114.22)" fill="#34ac97"/>
      <path id="Path_6488" data-name="Path 6488" d="M373.88,183.269a20.929,20.929,0,0,1,0-5.049,20.924,20.924,0,0,1,0,5.049Z" transform="translate(-206.364 -116.656)" fill="#34ac97"/>
      <path id="Path_6489" data-name="Path 6489" d="M376.23,183.269a20.926,20.926,0,0,1,0-5.049,20.926,20.926,0,0,1,0,5.049Z" transform="translate(-207.332 -116.656)" fill="#34ac97"/>
      <path id="Path_6490" data-name="Path 6490" d="M378.6,183.269a20.926,20.926,0,0,1,0-5.049,20.926,20.926,0,0,1,0,5.049Z" transform="translate(-208.309 -116.656)" fill="#34ac97"/>
      <path id="Path_6491" data-name="Path 6491" d="M375.722,225.074h-4.479a1.8,1.8,0,0,1-1.793-1.793V215.84h.588v7.441a1.2,1.2,0,0,0,1.2,1.2h4.479a1.2,1.2,0,0,0,1.176-1.2V216.1h.588v7.183a1.763,1.763,0,0,1-1.763,1.793Z" transform="translate(-204.608 -132.164)" fill="#34ac97"/>
      <rect id="Rectangle_585" data-name="Rectangle 585" width="9.534" height="0.588" transform="translate(164.107 83.717)" fill="#34ac97"/>
      <path id="Path_6492" data-name="Path 6492" d="M372.948,215.128h-.588v-.652a1.176,1.176,0,0,1,1.176-1.176h2.351a1.176,1.176,0,0,1,1.176,1.176V215h-.588v-.523a.588.588,0,0,0-.588-.588h-2.351a.588.588,0,0,0-.588.588Z" transform="translate(-205.808 -131.117)" fill="#34ac97"/>
      <path id="Path_6493" data-name="Path 6493" d="M373.893,224.259a20.931,20.931,0,0,1,0-5.049A20.931,20.931,0,0,1,373.893,224.259Z" transform="translate(-206.376 -133.553)" fill="#34ac97"/>
      <path id="Path_6494" data-name="Path 6494" d="M376.243,224.259a20.929,20.929,0,0,1,0-5.049,20.931,20.931,0,0,1,0,5.049Z" transform="translate(-207.345 -133.553)" fill="#34ac97"/>
      <path id="Path_6495" data-name="Path 6495" d="M378.613,224.259a20.931,20.931,0,0,1,0-5.049A20.931,20.931,0,0,1,378.613,224.259Z" transform="translate(-208.322 -133.553)" fill="#34ac97"/>
      <path id="Path_6496" data-name="Path 6496" d="M375.722,315.2h-4.479a1.763,1.763,0,0,1-1.793-1.763V306h.588v7.441a1.176,1.176,0,0,0,1.2,1.176h4.479a1.176,1.176,0,0,0,1.176-1.176v-7.206h.588v7.183a1.763,1.763,0,0,1-1.763,1.787Z" transform="translate(-204.608 -169.33)" fill="#34ac97"/>
      <rect id="Rectangle_586" data-name="Rectangle 586" width="9.534" height="0.588" transform="translate(164.107 136.688)" fill="#34ac97"/>
      <path id="Path_6497" data-name="Path 6497" d="M372.948,305.244h-.588v-.658a1.176,1.176,0,0,1,1.176-1.176h2.351a1.176,1.176,0,0,1,1.176,1.176v.529h-.588v-.529a.588.588,0,0,0-.588-.588h-2.351a.588.588,0,0,0-.588.588Z" transform="translate(-205.808 -168.262)" fill="#34ac97"/>
      <path id="Path_6498" data-name="Path 6498" d="M373.893,314.379a20.93,20.93,0,0,1,0-5.049A20.93,20.93,0,0,1,373.893,314.379Z" transform="translate(-206.376 -170.703)" fill="#34ac97"/>
      <path id="Path_6499" data-name="Path 6499" d="M376.243,314.379a20.929,20.929,0,0,1,0-5.049,20.93,20.93,0,0,1,0,5.049Z" transform="translate(-207.345 -170.703)" fill="#34ac97"/>
      <path id="Path_6500" data-name="Path 6500" d="M378.613,314.379a20.93,20.93,0,0,1,0-5.049A20.93,20.93,0,0,1,378.613,314.379Z" transform="translate(-208.322 -170.703)" fill="#34ac97"/>
      <path id="Path_6503" data-name="Path 6503" d="M369.547,136.36a12.93,12.93,0,0,1-1.687,2.139,12.024,12.024,0,0,1-1.91,1.957,23.284,23.284,0,0,1,3.6-4.1Z" transform="translate(-203.165 -99.401)" fill="#263238"/>
      <path id="Path_6504" data-name="Path 6504" d="M381.934,140.41a12.932,12.932,0,0,1-1.857-2.063,12.779,12.779,0,0,1-1.616-2.257,12.931,12.931,0,0,1,1.857,2.063A12.421,12.421,0,0,1,381.934,140.41Z" transform="translate(-208.322 -99.289)" fill="#263238"/>
      <path id="Path_6505" data-name="Path 6505" d="M314.528,116.763c0,.082-25.639.153-57.261.153S200,116.839,200,116.763s25.633-.153,57.261-.153S314.528,116.681,314.528,116.763Z" transform="translate(-134.757 -91.259)" fill="#263238"/>
      <path id="Path_6506" data-name="Path 6506" d="M314.528,160.193c0,.082-25.639.153-57.261.153S200,160.275,200,160.193s25.633-.153,57.261-.153S314.528,160.1,314.528,160.193Z" transform="translate(-134.757 -109.162)" fill="#263238"/>
      <path id="Path_6507" data-name="Path 6507" d="M314.528,246.153c0,.082-25.639.153-57.261.153S200,246.235,200,246.153,225.633,246,257.261,246,314.528,246.065,314.528,246.153Z" transform="translate(-134.757 -144.597)" fill="#263238"/>
      <path id="Path_6508" data-name="Path 6508" d="M314.532,290.153c0,.088-25.639.153-57.261.153s-57.261-.065-57.261-.153S225.643,290,257.271,290,314.532,290.071,314.532,290.153Z" transform="translate(-134.761 -162.735)" fill="#263238"/>
      <path id="Path_6509" data-name="Path 6509" d="M219.449,140.223a1.141,1.141,0,0,0,.353-.082,1.293,1.293,0,0,0,.752-.629,3.689,3.689,0,0,0,.129-1.6c.018-.647,0-1.381,0-2.187v-3.38a2.075,2.075,0,0,0-.059-.7,1.176,1.176,0,0,0-1.052-.805H212.56a1.176,1.176,0,0,0-1.146.958c-.041.541,0,1.176,0,1.763V138.5a3.07,3.07,0,0,0,.035.711,1.211,1.211,0,0,0,.323.588,1.252,1.252,0,0,0,.553.306,2.832,2.832,0,0,0,.641.035h1.275l3.838.047,1.046.029a1.764,1.764,0,0,1,.364.029,1.346,1.346,0,0,1-.364,0l-1.046.029-3.838.053h-1.275a2.891,2.891,0,0,1-.7-.035,1.428,1.428,0,0,1-1.07-1.04,2.939,2.939,0,0,1-.047-.776v-5.819a7.113,7.113,0,0,1,0-.923,1.475,1.475,0,0,1,1.446-1.176h6.983a1.464,1.464,0,0,1,1.287,1,2.351,2.351,0,0,1,.071.788v6.466a1.493,1.493,0,0,1-.182.758,1.381,1.381,0,0,1-.84.635A.852.852,0,0,1,219.449,140.223Z" transform="translate(-139.347 -97.01)" fill="#263238"/>
      <path id="Path_6510" data-name="Path 6510" d="M219.449,269.968a1.14,1.14,0,0,0,.353-.082,1.293,1.293,0,0,0,.752-.629,3.688,3.688,0,0,0,.129-1.6c.018-.647,0-1.381,0-2.187v-3.38a2.075,2.075,0,0,0-.059-.7,1.176,1.176,0,0,0-1.052-.805H212.56a1.176,1.176,0,0,0-1.146.952c-.041.547,0,1.176,0,1.763v4.931a3.1,3.1,0,0,0,.035.717,1.173,1.173,0,0,0,.876.893,2.522,2.522,0,0,0,.641.041h1.275l3.838.047,1.046.029a1.765,1.765,0,0,1,.364,0,1.346,1.346,0,0,1-.364.029l-1.046.029-3.838.047h-1.275a2.89,2.89,0,0,1-.7-.035,1.428,1.428,0,0,1-1.07-1.04,2.939,2.939,0,0,1-.047-.782V262.4a7.113,7.113,0,0,1,0-.923,1.475,1.475,0,0,1,1.446-1.2h6.983a1.464,1.464,0,0,1,1.287,1,2.351,2.351,0,0,1,.071.788v6.466a1.493,1.493,0,0,1-.182.758,1.346,1.346,0,0,1-.84.629A.934.934,0,0,1,219.449,269.968Z" transform="translate(-139.347 -150.479)" fill="#263238"/>
      <path id="Path_6511" data-name="Path 6511" d="M198.56,230.575V210.226c0-12.567.153-29.93.329-49.109s.312-36.536.423-49.115c.041-6.277.071-11.362.094-14.888,0-1.763,0-3.109.035-4.044V112c-.029,12.567-.153,29.935-.335,49.115s-.312,36.53-.417,49.109c-.041,6.277-.071,11.362-.094,14.888,0,1.763,0,3.109-.035,4.05v1.411Z" transform="translate(-134.163 -80.974)" fill="#263238"/>
      <path id="Path_6512" data-name="Path 6512" d="M282.242,177.613c0,.082-8.817.153-19.726.153s-19.726-.071-19.726-.153,8.817-.153,19.726-.153S282.242,177.525,282.242,177.613Z" transform="translate(-152.396 -116.343)" fill="#263238"/>
      <path id="Path_6513" data-name="Path 6513" d="M306.9,185.013c0,.088-14.354.153-32.051.153s-32.057-.065-32.057-.153,14.354-.153,32.057-.153S306.9,184.942,306.9,185.013Z" transform="translate(-152.396 -119.393)" fill="#263238"/>
      <path id="Path_6514" data-name="Path 6514" d="M282.242,264.723c0,.082-8.817.153-19.726.153s-19.726-.071-19.726-.153,8.817-.153,19.726-.153S282.242,264.635,282.242,264.723Z" transform="translate(-152.396 -152.252)" fill="#263238"/>
      <path id="Path_6515" data-name="Path 6515" d="M306.9,272.123c0,.082-14.354.153-32.051.153s-32.057-.071-32.057-.153,14.354-.153,32.057-.153S306.9,272.041,306.9,272.123Z" transform="translate(-152.396 -155.302)" fill="#263238"/>
      <path id="Path_6516" data-name="Path 6516" d="M282.242,135.753c0,.088-8.817.159-19.726.159s-19.726-.071-19.726-.159,8.817-.153,19.726-.153S282.242,135.671,282.242,135.753Z" transform="translate(-152.396 -99.087)" fill="#263238"/>
      <path id="Path_6517" data-name="Path 6517" d="M306.9,143.163c0,.082-14.354.153-32.051.153s-32.057-.071-32.057-.153,14.354-.153,32.057-.153S306.9,143.081,306.9,143.163Z" transform="translate(-152.396 -102.142)" fill="#263238"/>
      <path id="Path_6518" data-name="Path 6518" d="M282.242,220.293c0,.082-8.817.153-19.726.153s-19.726-.071-19.726-.153,8.817-.153,19.726-.153S282.242,220.211,282.242,220.293Z" transform="translate(-152.396 -133.937)" fill="#263238"/>
      <path id="Path_6519" data-name="Path 6519" d="M306.9,227.693c0,.088-14.354.153-32.051.153s-32.057-.065-32.057-.153,14.354-.153,32.057-.153S306.9,227.611,306.9,227.693Z" transform="translate(-152.396 -136.987)" fill="#263238"/>
      <path id="Path_6520" data-name="Path 6520" d="M282.242,306.053c0,.082-8.817.153-19.726.153s-19.726-.071-19.726-.153,8.817-.153,19.726-.153S282.242,305.959,282.242,306.053Z" transform="translate(-152.396 -169.289)" fill="#263238"/>
      <path id="Path_6521" data-name="Path 6521" d="M306.9,313.453c0,.082-14.354.153-32.051.153s-32.057-.071-32.057-.153,14.354-.153,32.057-.153S306.9,313.371,306.9,313.453Z" transform="translate(-152.396 -172.339)" fill="#263238"/>
      <rect id="Rectangle_587" data-name="Rectangle 587" width="7.765" height="7.765" transform="translate(166.846 13.866)" fill="#e0e0e0"/>
      <rect id="Rectangle_588" data-name="Rectangle 588" width="7.765" height="7.765" transform="translate(154.203 13.866)" fill="#e0e0e0"/>
      <rect id="Rectangle_589" data-name="Rectangle 589" width="7.765" height="7.765" transform="translate(141.56 13.866)" fill="#e0e0e0"/>
      <path id="Path_6522" data-name="Path 6522" d="M103.29,131.66l3.3,4.3,2.821-4.3Z" transform="translate(-94.891 -97.463)" fill="#263238"/>
    </g>
    <g id="freepik--Character--inject-152" transform="translate(31.546 155.494)">
      <path id="Path_6523" data-name="Path 6523" d="M85.973,221c7.641-10.086,15.729-8.664,21.33-6.225a15.388,15.388,0,0,1,8.993,14.694c-.094,1.611-.441,3.3.217,4.779,1.052,2.351,4.114,3.039,5.878,4.931,2.428,2.592,1.893,6.689,1.07,10.145s-1.681,7.394.347,10.3c1.863,2.663,5.408,3.38,8.335,4.8a15.282,15.282,0,0,1,8.088,9.516,13.049,13.049,0,0,1-2.768,12.038c-2.845,3.092-7.112,4.467-11.268,5.078A41.515,41.515,0,0,1,78.672,247.89" transform="translate(-53.768 -213.012)" fill="#263238"/>
      <path id="Path_6524" data-name="Path 6524" d="M115.3,216.65a22.1,22.1,0,0,0-2.721.153,36.39,36.39,0,0,0-6.324,1.834,17.932,17.932,0,0,1-6.513,1.217,8.164,8.164,0,0,1-1.993-.323,2.774,2.774,0,0,1-.694-.276,13.46,13.46,0,0,0,2.692.388,19.4,19.4,0,0,0,6.413-1.293,31.973,31.973,0,0,1,6.389-1.763,10.692,10.692,0,0,1,2.022-.053A2.792,2.792,0,0,1,115.3,216.65Z" transform="translate(-61.37 -214.453)" fill="#455a64"/>
      <path id="Path_6525" data-name="Path 6525" d="M148.881,353.24c.294.882,6.389,29.683,6.389,29.683l46.37,17.827-2.61,6.765-39.757-3.5h0c-23.205-3.462-24.493-14.847-23.094-27.573l2.4-21.812Z" transform="translate(-77.336 -270.817)" fill="#ffbe9d"/>
      <path id="Path_6526" data-name="Path 6526" d="M44.67,317.2c4.779-7.236,12.032-11.409,18.674-13.719l24.393,1.763a18.6,18.6,0,0,1,14.859,5.484l2.269,60.441,5.6,15.87H52.435L44.67,317.2" transform="translate(-39.774 -250.305)" fill="#34ac97"/>
      <path id="Path_6527" data-name="Path 6527" d="M119,355.355a1.506,1.506,0,0,1-.141-.094l-.394-.294a7.6,7.6,0,0,0-.641-.476l-.911-.588c-.364-.194-.764-.411-1.2-.629a16.1,16.1,0,0,0-5.343-1.4,15.927,15.927,0,0,0-4.737.294,14.283,14.283,0,0,0-5,2.1,10.5,10.5,0,0,0-3.938,4.426,6.324,6.324,0,0,0-.535,3.062,5.766,5.766,0,0,0,1.176,2.968,4.114,4.114,0,0,0,2.68,1.593,2.592,2.592,0,0,0,2.639-1.134,3.4,3.4,0,0,0,.047-2.88,5.473,5.473,0,0,0-.694-1.293,7.235,7.235,0,0,0-.976-1.058,10.48,10.48,0,0,0-4.814-2.4,14.782,14.782,0,0,0-4.737-.264,31.151,31.151,0,0,0-6.748,1.6l-1.793.588-.464.153a.482.482,0,0,1-.165.041l.153-.071.458-.182c.4-.153,1-.382,1.763-.658a29.583,29.583,0,0,1,6.754-1.687,15.047,15.047,0,0,1,4.814.229,10.815,10.815,0,0,1,4.943,2.445,7.474,7.474,0,0,1,.535.523,5.288,5.288,0,0,1,.488.588,5.878,5.878,0,0,1,.735,1.352,3.715,3.715,0,0,1-.065,3.139,2.533,2.533,0,0,1-1.264,1.081,3.357,3.357,0,0,1-1.669.2,4.391,4.391,0,0,1-2.886-1.7,6.013,6.013,0,0,1-1.217-3.127,6.531,6.531,0,0,1,.588-3.209,10.733,10.733,0,0,1,4.056-4.544,14.694,14.694,0,0,1,5.108-2.122,16.151,16.151,0,0,1,4.808-.259,15.284,15.284,0,0,1,3.879.858,16.15,16.15,0,0,1,1.5.629c.447.229.846.458,1.176.658l.905.617a8.019,8.019,0,0,1,.629.505l.37.317Z" transform="translate(-55.29 -270.135)" fill="#fafafa"/>
      <path id="Path_6528" data-name="Path 6528" d="M142.115,315.76l14.4,25.9-15.976,4.908Z" transform="translate(-79.294 -255.367)" fill="#34ac97"/>
      <path id="Path_6529" data-name="Path 6529" d="M145.652,387.634a2.717,2.717,0,0,1-.047-.453c0-.323-.041-.752-.076-1.293-.053-1.176-.123-2.786-.217-4.784-.165-4.032-.37-9.61-.553-15.77s-.294-11.756-.329-15.788v-6.083a2.672,2.672,0,0,1,.029-.453,2.239,2.239,0,0,1,.035.453l.035,1.3c0,1.176.059,2.786.106,4.779.106,4.067.253,9.634.417,15.782s.347,11.708.464,15.776c.047,1.993.088,3.621.118,4.784v1.3a2.21,2.21,0,0,1,.018.453Z" transform="translate(-80.897 -266.6)" fill="#263238"/>
      <path id="Path_6530" data-name="Path 6530" d="M134.2,325.245a1.646,1.646,0,0,1-.329.229,9.011,9.011,0,0,1-1.011.553,10.662,10.662,0,0,1-10.145-.852,6.7,6.7,0,0,1-1.4-1.176,3.468,3.468,0,0,1-.87-1.763,2.351,2.351,0,0,1,.523-1.957,2.092,2.092,0,0,1,1.993-.588,2.586,2.586,0,0,1,1.722,1.176,2.939,2.939,0,0,1,.312,2,3.962,3.962,0,0,1-.817,1.763,4.784,4.784,0,0,1-1.44,1.176,9.017,9.017,0,0,1-3.262.917,14.561,14.561,0,0,1-2.939.035,14.405,14.405,0,0,1-4.114-.993,10.63,10.63,0,0,1-1.046-.488,1.533,1.533,0,0,1-.347-.206,3.578,3.578,0,0,1,.37.153c.241.106.588.259,1.064.429a15.231,15.231,0,0,0,4.114.888,14.7,14.7,0,0,0,2.892-.071,8.853,8.853,0,0,0,3.156-.911,4.6,4.6,0,0,0,1.352-1.105,3.715,3.715,0,0,0,.746-1.634,2.639,2.639,0,0,0-.282-1.793A2.251,2.251,0,0,0,122.917,320a1.8,1.8,0,0,0-1.71.482,2.057,2.057,0,0,0-.447,1.71,3.186,3.186,0,0,0,.788,1.6,6.6,6.6,0,0,0,1.346,1.176,10.339,10.339,0,0,0,5.842,1.763,10.808,10.808,0,0,0,4.114-.788C133.72,325.527,134.178,325.216,134.2,325.245Z" transform="translate(-67.125 -256.964)" fill="#fafafa"/>
      <path id="Path_6531" data-name="Path 6531" d="M108.522,415.579l-.165-.112-.47-.341a15.9,15.9,0,0,0-1.922-1.146,17.1,17.1,0,0,0-7.935-1.763A23.935,23.935,0,0,0,86.5,415.673a16.457,16.457,0,0,0-2.845,2.034,9.739,9.739,0,0,0-2.245,2.821,5.584,5.584,0,0,0-.535,3.6,3.18,3.18,0,0,0,.905,1.6,1.763,1.763,0,0,0,1.693.417,2.4,2.4,0,0,0,1.358-1.176,4.079,4.079,0,0,0,.488-1.8,6.289,6.289,0,0,0-1.117-3.527,8.594,8.594,0,0,0-2.6-2.486,10.085,10.085,0,0,0-3.227-1.264,18.638,18.638,0,0,0-6.466-.065,38.649,38.649,0,0,0-5.543,1.211,39.781,39.781,0,0,0-7.576,3.2c-.852.464-1.5.852-1.94,1.117l-.494.306-.176.094a1.224,1.224,0,0,1,.159-.123l.482-.329c.423-.282,1.07-.682,1.916-1.176a38.2,38.2,0,0,1,7.576-3.245,37.378,37.378,0,0,1,5.572-1.252,18.586,18.586,0,0,1,6.548.035,10.215,10.215,0,0,1,3.321,1.293,8.816,8.816,0,0,1,2.7,2.563,6.548,6.548,0,0,1,1.176,3.674,4.355,4.355,0,0,1-.529,1.94,2.7,2.7,0,0,1-1.54,1.346A2.069,2.069,0,0,1,81.578,426a3.526,3.526,0,0,1-.993-1.763,5.843,5.843,0,0,1,.588-3.809,9.992,9.992,0,0,1,2.316-2.91,17.227,17.227,0,0,1,2.9-2.063,24.089,24.089,0,0,1,11.667-3.427,16.94,16.94,0,0,1,7.994,1.857,11.35,11.35,0,0,1,2.469,1.693Z" transform="translate(-44.519 -295.05)" fill="#fafafa"/>
      <path id="Path_6532" data-name="Path 6532" d="M62.513,333.319c-1.763-9.034-14.547-9.369-16.787-.441-.035.135-.071.276-.1.417-3.3,14.065,7.841,55.627,10.833,58.025s5.96,5.114,11.074,2.992c2.992-1.24,34.056-28.7,34.056-28.7s7.183,6.883,9.581,6.283,6.971-7.641,6.971-7.641,4.444,6.66,5,6.759a1.669,1.669,0,0,0,1.763-2.392c-.588-.9-6.254-13.284-6.254-13.284s4.461-.482,3.562-1.981c0,0-.112-1.375-3.127-1.111s-2.957-3.18-8.57-2.851-17.2,1.763-33.5,14.271L69.461,369Z" transform="translate(-39.919 -259.737)" fill="#ffbe9d"/>
      <path id="Path_6533" data-name="Path 6533" d="M92.775,379.72l.188-.153.588-.429,2.2-1.652a87.459,87.459,0,0,1,8.734-5.5,57.6,57.6,0,0,1,14.694-5.678c1.481-.312,3.015-.588,4.608-.77.8-.088,1.6-.159,2.428-.217a10.616,10.616,0,0,1,2.51.112,6.6,6.6,0,0,1,2.4.935c.746.453,1.375,1.082,2.128,1.469a2.78,2.78,0,0,0,1.176.311c.417,0,.876-.053,1.334-.035a4.115,4.115,0,0,1,1.37.235,1.452,1.452,0,0,1,1.011,1.034v-.059a.864.864,0,0,1,.118.635,1.035,1.035,0,0,1-.37.523,3.6,3.6,0,0,1-1.07.541,12.377,12.377,0,0,1-2.351.5l.123-.206,3.985,8.623c.7,1.469,1.393,2.98,2.151,4.444a2.416,2.416,0,0,1,.288.588,1.9,1.9,0,0,1,0,.682,1.946,1.946,0,0,1-.67,1.176,1.71,1.71,0,0,1-1.287.394h-.17a.434.434,0,0,1-.123-.041l-.082-.059a2.419,2.419,0,0,1-.247-.241c-.147-.159-.288-.323-.417-.494-1.534-1.963-2.892-4-4.244-6h.253a51.246,51.246,0,0,1-3.456,4.667,18.808,18.808,0,0,1-1.981,2.063c-.182.153-.376.294-.558.447a6.682,6.682,0,0,1-.623.37,1.816,1.816,0,0,1-1.452.118,9.458,9.458,0,0,1-2.5-1.228c-.77-.5-1.5-1.035-2.21-1.587-1.411-1.111-2.733-2.269-3.991-3.456h.188c-9.851,8.664-18.286,15.94-24.316,20.984-3.015,2.522-5.431,4.479-7.124,5.772-.846.647-1.511,1.129-1.975,1.428a3.886,3.886,0,0,1-.735.406,6.349,6.349,0,0,0,.711-.447c.453-.317,1.111-.8,1.946-1.458,1.669-1.311,4.067-3.292,7.053-5.831,6-5.078,14.412-12.384,24.246-21.066l.094-.082.094.088A51.3,51.3,0,0,0,121.423,385c.7.547,1.428,1.081,2.187,1.569a9.14,9.14,0,0,0,2.416,1.176c.882.329,1.669-.294,2.351-.876a19.29,19.29,0,0,0,1.946-2.028,51.409,51.409,0,0,0,3.433-4.638l.123-.194.129.188c1.346,1.993,2.716,4.032,4.226,5.978q.2.247.406.476c.071.07.141.147.212.206l.047.035h0v.006h.141a1.4,1.4,0,0,0,1.07-.323,1.5,1.5,0,0,0,.294-2.063c-.782-1.5-1.464-2.992-2.163-4.467l-3.979-8.634-.082-.182h.2a12.155,12.155,0,0,0,2.286-.488,3.257,3.257,0,0,0,.982-.482.764.764,0,0,0,.27-.37.588.588,0,0,0-.082-.417h0v-.041a1.211,1.211,0,0,0-.829-.794,3.81,3.81,0,0,0-1.27-.212c-.441,0-.864.041-1.334.035a3.145,3.145,0,0,1-1.328-.353c-.811-.417-1.428-1.046-2.145-1.487a6.466,6.466,0,0,0-2.3-.9,18.16,18.16,0,0,0-4.861.1,40.1,40.1,0,0,0-4.585.752,57.968,57.968,0,0,0-14.694,5.6,93.254,93.254,0,0,0-8.764,5.419L93.5,379.209l-.588.411Z" transform="translate(-55.698 -275.785)" fill="#eb996e"/>
      <path id="Path_6534" data-name="Path 6534" d="M81.647,408.6a2.578,2.578,0,0,1-.123-.435,7.964,7.964,0,0,1-.147-1.228,12.52,12.52,0,0,1,2.157-7.747,9.064,9.064,0,0,1,.764-.976c.2-.212.317-.323.329-.312s-.37.529-.911,1.4a14.2,14.2,0,0,0-2.128,7.641C81.6,407.95,81.7,408.591,81.647,408.6Z" transform="translate(-54.897 -289.227)" fill="#eb996e"/>
      <path id="Path_6535" data-name="Path 6535" d="M50.735,311.61C50.447,311.8,40.1,314.9,38.474,325.5s-.67,29.071-.67,29.071l28.06-1.928-8.047-37.277Z" transform="translate(-36.828 -253.656)" fill="#34ac97"/>
      <path id="Path_6536" data-name="Path 6536" d="M159.432,397.566c-.047,0,.029-.382,0-.964a5.073,5.073,0,0,0-.588-2.181,5.167,5.167,0,0,0-1.475-1.716c-.47-.341-.817-.482-.8-.535a1.975,1.975,0,0,1,.923.359,4.579,4.579,0,0,1,1.622,1.763,4.491,4.491,0,0,1,.523,2.351A1.981,1.981,0,0,1,159.432,397.566Z" transform="translate(-85.901 -286.865)" fill="#eb996e"/>
      <path id="Path_6537" data-name="Path 6537" d="M163.818,392.851a6.507,6.507,0,0,0-2.868-4.491,1.669,1.669,0,0,1,.758.341,4.814,4.814,0,0,1,1.411,1.434,4.761,4.761,0,0,1,.711,1.887A1.616,1.616,0,0,1,163.818,392.851Z" transform="translate(-87.707 -285.295)" fill="#eb996e"/>
      <path id="Path_6538" data-name="Path 6538" d="M165.83,384.6c0-.029.264.088.588.376a4.115,4.115,0,0,1,1.328,3.009c0,.429-.076.688-.112.682a9.4,9.4,0,0,0-.523-2.2,9.7,9.7,0,0,0-1.281-1.863Z" transform="translate(-89.719 -283.742)" fill="#eb996e"/>
      <path id="Path_6539" data-name="Path 6539" d="M61.955,351.27a.393.393,0,0,1-.147,0l-.423-.047a14.948,14.948,0,0,0-1.634-.112,15.564,15.564,0,0,0-5.878,1.087,14.883,14.883,0,0,0-6.859,5.443,8.035,8.035,0,0,0-1.469,4.873,5.42,5.42,0,0,0,.788,2.586,3.979,3.979,0,0,0,2.151,1.669,3.756,3.756,0,0,0,2.7-.129,3.074,3.074,0,0,0,1.646-1.987,4.972,4.972,0,0,0-.106-2.592A7.4,7.4,0,0,0,51.61,359.8a11.215,11.215,0,0,0-7.435-4.4,11.385,11.385,0,0,0-5.878.788,13.174,13.174,0,0,0-1.464.735l-.364.223-.129.065a8.389,8.389,0,0,1,1.91-1.129,11.2,11.2,0,0,1,5.948-.893,11.362,11.362,0,0,1,7.641,4.438,7.547,7.547,0,0,1,1.176,2.351,5.243,5.243,0,0,1,.112,2.751,3.368,3.368,0,0,1-1.8,2.187,4.114,4.114,0,0,1-2.939.147,4.3,4.3,0,0,1-2.3-1.822,5.678,5.678,0,0,1-.858-2.71,8.323,8.323,0,0,1,1.569-5.055,14.977,14.977,0,0,1,7.018-5.484,15.183,15.183,0,0,1,5.942-1A11.171,11.171,0,0,1,61.955,351.27Z" transform="translate(-36.34 -269.888)" fill="#fafafa"/>
      <path id="Path_6540" data-name="Path 6540" d="M65.284,323.239a3.713,3.713,0,0,1-.711.329,6.546,6.546,0,0,1-.87.312,9.886,9.886,0,0,1-1.176.329,12.782,12.782,0,0,1-1.452.276c-.529.088-1.093.118-1.693.159a19.544,19.544,0,0,1-3.879-.265,19.136,19.136,0,0,1-3.727-1.105c-.547-.247-1.07-.47-1.528-.735a12.928,12.928,0,0,1-1.27-.764,11.173,11.173,0,0,1-.987-.717,6.707,6.707,0,0,1-.7-.588,3.748,3.748,0,0,1-.553-.552c.041-.053.846.729,2.351,1.681a13.043,13.043,0,0,0,1.281.717,16.63,16.63,0,0,0,1.516.705,18.416,18.416,0,0,0,7.488,1.346c.588-.035,1.176-.053,1.669-.129s1-.147,1.44-.235C64.232,323.633,65.261,323.18,65.284,323.239Z" transform="translate(-40.627 -257.08)" fill="#fafafa"/>
      <path id="Path_6541" data-name="Path 6541" d="M64,356.16a1.588,1.588,0,0,1,.065.282c.035.212.082.482.135.817.118.752.276,1.763.47,3.074.382,2.663.917,6.36,1.534,10.651v.159h-.153l-6.56.458-15.212,1-4.608.27-1.258.059H38a1.882,1.882,0,0,1,.435-.065l1.246-.112,4.608-.364L59.5,371.3l6.554-.441-.135.165c-.588-4.3-1.07-8-1.422-10.662-.165-1.293-.294-2.351-.388-3.086-.041-.341-.071-.588-.094-.829A.982.982,0,0,1,64,356.16Z" transform="translate(-37.024 -272.021)" fill="#263238"/>
      <g id="Group_201" data-name="Group 201" transform="translate(13.307 49.607)" opacity="0.2">
        <path id="Path_6542" data-name="Path 6542" d="M59.038,305.462c-.282.993.505,1.922,1.017,2.815.987,1.716,1.04,3.791,1.129,5.772a40.239,40.239,0,0,0,1.663,10.745,18.425,18.425,0,0,0,5.937,8.928,12.107,12.107,0,0,0,10.227,2.4,9.062,9.062,0,0,0,6.765-7.641c.3-3.615-1.881-6.836-3.127-10.21a53.783,53.783,0,0,1-1.946-8.082,24.106,24.106,0,0,0-2.7-7.823,10,10,0,0,0-6.466-4.849,6.388,6.388,0,0,0-6.948,3.333" transform="translate(-58.979 -297.41)"/>
      </g>
      <path id="Path_6543" data-name="Path 6543" d="M82,229.1v3.121l-.206,46.793c0,5.431,4.632,9.781,10.445,9.763h0c5.878,0,10.727-4.479,10.839-9.992.123-5.76.353-11.82.353-11.82s7.441-1.1,9.152-10.756c.852-4.8.746-12.7.458-19.156a10.221,10.221,0,0,0-11.109-9.728Z" transform="translate(-55.076 -218.895)" fill="#ffbe9d"/>
      <path id="Path_6544" data-name="Path 6544" d="M129.35,253.2a1.246,1.246,0,0,1-1.223,1.234,1.176,1.176,0,0,1-1.258-1.146,1.24,1.24,0,0,1,1.217-1.228,1.176,1.176,0,0,1,1.264,1.14Z" transform="translate(-73.659 -229.106)" fill="#263238"/>
      <path id="Path_6545" data-name="Path 6545" d="M128.479,249.915c-.159.159-1.082-.558-2.422-.588s-2.351.629-2.469.464c-.071-.076.094-.364.523-.664a3.4,3.4,0,0,1,1.981-.588,3.3,3.3,0,0,1,1.922.658C128.42,249.545,128.556,249.839,128.479,249.915Z" transform="translate(-72.3 -227.657)" fill="#263238"/>
      <path id="Path_6546" data-name="Path 6546" d="M107.82,252.774A1.24,1.24,0,0,1,106.6,254a1.176,1.176,0,0,1-1.258-1.14,1.246,1.246,0,0,1,1.217-1.234,1.176,1.176,0,0,1,1.264,1.146Z" transform="translate(-64.783 -228.929)" fill="#263238"/>
      <path id="Path_6547" data-name="Path 6547" d="M106.129,249.931c-.159.159-1.087-.553-2.422-.588s-2.351.629-2.469.464c-.071-.076.094-.364.523-.67a3.45,3.45,0,0,1,1.981-.588,3.256,3.256,0,0,1,1.928.658C106.07,249.567,106.206,249.86,106.129,249.931Z" transform="translate(-63.086 -227.661)" fill="#263238"/>
      <path id="Path_6548" data-name="Path 6548" d="M117.22,260.094a8.893,8.893,0,0,1,2.175-.359c.347,0,.67-.088.729-.317a1.763,1.763,0,0,0-.206-1.017c-.312-.835-.629-1.7-.964-2.616a44.577,44.577,0,0,1-2.145-6.836,45.442,45.442,0,0,1,2.686,6.648l.923,2.627a1.987,1.987,0,0,1,.153,1.346.864.864,0,0,1-.588.488,2.786,2.786,0,0,1-.588.071,9.188,9.188,0,0,1-2.175-.035Z" transform="translate(-69.505 -227.826)" fill="#263238"/>
      <path id="Path_6549" data-name="Path 6549" d="M109.541,292.241A24.6,24.6,0,0,1,96.61,288.55s3.027,6.707,12.731,5.972Z" transform="translate(-61.185 -244.151)" fill="#eb996e"/>
      <path id="Path_6550" data-name="Path 6550" d="M113.658,272.707a2.4,2.4,0,0,0-2.14-.935,2.2,2.2,0,0,0-1.534.788,1.393,1.393,0,0,0-.135,1.587,1.611,1.611,0,0,0,1.763.476,5.137,5.137,0,0,0,1.728-.987,1.522,1.522,0,0,0,.388-.388.464.464,0,0,0,0-.5" transform="translate(-66.565 -237.23)" fill="#eb996e"/>
      <path id="Path_6551" data-name="Path 6551" d="M110.642,269.36c.217,0,.194,1.44,1.422,2.492s2.768.917,2.774,1.123c0,.088-.347.276-1,.282a3.591,3.591,0,0,1-2.322-.858,3.115,3.115,0,0,1-1.093-2.087C110.377,269.736,110.548,269.348,110.642,269.36Z" transform="translate(-66.876 -236.24)" fill="#263238"/>
      <path id="Path_6552" data-name="Path 6552" d="M106.036,241.262c-.141.359-1.469.165-3.039.323s-2.851.588-3.051.235c-.088-.159.135-.494.652-.835a5.025,5.025,0,0,1,2.269-.752,5.137,5.137,0,0,1,2.351.323C105.807,240.8,106.095,241.091,106.036,241.262Z" transform="translate(-62.552 -224.223)" fill="#263238"/>
      <path id="Path_6553" data-name="Path 6553" d="M128.013,243.279c-.241.3-1.176-.029-2.263-.065s-2.045.165-2.257-.153c-.088-.159.065-.458.476-.741a3.268,3.268,0,0,1,3.644.182C128,242.821,128.119,243.115,128.013,243.279Z" transform="translate(-72.257 -224.901)" fill="#263238"/>
      <path id="Path_6554" data-name="Path 6554" d="M83.866,223.553c2.621,3.415,0,8.305-2.974,11.444s-6.542,6.771-5.69,10.986c.993,4.89,7.723,7.964,6.777,12.861-.347,1.763-1.763,3.321-1.728,5.143,0,3.286,4.291,4.843,5.543,7.876,1.716,4.167-2.851,8.382-2.88,12.884,0,2.557,1.458,4.926,1.563,7.482.206,5.237-5.948,9.128-11.038,7.894s-8.623-6.2-9.775-11.326-.394-10.439.376-15.617c-.488,2.21-3.838,2.657-5.49,1.111s-1.875-4.114-1.528-6.342c.87-5.613,4.5-10.392,6.2-15.805,1.487-4.737,1.446-9.792,2.069-14.694s2.092-10.063,5.819-13.343,10.216-3.744,13.29.153" transform="translate(-44.808 -216.507)" fill="#263238"/>
      <path id="Path_6555" data-name="Path 6555" d="M76.2,298.716a2.178,2.178,0,0,1,.123-.194c.088-.135.212-.323.37-.552a12.414,12.414,0,0,0,1.9-6.219,11.991,11.991,0,0,0-.952-5.19,26.036,26.036,0,0,0-3.562-5.384,27.31,27.31,0,0,1-2.075-2.986,11.8,11.8,0,0,1-1.375-3.574,7.112,7.112,0,0,1,.329-4.05,5.749,5.749,0,0,1,1.176-1.763A13.153,13.153,0,0,1,73.8,267.44a8.763,8.763,0,0,0,3.015-2.98,6.26,6.26,0,0,0,.27-4.285c-.705-2.939-2.751-5.231-4.062-7.788a9.827,9.827,0,0,1-1.217-4.062,8.893,8.893,0,0,1,.758-4,17.363,17.363,0,0,1,4.555-5.878c1.763-1.569,3.468-2.9,4.884-4.291a15.441,15.441,0,0,0,3.221-4.214,10.274,10.274,0,0,0,1.105-3.844,7.124,7.124,0,0,0-.253-2.516c-.165-.588-.306-.835-.282-.846a4.643,4.643,0,0,1,.341.829,6.848,6.848,0,0,1,.312,2.539,10.033,10.033,0,0,1-1.07,3.909,15.553,15.553,0,0,1-3.221,4.3c-1.417,1.411-3.139,2.757-4.867,4.326a17.292,17.292,0,0,0-4.467,5.831,8.7,8.7,0,0,0-.729,3.868,9.651,9.651,0,0,0,1.176,3.938c.658,1.258,1.475,2.463,2.251,3.727a14.459,14.459,0,0,1,1.846,4.114,6.571,6.571,0,0,1-.294,4.5,8.992,8.992,0,0,1-3.115,3.086,12.932,12.932,0,0,0-1.628,1.328,5.6,5.6,0,0,0-1.14,1.663,6.877,6.877,0,0,0-.317,3.885A11.8,11.8,0,0,0,72.2,278.1a27.488,27.488,0,0,0,2.051,2.939,25.932,25.932,0,0,1,3.556,5.455,12.4,12.4,0,0,1-1.1,11.532c-.17.241-.312.411-.4.535a1.177,1.177,0,0,1-.112.153Z" transform="translate(-50.412 -217.022)" fill="#455a64"/>
      <path id="Path_6556" data-name="Path 6556" d="M165.093,370.092l-22.277,38.9-31.546,1.093v3.468h92.158l25.08-41.086a2.351,2.351,0,0,0-1.993-3.527h-59.4a2.351,2.351,0,0,0-2.022,1.152Z" transform="translate(-67.228 -277.289)" fill="#263238"/>
      <path id="Path_6557" data-name="Path 6557" d="M246.318,402.256c-1.4,2.175-3.527,3.286-4.808,2.475s-1.146-3.227.253-5.4,3.527-3.286,4.808-2.475S247.717,400.081,246.318,402.256Z" transform="translate(-120.551 -288.687)" fill="#e0e0e0"/>
    </g>
    <g id="freepik--Plant--inject-152" transform="translate(238.1 152.777)">
      <path id="Path_6558" data-name="Path 6558" d="M437.532,329.831a1.763,1.763,0,0,0-.129-.3l-.406-.87a22.282,22.282,0,0,1-1.176-3.474,30.768,30.768,0,0,1,.106-13.425,71.359,71.359,0,0,1,2.486-9.016c1.058-3.2,2.281-6.6,3.28-10.268a39.679,39.679,0,0,0,1.616-11.8c-.147-4.173-1.387-8.341-2.745-12.49s-2.757-8.229-3.18-12.3a18.75,18.75,0,0,1,2.263-11.368c1.8-3.315,4.062-6.148,5.754-9.087a31.562,31.562,0,0,0,3.462-8.734,32.463,32.463,0,0,0,.217-13.519,24.948,24.948,0,0,0-1.411-4.785,2.219,2.219,0,0,0,.082.317c.071.229.165.535.288.917a35.523,35.523,0,0,1,.876,3.58,32.845,32.845,0,0,1-.353,13.431,31.559,31.559,0,0,1-3.468,8.623c-1.693,2.9-3.967,5.725-5.8,9.081a19.126,19.126,0,0,0-2.351,11.591c.423,4.156,1.834,8.229,3.186,12.4s2.58,8.264,2.739,12.373a39.646,39.646,0,0,1-1.581,11.679c-.982,3.656-2.192,7.053-3.233,10.263a71.283,71.283,0,0,0-2.451,9.069,30.255,30.255,0,0,0,.035,13.519,19.774,19.774,0,0,0,1.281,3.468l.447.852A1.37,1.37,0,0,0,437.532,329.831Z" transform="translate(-407.176 -208.39)" fill="#263238"/>
      <path id="Path_6559" data-name="Path 6559" d="M446.319,247s3.439-11-2.733-17.439a.376.376,0,0,0-.652.188C442.6,231.566,442.193,237.1,446.319,247Z" transform="translate(-410.421 -217.065)" fill="#34ac97"/>
      <path id="Path_6560" data-name="Path 6560" d="M445.32,235.88a10.11,10.11,0,0,0,.235,2.034c.223,1.393.488,3.039.782,4.849s.547,3.456.77,4.855a10.786,10.786,0,0,0,.364,2,8.228,8.228,0,0,0-.059-2.045c-.118-1.258-.335-2.986-.652-4.884s-.641-3.6-.905-4.837a9.22,9.22,0,0,0-.535-1.975Z" transform="translate(-411.485 -219.722)" fill="#263238"/>
      <path id="Path_6561" data-name="Path 6561" d="M434.225,293.55s-2.1-11.332-10.58-14.107a.376.376,0,0,0-.488.47C423.7,281.642,425.919,286.726,434.225,293.55Z" transform="translate(-402.341 -237.67)" fill="#34ac97"/>
      <path id="Path_6562" data-name="Path 6562" d="M427.89,284.39a10.453,10.453,0,0,0,1.176,1.681c.852,1.134,1.852,2.457,2.939,3.92l2.939,3.932a11.225,11.225,0,0,0,1.264,1.6,8.434,8.434,0,0,0-1.011-1.763c-.688-1.058-1.693-2.48-2.857-4.014s-2.251-2.886-3.068-3.85a8.654,8.654,0,0,0-1.381-1.511Z" transform="translate(-404.3 -239.719)" fill="#263238"/>
      <path id="Path_6563" data-name="Path 6563" d="M441.221,340.147s1.275-11.456-6.013-16.6a.382.382,0,0,0-.588.306C434.626,325.7,435.278,331.212,441.221,340.147Z" transform="translate(-407.074 -255.836)" fill="#34ac97"/>
      <path id="Path_6564" data-name="Path 6564" d="M437.93,329.49a10.061,10.061,0,0,0,.629,1.946c.488,1.334,1.058,2.892,1.693,4.614s1.176,3.286,1.681,4.62a11.367,11.367,0,0,0,.741,1.9,8.227,8.227,0,0,0-.447-1.993c-.353-1.217-.9-2.868-1.569-4.7s-1.317-3.421-1.816-4.579A9.052,9.052,0,0,0,437.93,329.49Z" transform="translate(-408.438 -258.31)" fill="#263238"/>
      <path id="Path_6565" data-name="Path 6565" d="M429.963,388.953s.87-11.5-6.595-16.375a.382.382,0,0,0-.588.329C422.856,374.753,423.7,380.237,429.963,388.953Z" transform="translate(-402.193 -276.047)" fill="#34ac97"/>
      <path id="Path_6566" data-name="Path 6566" d="M426.29,378.44a9.483,9.483,0,0,0,.682,1.922l1.857,4.549c.694,1.7,1.317,3.245,1.846,4.555a11.39,11.39,0,0,0,.811,1.875,8.506,8.506,0,0,0-.523-1.981c-.394-1.176-1-2.833-1.734-4.614s-1.44-3.368-1.975-4.5a9.343,9.343,0,0,0-.964-1.8Z" transform="translate(-403.64 -278.489)" fill="#263238"/>
      <path id="Path_6567" data-name="Path 6567" d="M457.24,232.611s10.216-5.337,10.415-14.254a.382.382,0,0,0-.588-.329C465.539,219.074,461.337,222.689,457.24,232.611Z" transform="translate(-416.398 -212.338)" fill="#34ac97"/>
      <path id="Path_6568" data-name="Path 6568" d="M465.587,223.84a9.876,9.876,0,0,0-1.27,1.6c-.835,1.146-1.8,2.492-2.88,3.979s-2.057,2.833-2.892,3.973a11.168,11.168,0,0,0-1.176,1.675,8.18,8.18,0,0,0,1.4-1.487c.805-.97,1.875-2.351,3-3.909s2.1-3,2.78-4.062a8.87,8.87,0,0,0,1.034-1.769Z" transform="translate(-416.452 -214.759)" fill="#263238"/>
      <path id="Path_6569" data-name="Path 6569" d="M438.57,273.236s10.521-4.7,11.268-13.6a.382.382,0,0,0-.588-.364C447.681,260.264,443.26,263.591,438.57,273.236Z" transform="translate(-408.702 -229.341)" fill="#34ac97"/>
      <path id="Path_6570" data-name="Path 6570" d="M447.6,264.93a9.559,9.559,0,0,0-1.37,1.516l-3.115,3.8-3.127,3.791a10.777,10.777,0,0,0-1.264,1.6,8.815,8.815,0,0,0,1.493-1.4c.864-.917,2.016-2.228,3.233-3.715s2.275-2.868,3.021-3.885a9.193,9.193,0,0,0,1.129-1.7Z" transform="translate(-408.764 -231.697)" fill="#263238"/>
      <path id="Path_6571" data-name="Path 6571" d="M448.86,315.649s7.224-8.981,3.838-17.228a.382.382,0,0,0-.676-.065C451.053,299.926,448.643,304.928,448.86,315.649Z" transform="translate(-412.938 -245.404)" fill="#34ac97"/>
      <path id="Path_6572" data-name="Path 6572" d="M452.061,304.81a10.466,10.466,0,0,0-.529,1.975c-.3,1.381-.652,3-1.04,4.8s-.752,3.415-1.058,4.8a11.428,11.428,0,0,0-.394,2,8.34,8.34,0,0,0,.688-1.922c.353-1.211.782-2.9,1.176-4.785s.717-3.591.917-4.837a9.24,9.24,0,0,0,.241-2.028Z" transform="translate(-413.018 -248.137)" fill="#263238"/>
      <path id="Path_6573" data-name="Path 6573" d="M436.7,370.7s10.439-4.879,11.033-13.778a.382.382,0,0,0-.588-.359C445.587,357.549,441.226,360.981,436.7,370.7Z" transform="translate(-407.931 -269.447)" fill="#34ac97"/>
      <path id="Path_6574" data-name="Path 6574" d="M445.564,362.26a10.261,10.261,0,0,0-1.346,1.54l-3.051,3.856-3.033,3.856a10.963,10.963,0,0,0-1.234,1.628,8.641,8.641,0,0,0,1.464-1.428c.852-.929,1.981-2.263,3.174-3.774s2.228-2.9,2.939-3.932a9.5,9.5,0,0,0,1.087-1.746Z" transform="translate(-408.014 -271.819)" fill="#263238"/>
      <path id="Path_6575" data-name="Path 6575" d="M401.32,303.57v.987c.029.694.071,1.628.123,2.8.129,2.457.317,5.878.547,9.992h0a38.483,38.483,0,0,0,5.725,13.278c2.092,3.309,4.285,6.313,6.178,9.111a64.356,64.356,0,0,1,4.632,7.641A32.086,32.086,0,0,1,420.693,353c.182.688.317,1.223.4,1.593a2.888,2.888,0,0,0,.153.553,3.406,3.406,0,0,0-.071-.588c-.047-.376-.159-.923-.323-1.622a29.9,29.9,0,0,0-2.051-5.707,61.027,61.027,0,0,0-4.579-7.747c-1.881-2.815-4.062-5.825-6.142-9.116a39.2,39.2,0,0,1-5.725-13.119h0c-.288-4.114-.523-7.518-.7-9.992-.094-1.176-.17-2.092-.223-2.786a5.454,5.454,0,0,0-.076-.735,1.03,1.03,0,0,0-.035-.159Z" transform="translate(-393.347 -247.625)" fill="#263238"/>
      <path id="Path_6576" data-name="Path 6576" d="M410.722,335.689s-4.42-10.639,1.14-17.633a.382.382,0,0,1,.67.129C413.026,319.984,413.937,325.456,410.722,335.689Z" transform="translate(-396.536 -253.535)" fill="#34ac97"/>
      <path id="Path_6577" data-name="Path 6577" d="M412.535,324.5a9.151,9.151,0,0,0-.347,2.016c-.159,1.252-.335,2.986-.47,4.9s-.2,3.662-.2,4.92a8.232,8.232,0,0,0,.123,2.045,11.4,11.4,0,0,0,.176-2.034c.094-1.411.206-3.068.329-4.9s.247-3.491.341-4.9A9.844,9.844,0,0,0,412.535,324.5Z" transform="translate(-397.544 -256.253)" fill="#263238"/>
      <g id="Group_202" data-name="Group 202" transform="translate(12.52 64.372)" opacity="0.3">
        <path id="Path_6578" data-name="Path 6578" d="M410.722,335.689s-4.42-10.639,1.14-17.633a.382.382,0,0,1,.67.129C413.026,319.984,413.937,325.456,410.722,335.689Z" transform="translate(-409.056 -317.907)"/>
      </g>
      <path id="Path_6579" data-name="Path 6579" d="M434.488,379.465S430.961,368.5,437.05,362a.382.382,0,0,1,.658.182C438.055,363.994,438.514,369.525,434.488,379.465Z" transform="translate(-406.601 -271.66)" fill="#34ac97"/>
      <path id="Path_6580" data-name="Path 6580" d="M437.045,368.33a8.926,8.926,0,0,0-.511,1.981c-.259,1.234-.588,2.939-.864,4.843s-.5,3.632-.588,4.89a8.629,8.629,0,0,0-.041,2.045,10.658,10.658,0,0,0,.347-2.01c.206-1.4.453-3.045.723-4.855s.529-3.462.741-4.861a10.394,10.394,0,0,0,.194-2.034Z" transform="translate(-407.23 -274.321)" fill="#263238"/>
      <g id="Group_203" data-name="Group 203" transform="translate(26.871 90.215)" opacity="0.3">
        <path id="Path_6581" data-name="Path 6581" d="M434.488,379.465S430.961,368.5,437.05,362a.382.382,0,0,1,.658.182C438.055,363.994,438.514,369.525,434.488,379.465Z" transform="translate(-433.472 -361.876)"/>
      </g>
      <path id="Path_6582" data-name="Path 6582" d="M396.31,314.9s-9.44-6.607-8.487-15.476a.382.382,0,0,1,.635-.253C389.827,300.43,393.53,304.562,396.31,314.9Z" transform="translate(-387.755 -245.773)" fill="#34ac97"/>
      <g id="Group_204" data-name="Group 204" transform="translate(0 53.303)" opacity="0.3">
        <path id="Path_6583" data-name="Path 6583" d="M396.31,314.9s-9.44-6.607-8.487-15.476a.382.382,0,0,1,.635-.253C389.827,300.43,393.53,304.562,396.31,314.9Z" transform="translate(-387.755 -299.075)"/>
      </g>
      <path id="Path_6584" data-name="Path 6584" d="M390.78,305.33a8.815,8.815,0,0,0,.782,1.887c.541,1.14,1.322,2.7,2.234,4.391s1.763,3.2,2.469,4.261a8.563,8.563,0,0,0,1.2,1.658,11.085,11.085,0,0,0-.94-1.81l-2.351-4.314-2.351-4.32A10.243,10.243,0,0,0,390.78,305.33Z" transform="translate(-389.002 -248.351)" fill="#263238"/>
      <path id="Path_6585" data-name="Path 6585" d="M418.576,365.817s-11.391-1.763-14.442-10.157a.382.382,0,0,1,.458-.5C406.4,355.649,411.516,357.741,418.576,365.817Z" transform="translate(-394.497 -268.887)" fill="#34ac97"/>
      <g id="Group_205" data-name="Group 205" transform="translate(9.613 86.261)" opacity="0.3">
        <path id="Path_6586" data-name="Path 6586" d="M418.576,365.817s-11.391-1.763-14.442-10.157a.382.382,0,0,1,.458-.5C406.4,355.649,411.516,357.741,418.576,365.817Z" transform="translate(-404.111 -355.148)"/>
      </g>
      <path id="Path_6587" data-name="Path 6587" d="M409.24,359.8a9.209,9.209,0,0,0,1.54,1.346c.982.788,2.351,1.84,3.938,2.939s3.015,2.081,4.114,2.739a8.094,8.094,0,0,0,1.81.958,11.655,11.655,0,0,0-1.64-1.211l-4.026-2.815-4-2.851A10.17,10.17,0,0,0,409.24,359.8Z" transform="translate(-396.612 -270.805)" fill="#263238"/>
      <path id="Path_6588" data-name="Path 6588" d="M437.122,408.96l-3.262,21.424-13.049-.023-4.391-21.4Z" transform="translate(-399.572 -291.07)" fill="#455a64"/>
      <path id="Path_6589" data-name="Path 6589" d="M419.67,419.324a.462.462,0,0,0,.106.082,3.533,3.533,0,0,0,.347.194,4.654,4.654,0,0,0,1.458.435,5.349,5.349,0,0,0,2.4-.223,5.043,5.043,0,0,0,2.58-1.875,3.644,3.644,0,0,0,.588-1.793,1.957,1.957,0,0,0-.888-1.84,2.128,2.128,0,0,0-2.187.176,3.185,3.185,0,0,0-1.246,1.969,8.318,8.318,0,0,0-.165,2.422,8.012,8.012,0,0,0,.529,2.475A5.478,5.478,0,0,0,424.7,423.5a4.191,4.191,0,0,0,2.51,1.046,4.549,4.549,0,0,0,2.616-.758,7.847,7.847,0,0,0,1.945-1.763,4.285,4.285,0,0,0,.987-2.351,2.727,2.727,0,0,0-.929-2.269,2.122,2.122,0,0,0-2.31-.141,2.486,2.486,0,0,0-1.334,1.763,3.344,3.344,0,0,0,1.652,3.391,4.614,4.614,0,0,0,3.151.458,7.142,7.142,0,0,0,2.239-.882,12.136,12.136,0,0,0,1.258-.846,2.351,2.351,0,0,0,.406-.347,3.969,3.969,0,0,0-.447.288c-.288.188-.711.476-1.281.788a7.2,7.2,0,0,1-2.21.8,4.4,4.4,0,0,1-2.986-.476,3.092,3.092,0,0,1-1.487-3.115,2.157,2.157,0,0,1,1.176-1.522,1.763,1.763,0,0,1,1.963.118,2.4,2.4,0,0,1,.793,1.993,3.926,3.926,0,0,1-.923,2.157,7.452,7.452,0,0,1-1.857,1.675,4.279,4.279,0,0,1-2.41.705,3.885,3.885,0,0,1-2.292-.964,5.1,5.1,0,0,1-1.422-2.016,7.777,7.777,0,0,1-.511-2.351,8.228,8.228,0,0,1,.141-2.322,2.874,2.874,0,0,1,1.1-1.763,1.81,1.81,0,0,1,1.863-.182,1.669,1.669,0,0,1,.758,1.569,3.427,3.427,0,0,1-.541,1.669,4.9,4.9,0,0,1-2.433,1.822,5.337,5.337,0,0,1-2.263.235,6.172,6.172,0,0,1-1.957-.588Z" transform="translate(-400.911 -293.181)" fill="#263238"/>
    </g>
  </g>
</svg>
